<svg xmlns="http://www.w3.org/2000/svg" version="1.1" xmlns:xlink="http://www.w3.org/1999/xlink" width="512" height="512" x="0" y="0" viewBox="0 0 1706.66 1706.66" style="enable-background:new 0 0 512 512" xml:space="preserve" fill-rule="evenodd" class=""><g><path fill="#b3b3b3" d="M1340.6 873.31H366.08c-26.33 0-26.33-40 0-40h974.52c26.33 0 26.33 40 0 40zM1686.56 873.33c-37.71 0-78.59 7.83-78.59-20s40.88-20 78.59-20c26.33 0 26.33 40 0 40z" opacity="1" data-original="#b3b3b3" class=""></path><path d="M1360.6 1078.38h107.93c6.22 0 11.48-5.26 11.48-11.48l.01-427.13c0-6.24-5.26-11.5-11.48-11.5h-107.93v450.12z" fill="#000000" opacity="1" data-original="#000000" class=""></path><path fill="#484848" d="M1564.98 1060.81c-41.37 0-84.96 8.37-84.96-20 0-10.41 5.88-15.87 15.36-18.61V685.38c-21.58-4.41-20.03-39.54 4.64-39.54h64.96c45.76 0 82.99 37.23 82.99 82.99v249c0 45.76-37.23 82.97-82.99 82.97z" opacity="1" data-original="#484848" class=""></path><path fill="#b3b3b3" d="M78.7 873.33c-37.71 0-78.59 7.83-78.59-20s40.86-20 78.59-20c26.32 0 26.34 40 0 40z" opacity="1" data-original="#b3b3b3" class=""></path><path d="M238.14 628.26c-6.24 0-11.5 5.26-11.5 11.5v427.14c0 6.22 5.26 11.48 11.5 11.48h107.94V628.26z" fill="#000000" opacity="1" data-original="#000000" class=""></path><path fill="#484848" d="M206.64 1060.81h-64.95c-45.76 0-82.97-37.23-82.97-82.99V728.83c0-45.76 37.22-82.99 82.97-82.99 41.39 0 84.95-8.35 84.95 20 0 10.73-6.24 16.2-16.24 18.86v336.41c22.49 3.62 21.24 39.7-3.76 39.7z" opacity="1" data-original="#484848" class=""></path><g fill="#505050"><path d="M366.08 1118.39H238.14c-28.39 0-51.5-23.11-51.5-51.49V639.77c0-28.39 23.11-51.5 51.5-51.5h127.94c11.04 0 20 8.96 20 20v490.11c0 11.04-8.96 20.01-20 20.01zM1468.54 1118.39H1340.6c-11.04 0-20-8.97-20-20V608.26c0-11.04 8.97-20 20-20h127.94c28.39 0 51.5 23.09 51.5 51.5v427.14c0 28.38-23.11 51.49-51.5 51.49z" fill="#505050" opacity="1" data-original="#505050" class=""></path></g></g></svg>