<svg id="SvgjsSvg1036" width="288" height="288" xmlns="http://www.w3.org/2000/svg" version="1.1" xmlns:xlink="http://www.w3.org/1999/xlink" xmlns:svgjs="http://svgjs.com/svgjs"><defs id="SvgjsDefs1037"></defs><g id="SvgjsG1038"><svg xmlns="http://www.w3.org/2000/svg" enable-background="new 0 0 512 512" viewBox="0 0 512 512" width="288" height="288"><path fill="#ffead3" d="m411 507-45-29.5S326.2 507 221 507 67.4 463.6 67.4 463.6C35.6 464.5 6 434.9 6 434.9 6 263.3 106.1 68.3 173 5h124.1l37.4 33-20.7 47-76.1 12.5-13.8-22.1-30.7-5c-43.6 72.2 5 179.8-40.2 282.6 0 0 65.6-87 133.9-46.6 25 14.8 39.5 33.2 39.5 33.2C378.5 225.3 508 282.5 508 282.5V507z" class="svgShape colorffead3-0 selectable"></path><path fill="#f8bf8d" d="M479 507h-68l-45-29.5S326.2 507 221 507 67.4 463.6 67.4 463.6s44.9 19.1 147.7 19.1 190.5-75.6 190.5-75.6c24.4 21.5 54.7 54.8 73.4 99.9z" class="svgShape colorf8bf8d-1 selectable"></path><path fill="#ff1313" d="M246.6 440c-104.5 0-129.6-40.6-93.7-87.1.8-1.1 66.1-86.8 133.9-46.6 25 14.8 39.5 33.2 39.5 33.2 22.5 25.8 24.9 100.5-79.7 100.5z" class="svgShape colorb5e1e8-2 selectable"></path><path fill="#f8bf8d" d="m210.594 43.575 17.528 29.258-8.58 5.14-17.528-29.258zM242.868 30.698l18.915 62.205-9.57 2.91-18.915-62.205zM273.348 26.156l16.358 62.275-9.67 2.54-16.358-62.275zM298.758 22.166l19.801 61.404-9.52 3.07-19.801-61.404zM110 390v-10s22-.7 38.9-29.6l8.8 5C137.7 389.6 111 390 110 390zM474.4 508.9c-34.4-83.1-110-126.1-110.8-126.5l4.9-8.7c.8.5 20.1 11.4 44.1 33 22.1 20 52.4 53.3 71.1 98.4zM246.6 445c-36.9 0-65.6-5-85.2-14.7l4.5-8.9c18.2 9.1 45.3 13.7 80.7 13.7 35.8 0 62.2-9.2 76.2-26.5l7.8 6.3c-11.2 13.7-34.8 30.1-84 30.1zM173.1 166.5c.1-35.5 3.3-68.2 19.7-95.7l.2-.8h-29c-7.2 41.4 9.1 96.5 9.1 96.5z" class="svgShape colorf8bf8d-3 selectable"></path></svg></g></svg>