<svg xmlns="http://www.w3.org/2000/svg" version="1.1" xmlns:xlink="http://www.w3.org/1999/xlink" width="512" height="512" x="0" y="0" viewBox="0 0 512 512" style="enable-background:new 0 0 512 512" xml:space="preserve" class=""><g><path fill="#f3d6c8" d="M352.173 231.439v77.297c0 2.43.399 4.827 1.188 7.127a490.198 490.198 0 0 1 2.677 8.073c-2.327 40.459 2.934 77.962 16.076 139.436-1.044 13.711-2.847 28.216-5.592 43.515a6.197 6.197 0 0 1-6.091 5.113h-63.343a6.18 6.18 0 0 1-5.22-2.872l-7.175-11.318a72.572 72.572 0 0 1-11.135-34.439c-.02-.323 3.635-3.32 3.62-3.643l6.157-53.083c-10.377 4.017-38.547 7.567-48.925 3.55l.95 50.199c-.015.323 3.104 2.655 3.084 2.978a72.568 72.568 0 0 1-11.135 34.439l-7.175 11.318a6.182 6.182 0 0 1-5.22 2.872h-63.343a6.197 6.197 0 0 1-6.091-5.113c-2.745-15.299-4.548-29.803-5.592-43.515 17.152-59.315 21.009-106.597 16.077-139.436a487.035 487.035 0 0 1 2.677-8.073 21.943 21.943 0 0 0 1.188-7.127V231.44a18.722 18.722 0 0 0-6.382-14.092c-21.824-19.146-35.431-50.527-36.716-79.781v-34.189H395.27v34.189c-1.285 29.253-14.891 60.635-36.716 79.781a18.721 18.721 0 0 0-6.381 14.091z" opacity="1" data-original="#ffdfcf" class=""></path><path fill="#e6b7a9" d="M358.555 217.347c21.824-19.146 35.431-50.527 36.716-79.781v-34.189h-23.694v34.189c-1.285 29.253-14.891 60.635-36.716 79.781a18.722 18.722 0 0 0-6.382 14.092v77.297c0 2.43.399 4.827 1.188 7.127C341.632 350.97 360.162 416.302 341.88 512h18.551a6.197 6.197 0 0 0 6.091-5.113c2.745-15.299 4.548-29.803 5.592-43.515-13.143-67.147-18.404-114.42-16.076-139.436a487.035 487.035 0 0 0-2.677-8.073 21.943 21.943 0 0 1-1.188-7.127v-77.297a18.722 18.722 0 0 1 6.382-14.092z" opacity="1" data-original="#ffcebf" class=""></path><path fill="#f3d6c8" d="M469.955 446.66c-1.096-10.267-3.987-29.534-7.201-60.413-3.618-34.756 12.587-115.371-7.569-143.833-1.673-2.363-2.411-5.27-2.237-8.161 2.987-49.729.509-79.758-16.613-99.654-2.955-3.434-4.388-7.941-3.752-12.427 3.98-28.079-1.786-41.953-17.186-55.642-22.576-20.068-67.556-18.075-99.796-30.282a14.808 14.808 0 0 1-9.557-13.852V5.151A5.15 5.15 0 0 0 300.893 0h-89.786a5.15 5.15 0 0 0-5.151 5.151v17.245a14.809 14.809 0 0 1-9.557 13.852c-32.24 12.207-77.22 10.215-99.796 30.283-15.4 13.689-21.165 27.563-17.185 55.642.636 4.484-.797 8.989-3.751 12.422-17.123 19.896-19.602 49.928-16.615 99.657.174 2.89-.564 5.798-2.237 8.161-20.155 28.462-3.95 109.078-7.568 143.834-3.214 30.879-6.106 50.145-7.202 60.412a13.826 13.826 0 0 0 7.106 13.594l14.037 7.69a13.828 13.828 0 0 0 17.225-3.219l13.328-15.831a14.96 14.96 0 0 0 2.929-13.784l-10.178-35.256a25.693 25.693 0 0 1 1.181-17.526c9.421-21.284 32.726-77.84 28.786-108.312-.419-3.242.444-6.506 2.27-9.218 21.079-31.3 32.651-90.925 28.569-131.376h217.406c-4.082 40.452 7.49 100.076 28.569 131.376 1.826 2.711 2.689 5.976 2.27 9.218-3.94 30.472 19.365 87.028 28.786 108.312a25.698 25.698 0 0 1 1.181 17.526l-10.18 35.257a14.96 14.96 0 0 0 2.929 13.784l13.328 15.831a13.83 13.83 0 0 0 17.226 3.22l14.037-7.691a13.825 13.825 0 0 0 7.105-13.594z" opacity="1" data-original="#ffdfcf" class=""></path><g fill="#ffcebf"><path d="M469.955 446.66c-1.096-10.267-3.987-29.534-7.201-60.413-3.618-34.756 12.587-115.371-7.568-143.833-1.672-2.361-2.411-5.263-2.238-8.151 2.988-49.732.511-79.764-16.611-99.662-2.956-3.436-4.391-7.939-3.755-12.427 3.981-28.081-1.785-41.955-17.186-55.644-9.94-8.835-24.224-13.395-39.85-16.772 6.934 2.693 13.143 6.081 18.214 10.589 15.401 13.689 22.2 33.744 18.219 61.825-.636 4.487.797 8.995 3.753 12.431 17.121 19.898 19.6 49.924 16.612 99.656-.174 2.888.565 5.793 2.237 8.154 20.155 28.462 3.952 109.075 7.57 143.831 3.214 30.88 6.105 50.149 7.201 60.416a13.826 13.826 0 0 1-7.106 13.593l-9.82 5.382a13.832 13.832 0 0 0 16.387 2.309l14.037-7.691a13.822 13.822 0 0 0 7.105-13.593z" fill="#e6b7a9" opacity="1" data-original="#ffcebf" class=""></path><path d="M346.345 185.429h-53.898c-7.326 0-14.213-2.853-19.393-8.032l-7.79-7.79a7.729 7.729 0 0 1 0-10.928 7.73 7.73 0 0 1 10.928 0l7.79 7.79a11.891 11.891 0 0 0 8.466 3.507h53.898c7.259 0 13.401-8.682 16.417-13.857 5.209-8.94 8.23-19.262 8.834-25.069a7.718 7.718 0 0 1 8.484-6.886 7.727 7.727 0 0 1 6.886 8.484c-.795 7.649-4.459 20.279-10.852 31.252-8.209 14.084-18.502 21.529-29.77 21.529zM219.553 185.429h-53.898c-11.268 0-21.561-7.445-29.769-21.53-6.394-10.973-10.058-23.603-10.853-31.252a7.727 7.727 0 0 1 6.886-8.484c4.245-.45 8.043 2.642 8.484 6.886 1.421 13.673 12.79 38.927 25.251 38.927h53.898c3.198 0 6.205-1.245 8.466-3.507l7.79-7.79a7.727 7.727 0 1 1 10.927 10.928l-7.79 7.79c-5.179 5.178-12.066 8.032-19.392 8.032zM269.555 87.407a7.725 7.725 0 0 1-5.211-13.432l8.621-7.871a16.348 16.348 0 0 1 11.047-4.285h44.906a7.725 7.725 0 0 1 7.726 7.726 7.725 7.725 0 0 1-7.726 7.726h-44.906a.936.936 0 0 0-.629.244l-8.621 7.871a7.694 7.694 0 0 1-5.207 2.021zM242.445 87.407a7.704 7.704 0 0 1-5.208-2.02l-8.621-7.871a.926.926 0 0 0-.629-.244h-44.906a7.726 7.726 0 1 1 0-15.452h44.906a16.35 16.35 0 0 1 11.048 4.285l8.621 7.871a7.726 7.726 0 0 1-5.211 13.431z" fill="#e6b7a9" opacity="1" data-original="#ffcebf" class=""></path></g><path fill="#557882" d="M155.966 323.937c-9.493 29.529-20.895 75.986-16.066 139.434h98.533c.02-.323.046-.645.062-.969l1.944-41.532c10.377 4.017 20.744 4.017 31.122 0 0 0 1.986 42.178 2.005 42.501h98.533c4.829-63.448-6.573-109.905-16.066-139.434-66.689 20.1-133.378 20.1-200.067 0z" opacity="1" data-original="#678d98" class=""></path><path fill="#4e737c" d="M348.405 463.371h23.694c4.829-63.448-6.573-109.905-16.066-139.434a368.996 368.996 0 0 1-21.859 5.854c9.048 29.668 18.752 74.181 14.231 133.58z" opacity="1" data-original="#4e737c" class=""></path><g fill="#ffcebf"><path d="M284.995 233.769c-5.988 0-11.566-1.282-15.482-3.964a7.727 7.727 0 0 1 8.732-12.748c3.374 2.312 15.825 1.546 22.134-3.277a7.727 7.727 0 0 1 9.386 12.276c-6.569 5.022-16.098 7.713-24.77 7.713zM284.993 269.699c-5.987 0-11.564-1.282-15.479-3.962a7.726 7.726 0 1 1 8.73-12.75c3.376 2.313 15.828 1.545 22.135-3.277a7.727 7.727 0 0 1 9.386 12.276c-6.569 5.023-16.1 7.713-24.772 7.713zM283.469 305.654c-5.17 0-10.041-1.306-13.956-3.987a7.726 7.726 0 0 1 8.732-12.748c3.375 2.31 11.52 1.535 17.813-3.277a7.726 7.726 0 0 1 10.831 1.443 7.725 7.725 0 0 1-1.443 10.831c-6.658 5.092-14.619 7.738-21.977 7.738zM227.006 233.769c-8.673 0-18.201-2.689-24.772-7.713a7.726 7.726 0 1 1 9.386-12.276c6.308 4.824 18.76 5.589 22.135 3.277a7.726 7.726 0 1 1 8.731 12.748c-3.914 2.681-9.494 3.964-15.48 3.964zM227.007 269.699c-8.674 0-18.202-2.689-24.773-7.713a7.727 7.727 0 0 1 9.386-12.276c6.308 4.824 18.76 5.588 22.135 3.277a7.727 7.727 0 0 1 8.73 12.75c-3.913 2.681-9.493 3.962-15.478 3.962zM228.531 305.654c-7.359 0-15.318-2.646-21.977-7.738a7.727 7.727 0 0 1 9.387-12.274c6.292 4.811 14.438 5.586 17.814 3.277a7.726 7.726 0 1 1 8.731 12.748c-3.913 2.681-8.786 3.987-13.955 3.987z" fill="#e6b7a9" opacity="1" data-original="#ffcebf" class=""></path></g></g></svg>