<svg xmlns="http://www.w3.org/2000/svg" version="1.1" xmlns:xlink="http://www.w3.org/1999/xlink" width="512" height="512" x="0" y="0" viewBox="0 0 60 60" style="enable-background:new 0 0 512 512" xml:space="preserve" class=""><g><path fill="#172f44" d="M7.6 42A7.057 7.057 0 0 0 5 47.362C5 51.573 9.037 55 14 55s9-3.427 9-7.638A7.057 7.057 0 0 0 20.4 42l2.6-3a11.034 11.034 0 0 1 4 8.383C27 53.8 21.18 59 14 59S1 53.8 1 47.383A11.034 11.034 0 0 1 5 39z" opacity="1" data-original="#172f44" class=""></path><path fill="#e8bc43" d="M13 1h2a1 1 0 0 1 1 1v14h-4V2a1 1 0 0 1 1-1z" opacity="1" data-original="#e8bc43"></path><path fill="#172f44" d="M27 32.58V35a4 4 0 0 1-4 4h-1v-2h1v-2.64a2.394 2.394 0 0 0-1.42-2.19l-6.72-2.99a2.144 2.144 0 0 0-1.72 0l-6.72 2.99A2.394 2.394 0 0 0 5 34.36V37h1v2H5a3.995 3.995 0 0 1-4-4v-2.42a4.021 4.021 0 0 1 2.34-3.65l5.02-2.27A6.211 6.211 0 0 0 12 21v-1h4v1a6.211 6.211 0 0 0 3.64 5.66l5.02 2.27A4.021 4.021 0 0 1 27 32.58z" opacity="1" data-original="#172f44" class=""></path><rect width="6" height="6" x="11" y="15" fill="#f9d562" rx="1" opacity="1" data-original="#f9d562"></rect><rect width="18" height="6" x="5" y="36" fill="#22425e" rx="1" opacity="1" data-original="#22425e"></rect><path fill="#172f44" d="M39.6 42a7.057 7.057 0 0 0-2.6 5.362C37 51.573 41.037 55 46 55s9-3.427 9-7.638A7.057 7.057 0 0 0 52.4 42l2.6-3a11.034 11.034 0 0 1 4 8.383C59 53.8 53.18 59 46 59s-13-5.2-13-11.617A11.034 11.034 0 0 1 37 39z" opacity="1" data-original="#172f44" class=""></path><path fill="#e8bc43" d="M45 1h2a1 1 0 0 1 1 1v14h-4V2a1 1 0 0 1 1-1z" opacity="1" data-original="#e8bc43"></path><path fill="#172f44" d="M59 32.58V35a4 4 0 0 1-4 4h-1v-2h1v-2.64a2.394 2.394 0 0 0-1.42-2.19l-6.72-2.99a2.144 2.144 0 0 0-1.72 0l-6.72 2.99A2.394 2.394 0 0 0 37 34.36V37h1v2h-1a3.995 3.995 0 0 1-4-4v-2.42a4.021 4.021 0 0 1 2.34-3.65l5.02-2.27A6.211 6.211 0 0 0 44 21v-1h4v1a6.211 6.211 0 0 0 3.64 5.66l5.02 2.27A4.021 4.021 0 0 1 59 32.58z" opacity="1" data-original="#172f44" class=""></path><rect width="6" height="6" x="43" y="15" fill="#f9d562" rx="1" opacity="1" data-original="#f9d562"></rect><rect width="18" height="6" x="37" y="36" fill="#22425e" rx="1" opacity="1" data-original="#22425e"></rect></g></svg>