<svg id="SvgjsSvg1044" width="288" height="288" xmlns="http://www.w3.org/2000/svg" version="1.1" xmlns:xlink="http://www.w3.org/1999/xlink" xmlns:svgjs="http://svgjs.com/svgjs"><defs id="SvgjsDefs1045"></defs><g id="SvgjsG1046"><svg xmlns="http://www.w3.org/2000/svg" enable-background="new 0 0 512 512" viewBox="0 0 512 512" width="288" height="288"><path fill="#ffead3" d="M248.9 5c0 67-53.9 194-53.9 194v49.8s14 21.4 14 62.7-29.1 107.5-29.1 126.8c0 12.4 9.1 24.7 15.6 39.9 5.9 13.6-4.3 28.8-19.1 28.8H85v-19.1s57.2-22.1 57.2-46.9-22-89.6-22-123.1S136 249 136 249v-48.4S104.6 91 104.6 5z" class="svgShape colorffead3-0 selectable"></path><path fill="#f8bf8d" d="M138.6 483.3c-9-9.2-8.5-13.4-5.5-20.7 1.7-4.1 4.1-9.6 4.1-21.6h10c0 14-2.9 20.9-4.9 25.5-.8 2-1.3 3.1-1.2 3.8.2.8 1.1 2.5 4.6 6.1z" class="svgShape colorf8bf8d-1 selectable"></path><path fill="#ffead3" d="M263.1 5c0 67 53.9 194 53.9 194v49.8s-14 21.4-14 62.7 29.1 107.5 29.1 126.8c0 12.4-9.1 24.7-15.6 39.9-5.9 13.6 4.3 28.8 19.1 28.8H427v-19.1s-57.2-22.1-57.2-46.9 22-89.6 22-123.1S376 249 376 249v-48.4S407.4 91 407.4 5z" class="svgShape colorffead3-2 selectable"></path><path fill="#ff1313" d="M195 198.9s0 .1 0 0v49.9c-22.8 0-35.4-75.4-35.4-75.4 0 49.4-23.6 75.6-23.6 75.6v-48.5C135.4 196 110.3 5 166.9 5 195 5 186.6 59.7 195 70.9s16.3 86.3 0 128zM317 198.9s0 .1 0 0v49.9c22.8 0 35.4-75.4 35.4-75.4 0 49.4 23.6 75.6 23.6 75.6v-48.5C376.6 196 401.7 5 345.1 5 317 5 325.4 59.7 317 70.9s-16.3 86.3 0 128z" class="svgShape colorb5e1e8-3 selectable"></path><path fill="#f8bf8d" d="m373.4 483.3-7.2-7c3.5-3.6 4.5-5.3 4.6-6.1.1-.6-.3-1.8-1.2-3.8-1.9-4.6-4.9-11.5-4.9-25.5h10c0 12 2.4 17.6 4.1 21.6 3.1 7.4 3.6 11.6-5.4 20.8zM153.1 362c-15 0-37.9-20-37.9-44h10c0 19 18.6 34 27.9 34 7.4 0 15.4-12.4 17.6-16.8.9-1.8 2.7-2.8 4.7-2.7s3.8 1.3 4.5 3.2c1.8 4.5 6.1 11 9.1 11v10c-6 0-10.9-4.7-14-9.2-4.7 6.4-12.4 14.5-21.9 14.5zM358.9 362c-9.5 0-17.2-8-21.9-14.5-3.1 4.5-8 9.2-14 9.2v-10c3 0 7.3-6.4 9.1-11 .7-1.8 2.5-3.1 4.5-3.2s3.8 1 4.7 2.7c2.2 4.3 10.2 16.8 17.6 16.8 9.3 0 27.9-15 27.9-34h10c0 24-22.9 44-37.9 44z" class="svgShape colorf8bf8d-4 selectable"></path></svg></g></svg>