<svg id="SvgjsSvg1053" width="288" height="288" xmlns="http://www.w3.org/2000/svg" version="1.1" xmlns:xlink="http://www.w3.org/1999/xlink" xmlns:svgjs="http://svgjs.com/svgjs"><defs id="SvgjsDefs1054"></defs><g id="SvgjsG1055"><svg xmlns="http://www.w3.org/2000/svg" enable-background="new 0 0 512 512" viewBox="0 0 512 512" width="288" height="288"><path fill="#ffead3" d="M368.3 506c0-36.1-17.2-61-17.2-61l2.3-126.6s16.6-44.9 25.7-98.9l23.9 113s7.1 85 67.7 173.5H507s-10.2-84.2-17.1-127.4c-6.8-43.2-25.6-70.9-25.6-70.9l-21.1-131.3s4.6-50.4-18.3-74.4-57.2-19.5-57.2-19.5L300 39V4h-88v35l-67.7 43.6S110 78 87.1 102.1s-18.3 74.4-18.3 74.4L47.6 307.7S28.9 335.4 22 378.6 5 506 5 506h36.3c60.6-88.5 67.7-173.5 67.7-173.5l23.9-113.1c9.2 54 25.7 98.9 25.7 98.9l2.3 126.6s-17.2 24.9-17.2 61h224.6z" class="svgShape colorffead3-0 selectable"></path><path fill="#f8bf8d" d="M379.1 219.5c-1.1 6.5-2.3 12.8-3.6 18.9l-3.4 3.3c-9.2 8.5-21.3 13.3-33.8 13.3h-44c-10 0-19.8-3.2-28.1-8.8l-10.3-7.1-10.3 7.1c-8.3 5.7-18.1 8.8-28.1 8.8h-44c-12.5 0-24.6-4.9-33.8-13.3l-3.4-3.2c-1.3-6.1-2.5-12.5-3.6-19l6.9 6.3c9.2 8.5 21.3 13.1 33.8 13.1h44c10 0 19.8-3 28.1-8.7l10.3-7 10.3 7c8.3 5.7 18.1 8.7 28.1 8.7h44c12.5 0 24.6-4.7 33.8-13.2z" class="svgShape colorf8bf8d-1 selectable"></path><path fill="#f8bf8d" d="m116.9 295 16-75.5-12.9-11.8zM395.1 295l-16-75.5 12.9-11.8z" class="svgShape colorf8bf8d-2 selectable"></path><path fill="#f8bf8d" d="M217.6 244h-44c-13.8 0-27-5.1-37.2-14.5l-19.8-18.2 6.8-7.4 19.8 18.2c8.3 7.6 19.1 11.8 30.4 11.8h44c9.1 0 17.8-2.7 25.3-7.8l10.3-7 5.6 8.3-10.3 7c-9.1 6.3-19.8 9.6-30.9 9.6zM207.7 406.3c-11.4-19.8-3.5-48-1-55.7-10.8-25.4-3-48.9-.1-56.1L190 257.3l9.1-4.1 17.5 39.3c.6 1.4.6 2.9-.1 4.2-.1.2-12 25.4.1 51.6.6 1.2.6 2.6.1 3.8-.1.3-11 30.6-.4 49.2zM234.2 103.1c-6.8-9.5-17.8-15.1-29.4-15.1H144V78h60.9c14.8 0 28.9 7.2 37.5 19.3zM163.115 440.904l49.36 28.172-4.96 8.69-49.36-28.173zM78.7 214.6c-.6-.7-15-16.6-15-38.6h10c0 18 12.3 31.6 12.4 31.8zM225 290h61v10h-61zM225 345h61v10h-61z" class="svgShape colorf8bf8d-3 selectable"></path><path fill="#f8bf8d" d="M251 255h10v149h-10zM338.4 244h-44c-11.1 0-21.8-3.3-31-9.5l-10.3-7 5.6-8.3 10.3 7c7.5 5.1 16.3 7.8 25.3 7.8h44c11.3 0 22.1-4.2 30.4-11.8l19.8-18.2 6.8 7.4-19.8 18.2c-10.1 9.3-23.3 14.4-37.1 14.4zM304.3 406.3l-8.7-5c10.7-18.6-.2-48.9-.4-49.2-.5-1.2-.4-2.6.1-3.8 12.1-26.4.2-51.4.1-51.6-.7-1.3-.7-2.9-.1-4.2l17.5-39.3 9.1 4.1-16.6 37.2c2.9 7.2 10.7 30.7-.1 56.1 2.7 7.8 10.5 35.9-.9 55.7zM277.8 103.1l-8.1-5.8c8.6-12.1 22.7-19.3 37.5-19.3H368v10h-60.9c-11.6 0-22.6 5.6-29.3 15.1zM348.567 440.977l4.96 8.69-49.36 28.173-4.96-8.69zM433.3 214.6l-7.4-6.8c.1-.1 12.4-13.8 12.4-31.8h10c0 22-14.4 37.9-15 38.6z" class="svgShape colorf8bf8d-4 selectable"></path><path fill="#ff1313" d="m256 223.3-10.3 7c-8.3 5.7-18.1 8.7-28.1 8.7h-44c-12.5 0-24.6-4.7-33.8-13.2L120 207.7V154s63.6-53.8 118.3-53.8l17.7 30.1zM256 223.3l10.3 7c8.3 5.7 18.1 8.7 28.1 8.7h44c12.5 0 24.6-4.7 33.8-13.2l19.8-18.2V154s-63.6-53.8-118.3-53.8L256 130.3z" class="svgShape colorb5e1e8-5 selectable"></path></svg></g></svg>