<?xml version="1.0" encoding="UTF-8"?>
<svg version="1.1" xmlns="http://www.w3.org/2000/svg" width="852" height="748">
<path d="M0 0 C3.75618116 0.00020624 7.51235492 -0.00533586 11.26853251 -0.01005757 C18.60840464 -0.01831707 25.94826873 -0.02111028 33.28814512 -0.02166995 C39.26343552 -0.0221474 45.2387233 -0.0242135 51.21401286 -0.02737057 C68.20787924 -0.0361647 85.20173935 -0.04079195 102.19560802 -0.0400401 C103.56601373 -0.03998016 103.56601373 -0.03998016 104.96410441 -0.03991902 C106.33621099 -0.0398577 106.33621099 -0.0398577 107.7360369 -0.03979514 C122.54332898 -0.03938913 137.35059558 -0.04895049 152.15788031 -0.06305739 C167.41367195 -0.07747522 182.6694512 -0.08432459 197.92524981 -0.08346361 C206.46934025 -0.08313348 215.01340397 -0.08579917 223.5574882 -0.09664166 C230.83463082 -0.10581824 238.11173461 -0.10786398 245.38888055 -0.10113224 C249.09012918 -0.09790255 252.79130366 -0.09767881 256.49254489 -0.10648549 C304.03139067 -0.21240383 342.12612933 6.63672015 379.20189738 38.14538372 C380.26537395 39.00583293 380.26537395 39.00583293 381.35033488 39.88366497 C387.11017141 44.65317387 391.64435823 50.23984003 396.20189738 56.14538372 C396.87220988 57.01163372 397.54252238 57.87788372 398.23314738 58.77038372 C416.44527176 83.05321622 427.61136226 111.22903037 428.76439738 141.64538372 C428.80540568 142.72384563 428.84641398 143.80230754 428.88866496 144.91345012 C429.16440669 152.78150924 429.33589474 160.64768073 429.38939738 168.52038372 C429.40885417 170.05275676 429.40885417 170.05275676 429.42870402 171.61608684 C429.42991252 172.56161418 429.43112102 173.50714153 429.43236613 174.48132122 C429.43647502 175.31196086 429.44058391 176.14260051 429.4448173 176.99841106 C429.20189738 179.14538372 429.20189738 179.14538372 427.20189738 182.14538372 C422.43675129 183.16617674 417.75549487 183.27425357 412.89521098 183.28582561 C412.19376482 183.28879673 411.49231865 183.29176785 410.76961654 183.29482901 C408.43754218 183.30344674 406.10551956 183.30501828 403.77343059 183.30651653 C402.09417941 183.31114928 400.41492927 183.31617456 398.73568034 183.32156169 C394.18845103 183.33463577 389.64123644 183.3411198 385.09399128 183.34557235 C382.25278805 183.3485086 379.41158881 183.35261425 376.5703876 183.35707653 C367.67930164 183.37073264 358.78822484 183.3804109 349.89712912 183.38427842 C339.63471947 183.38876741 329.37244246 183.4063621 319.11007315 183.43527901 C311.17277743 183.45686906 303.23551913 183.46698111 295.29819435 183.46831954 C290.55853212 183.46936864 285.8189949 183.47530005 281.07936358 183.49313915 C276.62648275 183.50957558 272.17382157 183.51179703 267.72092128 183.50300014 C266.08584387 183.50222763 264.45075484 183.50660058 262.81570697 183.51645839 C260.58608499 183.52911468 258.35724874 183.52333651 256.12763286 183.51287639 C254.87939896 183.51434295 253.63116506 183.51580951 252.34510589 183.51732051 C249.20189738 183.14538372 249.20189738 183.14538372 245.20189738 180.14538372 C245.20189738 141.53538372 245.20189738 102.92538372 245.20189738 63.14538372 C167.65189738 63.14538372 90.10189738 63.14538372 10.20189738 63.14538372 C10.20189738 101.75538372 10.20189738 140.36538372 10.20189738 180.14538372 C7.70520324 182.64207786 6.92938671 182.40189652 3.48165202 182.42385662 C2.48603251 182.4350201 1.49041301 182.44618358 0.46462321 182.45768535 C-0.63157338 182.45984554 -1.72776998 182.46200572 -2.85718465 182.46423137 C-4.00839803 182.474277 -5.15961141 182.48432262 -6.34571004 182.49467266 C-10.16577313 182.52566022 -13.98576566 182.54258308 -17.80591512 182.55944622 C-20.44865207 182.57814533 -23.09138299 182.59771777 -25.73410726 182.61813152 C-31.98846608 182.66496524 -38.24284206 182.70168702 -44.49728692 182.73480439 C-52.31506976 182.77673798 -60.13274973 182.83211824 -67.95044637 182.88757122 C-81.89960881 182.98645671 -95.84879448 183.06494764 -109.79810262 183.14538372 C-109.46810262 211.52538372 -109.13810262 239.90538372 -108.79810262 269.14538372 C-102.58576802 269.15124996 -96.37343343 269.1571162 -89.97284627 269.1631602 C-48.93951116 269.20290267 -7.90618368 269.2459771 33.12712932 269.30436504 C33.82752193 269.30536061 34.52791454 269.30635617 35.24953117 269.30738191 C50.4716498 269.32904141 65.69376738 269.35136417 80.91588403 269.37437 C88.3810133 269.38564833 95.84614278 269.39678012 103.31127238 269.40783489 C104.05413494 269.40893745 104.79699749 269.41004002 105.56237103 269.411176 C129.63238959 269.44683234 153.70240676 269.47281601 177.77244224 269.4937734 C202.51147991 269.51536444 227.25048643 269.54673431 251.9894955 269.59037485 C255.48524052 269.59653692 258.98098573 269.60258742 262.47673106 269.60856998 C263.16473093 269.60975086 263.85273079 269.61093174 264.56157913 269.61214841 C275.62794318 269.63085597 286.69429222 269.6392822 297.76067014 269.64384496 C308.89128488 269.64865429 320.02185025 269.66458029 331.15243688 269.69104937 C337.18114258 269.705062 343.20975352 269.714236 349.23847651 269.71039188 C354.76084764 269.70697741 360.28301651 269.71737123 365.80534622 269.73861923 C367.800156 269.74388009 369.79498684 269.74412944 371.78979638 269.73877934 C387.17865449 269.70171947 402.77408893 270.19382827 414.63451457 281.51257122 C422.89124213 290.20023446 428.15914758 298.78452687 428.51171184 310.87658489 C428.53203408 311.56525709 428.55235633 312.25392929 428.5732944 312.96347034 C428.63935615 315.30914344 428.69683273 317.6549147 428.75267863 320.00085247 C428.77349309 320.83367433 428.79430755 321.6664962 428.81575274 322.52455509 C429.4384557 348.10239178 429.38939871 373.68949038 429.38700855 399.27329135 C429.3873603 404.8119813 429.39902502 410.35060845 429.41294378 415.88927859 C429.42770617 421.98952387 429.43118577 428.0897287 429.43059039 434.18999088 C429.43175715 436.74012596 429.43610395 439.29026195 429.44392276 441.84038532 C429.54248456 477.19551912 429.54248456 477.19551912 425.13939738 492.02038372 C424.93169719 492.74177532 424.72399699 493.46316692 424.51000285 494.20641887 C419.27173327 511.41577255 410.63637145 527.50515417 399.90111613 541.86803997 C398.61642635 543.5898196 397.39352884 545.35793654 396.20189738 547.14538372 C395.54189738 547.14538372 394.88189738 547.14538372 394.20189738 547.14538372 C393.92152629 548.15665325 393.92152629 548.15665325 393.63549113 549.18835247 C391.59831538 553.39037438 388.57836121 556.21433449 385.26439738 559.45788372 C384.5878007 560.12505413 383.91120402 560.79222454 383.21410441 561.47961223 C377.90761743 566.62847458 372.42922993 571.13954945 366.20189738 575.14538372 C365.19900676 575.79636028 364.19611613 576.44733684 363.16283488 577.11803997 C359.87734588 579.19245455 356.55506327 581.1823686 353.20189738 583.14538372 C352.6298759 583.48601848 352.05785441 583.82665325 351.46849895 584.17761028 C327.67477702 598.22132289 299.95324974 602.31421231 272.68683696 602.27909648 C271.37775817 602.28136204 270.06867938 602.2836276 268.71993154 602.28596181 C265.11995255 602.29202716 261.51999695 602.29195249 257.92001402 602.29076743 C254.02415428 602.29056208 250.12830178 602.29609491 246.23244548 602.300825 C238.6122968 602.3091031 230.99215586 602.31187855 223.37200306 602.31243738 C217.17296798 602.31291388 210.97393543 602.3149753 204.77490115 602.318138 C187.1685673 602.32693674 169.56223952 602.33155859 151.95590345 602.33080753 C151.00832901 602.33076757 150.06075456 602.33072762 149.08446574 602.33068645 C148.1357237 602.33064557 147.18698165 602.33060469 146.20948984 602.33056257 C130.84109364 602.3301563 115.47272196 602.33972315 100.10433284 602.35382482 C84.29386561 602.36821673 68.48341032 602.37509346 52.67293638 602.37423104 C43.80875252 602.37390005 34.94459437 602.37660413 26.08041644 602.38740909 C18.53251937 602.39655122 10.98465968 602.39865903 3.43675945 602.39189967 C-0.40738698 602.38865313 -4.25146187 602.38850952 -8.09560132 602.39725292 C-45.27671446 602.47650959 -45.27671446 602.47650959 -61.61060262 597.77038372 C-62.41062703 597.5468925 -63.21065145 597.32340129 -64.03491902 597.09313762 C-65.60227637 596.6505263 -67.16784652 596.20151743 -68.73120809 595.74499309 C-70.45621752 595.24456512 -72.19066411 594.77681563 -73.92700887 594.31725872 C-89.05159597 589.92833159 -103.79090173 581.22344983 -115.79810262 571.14538372 C-116.94637042 570.21027946 -118.09481745 569.27539526 -119.24341512 568.34069622 C-137.65390817 553.16164644 -151.93600745 534.88124519 -161.79810262 513.14538372 C-162.19255574 512.35389934 -162.58700887 511.56241497 -162.99341512 510.74694622 C-168.47457799 499.48250913 -171.4954754 486.53450123 -172.79810262 474.14538372 C-172.88422811 473.38193645 -172.97035359 472.61848918 -173.05908895 471.83190715 C-173.98739601 462.51081142 -173.98422677 453.19047397 -173.98340535 443.83288372 C-173.98562511 440.99159263 -174.00393631 438.1506706 -174.02271199 435.30944622 C-174.02564062 433.50215587 -174.02762896 431.69486369 -174.02857137 429.88757122 C-174.03575688 429.03871349 -174.0429424 428.18985576 -174.05034566 427.31527507 C-174.02697087 421.37425196 -174.02697087 421.37425196 -171.79810262 419.14538372 C-168.78049493 418.89090812 -168.78049493 418.89090812 -164.8202126 418.8846873 C-164.09374813 418.88086176 -163.36728366 418.87703621 -162.61880511 418.87309474 C-160.17206938 418.86273372 -157.72556697 418.86676269 -155.27881551 418.87072551 C-153.52971355 418.86638074 -151.78061351 418.86119838 -150.03151631 418.85523784 C-145.27123322 418.84181117 -140.51102934 418.84127324 -135.75073099 418.84380114 C-131.78183765 418.84486839 -127.8129605 418.83999381 -123.84407061 418.83519572 C-114.48343949 418.82408781 -105.12284848 418.82367031 -95.76221395 418.82970989 C-86.09418146 418.83575173 -76.42629443 418.82343624 -66.75828677 418.80213982 C-58.46781287 418.7845469 -50.17738535 418.77851881 -41.88689345 418.78177756 C-36.93090095 418.78359428 -31.9750122 418.78091567 -27.01903653 418.76706302 C-22.35937929 418.75452681 -17.69994942 418.75638869 -13.04029584 418.76947391 C-11.32740508 418.77184847 -9.61449853 418.76907373 -7.90162587 418.76085079 C-5.56847542 418.75045542 -3.23609817 418.75842502 -0.90297627 418.77116191 C0.40429392 418.77099417 1.71156411 418.77082643 3.05844855 418.77065361 C6.20189738 419.14538372 6.20189738 419.14538372 8.08345199 420.48127258 C10.15799725 423.56794439 10.32607921 426.27064586 10.3221519 429.87199199 C10.3242139 431.32961956 10.3242139 431.32961956 10.32631755 432.81669414 C10.32272227 433.88124324 10.319127 434.94579235 10.31542277 436.04260051 C10.3155688 437.16469921 10.31571483 438.2867979 10.31586528 439.44289958 C10.31516736 443.16015339 10.30738056 446.87735739 10.29955363 450.59460247 C10.29768902 453.16864292 10.29626532 455.74268372 10.29526591 458.31672466 C10.29183496 464.404639 10.28394957 470.49253271 10.27391642 476.58043927 C10.26274159 483.51145065 10.25724138 490.44246289 10.25222099 497.37348104 C10.2417666 511.63079157 10.22417568 525.888087 10.20189738 540.14538372 C11.54433922 540.03935423 11.54433922 540.03935423 12.91390109 539.93118274 C22.41496118 539.23241284 31.86780569 539.00180397 41.39379191 539.01598918 C42.95531068 539.0146294 44.51682912 539.01284626 46.07834697 539.01067913 C50.28543675 539.006159 54.49250171 539.00787571 58.69959188 539.01105821 C63.17373945 539.01362713 67.6478852 539.01123031 72.12203288 539.00967205 C79.67209564 539.00785625 87.22214861 539.01023369 94.77220988 539.01501262 C102.40730757 539.01979142 110.04238569 539.01988699 117.67748332 539.01501262 C160.19682142 538.98848392 202.69368625 539.05535361 245.20189738 540.14538372 C245.20612932 539.53301136 245.21036126 538.92063901 245.21472144 538.28970993 C245.31789215 523.40982115 245.42650926 508.52997968 245.54123664 493.65017593 C245.59658502 486.45450347 245.65006961 479.25882606 245.69921184 472.06310833 C245.74203396 465.79350569 245.78830687 459.5239398 245.83877593 453.25439388 C245.86539285 449.93274914 245.88973167 446.61111271 245.9109714 443.28942859 C245.93493728 439.58714608 245.96500218 435.88496154 245.99657512 432.18273723 C246.00233058 431.07359462 246.00808604 429.96445201 246.01401591 428.82169902 C246.02380473 427.81904003 246.03359355 426.81638103 246.043679 425.78333843 C246.05335783 424.46840074 246.05335783 424.46840074 246.06323218 423.12689865 C246.20189738 421.14538372 246.20189738 421.14538372 247.20189738 420.14538372 C248.73233198 420.03743403 250.26769349 419.99855384 251.80188823 419.98716533 C252.79613307 419.97737651 253.79037791 419.9675877 254.81475139 419.95750225 C255.91454326 419.95174678 257.01433513 419.94599132 258.14745402 419.94006145 C259.29852138 419.93016185 260.44958873 419.92026226 261.63553691 419.91006267 C265.46102117 419.87833709 269.28651788 419.85364669 273.11205363 419.82897747 C275.75621697 419.80841748 278.40037695 419.78742127 281.04453349 419.76600444 C287.30601778 419.71602766 293.56752783 419.6711074 299.82906264 419.62798208 C307.65454752 419.57381673 315.47997827 419.51294066 323.30541301 419.45202434 C337.2708663 419.34334145 351.23636866 419.24485028 365.20189738 419.14538372 C365.20189738 391.09538372 365.20189738 363.04538372 365.20189738 334.14538372 C340.28765663 333.28353786 340.28765663 333.28353786 315.38330913 333.03185833 C313.47497487 333.03213977 311.5666405 333.03197257 309.6583063 333.03140724 C304.51752391 333.03111723 299.37676564 333.03696459 294.23598874 333.04397714 C288.65267612 333.05044201 283.06936233 333.05092725 277.48604655 333.05215251 C267.84359748 333.05501868 258.20115622 333.06142334 248.55871081 333.07021892 C234.60266154 333.08285511 220.6466151 333.08886829 206.69056105 333.09315228 C184.01945126 333.10019477 161.34834559 333.11096603 138.67723918 333.1248759 C137.66309148 333.12549637 137.66309148 333.12549637 136.62845595 333.12612937 C126.34043635 333.1324277 116.05241686 333.1388918 105.76439738 333.14538372 C94.76659471 333.15232053 83.768792 333.15918557 72.77098918 333.16589153 C72.09299466 333.16630612 71.41500014 333.16672071 70.71646034 333.16714786 C47.41958225 333.18136793 24.12270449 333.19163686 0.82582301 333.19880188 C-13.09590011 333.2032747 -27.01761256 333.21129731 -40.9393307 333.22394669 C-50.4685202 333.23238133 -59.99770724 333.23726523 -69.52690022 333.2393719 C-75.01934 333.24071435 -80.51176597 333.24370655 -86.00420117 333.25113094 C-91.03754903 333.25790912 -96.07087699 333.26000997 -101.10422898 333.25849533 C-102.91853979 333.25876537 -104.73285135 333.26071884 -106.54715806 333.26458812 C-127.35599866 333.30688481 -145.73555101 333.32666892 -161.98560262 318.52038372 C-172.25134986 307.82433569 -174.07029103 294.71751646 -174.41529012 280.57507122 C-174.45282399 279.25763927 -174.49035787 277.94020732 -174.52902913 276.5828532 C-174.92066586 262.14741796 -174.95142874 247.71031585 -174.92310262 233.27038372 C-174.92171763 231.88687963 -174.92048878 230.50337538 -174.91940999 229.11987102 C-174.90237429 210.54211411 -174.7503968 191.96954737 -174.36060262 173.39538372 C-174.33126637 171.96745494 -174.33126637 171.96745494 -174.30133748 170.51067913 C-174.09463744 160.7979017 -173.79244103 151.09204428 -173.33716512 141.38757122 C-173.28387799 140.19384899 -173.28387799 140.19384899 -173.22951436 138.97601116 C-172.06033709 115.77137302 -164.67254397 94.06380147 -152.79810262 74.14538372 C-152.2863448 73.28428997 -151.77458699 72.42319622 -151.24732137 71.53600872 C-146.9733801 64.57980086 -142.13709135 58.3143114 -136.79810262 52.14538372 C-135.95247762 51.16440715 -135.10685262 50.18343059 -134.23560262 49.17272747 C-108.82164457 20.263065 -73.61555329 2.97334283 -35.30620122 0.48670155 C-23.55348016 -0.17496696 -11.7672594 -0.00404051 0 0 Z " fill="#FCFCFC" transform="translate(309.7981026172638,65.85461628437042)"/>
<path d="M0 0 C4.65125052 3.65455398 6.47039212 8.44208981 8 14 C8.64248872 19.40654664 8.69334894 24.79412113 8.73828125 30.23046875 C8.76574837 31.91670059 8.79438269 33.60291373 8.8240509 35.28910828 C8.91744878 41.19254472 8.96059173 47.09599201 9 53 C9.00835625 54.12700569 9.01671249 55.25401138 9.02532196 56.41516876 C9.15374096 73.98608949 9.1867311 91.55662684 9.18511403 109.12791336 C9.18545807 114.6666014 9.19712765 120.20522665 9.2110464 125.74389488 C9.22580878 131.84414016 9.22928839 137.94434499 9.22869301 144.04460716 C9.22985976 146.59474225 9.23420656 149.14487824 9.24202538 151.6950016 C9.34058718 187.05013541 9.34058718 187.05013541 4.9375 201.875 C4.7297998 202.5963916 4.52209961 203.3177832 4.30810547 204.06103516 C-0.93016411 221.27038883 -9.56552593 237.35977045 -20.30078125 251.72265625 C-21.58547103 253.44443588 -22.80836855 255.21255282 -24 257 C-24.66 257 -25.32 257 -26 257 C-26.28037109 258.01126953 -26.28037109 258.01126953 -26.56640625 259.04296875 C-28.603582 263.24499067 -31.62353617 266.06895078 -34.9375 269.3125 C-35.61409668 269.97967041 -36.29069336 270.64684082 -36.98779297 271.33422852 C-42.29427996 276.48309086 -47.77266745 280.99416574 -54 285 C-55.00289062 285.65097656 -56.00578125 286.30195312 -57.0390625 286.97265625 C-60.3245515 289.04707084 -63.64683411 291.03698489 -67 293 C-67.85803223 293.51095215 -67.85803223 293.51095215 -68.73339844 294.03222656 C-92.52712036 308.07593917 -120.24864764 312.16882859 -147.51506042 312.13371277 C-148.82413921 312.13597833 -150.133218 312.13824388 -151.48196584 312.14057809 C-155.08194484 312.14664345 -158.68190043 312.14656878 -162.28188336 312.14538372 C-166.17774311 312.14517837 -170.0735956 312.15071119 -173.9694519 312.15544128 C-181.58960058 312.16371939 -189.20974152 312.16649483 -196.82989433 312.16705366 C-203.02892941 312.16753016 -209.22796195 312.16959159 -215.42699623 312.17275429 C-233.03333009 312.18155303 -250.63965787 312.18617487 -268.24599393 312.18542381 C-269.19356838 312.18538386 -270.14114282 312.1853439 -271.11743164 312.18530273 C-272.06617369 312.18526185 -273.01491573 312.18522097 -273.99240754 312.18517885 C-289.36080374 312.18477258 -304.72917543 312.19433944 -320.09756454 312.2084411 C-335.90803177 312.22283302 -351.71848706 312.22970974 -367.528961 312.22884732 C-376.39314486 312.22851633 -385.25730301 312.23122041 -394.12148094 312.24202538 C-401.66937801 312.2511675 -409.2172377 312.25327531 -416.76513793 312.24651595 C-420.60928436 312.24326942 -424.45335925 312.24312581 -428.2974987 312.2518692 C-465.47861184 312.33112587 -465.47861184 312.33112587 -481.8125 307.625 C-482.61252441 307.40150879 -483.41254883 307.17801758 -484.23681641 306.94775391 C-485.80417376 306.50514258 -487.3697439 306.05613371 -488.93310547 305.59960938 C-490.6581149 305.09918141 -492.39256149 304.63143192 -494.12890625 304.171875 C-509.25349336 299.78294787 -523.99279911 291.07806612 -536 281 C-537.1482678 280.06489575 -538.29671483 279.13001154 -539.4453125 278.1953125 C-557.85580555 263.01626273 -572.13790484 244.73586148 -582 223 C-582.39445313 222.20851563 -582.78890625 221.41703125 -583.1953125 220.6015625 C-588.67647537 209.33712541 -591.69737279 196.38911751 -593 184 C-593.08612549 183.23655273 -593.17225098 182.47310547 -593.26098633 181.68652344 C-594.1892934 172.36542771 -594.18612415 163.04509025 -594.18530273 153.6875 C-594.18752249 150.84620891 -594.20583369 148.00528688 -594.22460938 145.1640625 C-594.227538 143.35677215 -594.22952634 141.54947998 -594.23046875 139.7421875 C-594.23765427 138.89332977 -594.24483978 138.04447205 -594.25224304 137.16989136 C-594.22886825 131.22886825 -594.22886825 131.22886825 -592 129 C-588.98239231 128.74552441 -588.98239231 128.74552441 -585.02210999 128.73930359 C-584.29564551 128.73547804 -583.56918104 128.73165249 -582.82070249 128.72771102 C-580.37396677 128.71735001 -577.92746436 128.72137897 -575.48071289 128.7253418 C-573.73161094 128.72099703 -571.98251089 128.71581467 -570.2334137 128.70985413 C-565.4731306 128.69642746 -560.71292672 128.69588953 -555.95262837 128.69841743 C-551.98373503 128.69948467 -548.01485788 128.69461009 -544.045968 128.689812 C-534.68533687 128.6787041 -525.32474586 128.67828659 -515.96411133 128.68432617 C-506.29607884 128.69036802 -496.62819182 128.67805253 -486.96018416 128.6567561 C-478.66971025 128.63916319 -470.37928273 128.63313509 -462.08879083 128.63639385 C-457.13279833 128.63821057 -452.17690958 128.63553195 -447.22093391 128.62167931 C-442.56127667 128.60914309 -437.9018468 128.61100497 -433.24219322 128.62409019 C-431.52930247 128.62646475 -429.81639592 128.62369001 -428.10352325 128.61546707 C-425.7703728 128.6050717 -423.43799555 128.6130413 -421.10487366 128.6257782 C-419.79760346 128.62561046 -418.49033327 128.62544271 -417.14344883 128.62526989 C-414 129 -414 129 -412.1184454 130.33588886 C-410.04390013 133.42256068 -409.87581817 136.12526214 -409.87974548 139.72660828 C-409.87768349 141.18423584 -409.87768349 141.18423584 -409.87557983 142.67131042 C-409.87917511 143.73585953 -409.88277039 144.80040863 -409.88647461 145.8972168 C-409.88632858 147.01931549 -409.88618256 148.14141418 -409.8860321 149.29751587 C-409.88673002 153.01476968 -409.89451683 156.73197367 -409.90234375 160.44921875 C-409.90420836 163.0232592 -409.90563206 165.59730001 -409.90663147 168.17134094 C-409.91006243 174.25925528 -409.91794782 180.34714899 -409.92798096 186.43505555 C-409.93915579 193.36606694 -409.944656 200.29707917 -409.94967639 207.22809732 C-409.96013079 221.48540785 -409.9777217 235.74270329 -410 250 C-410.66 250 -411.32 250 -412 250 C-412.33 210.73 -412.66 171.46 -413 131 C-472.07 131 -531.14 131 -592 131 C-592.36779267 166.96672922 -592.36779267 166.96672922 -586.375 202.375 C-586.11630127 203.25365723 -585.85760254 204.13231445 -585.59106445 205.03759766 C-573.61065191 244.21993012 -546.66375692 274.63487404 -511 294 C-510.38431152 294.33660645 -509.76862305 294.67321289 -509.13427734 295.02001953 C-477.95748309 311.71667766 -441.58982277 310.15263276 -407.29394531 310.14526367 C-404.47577792 310.14772607 -401.65761289 310.15164019 -398.83944702 310.15544128 C-392.03313294 310.16366667 -385.22682753 310.16649236 -378.42050889 310.16705366 C-372.87777811 310.16753253 -367.33505014 310.1696055 -361.79232025 310.17275429 C-346.00612209 310.18153713 -330.21993066 310.18617716 -314.43373004 310.18542381 C-313.16329148 310.18536388 -313.16329148 310.18536388 -311.8671875 310.18530273 C-311.01917032 310.18526185 -310.17115314 310.18522097 -309.29743847 310.18517885 C-295.56208825 310.18477261 -281.82676547 310.19434304 -268.09142318 310.2084411 C-253.91798368 310.22287176 -239.74455751 310.22970769 -225.57111049 310.22884732 C-217.6418496 310.22851775 -209.71261752 310.23115858 -201.78336334 310.24202538 C-195.03306481 310.25121888 -188.28280816 310.25323407 -181.53250602 310.24651595 C-178.10233345 310.24329523 -174.67230497 310.24415915 -171.24213028 310.2518692 C-147.6844336 310.30133499 -123.88819883 310.16455489 -101 304 C-100.28005859 303.80986328 -99.56011719 303.61972656 -98.81835938 303.42382812 C-63.23036103 293.6889945 -33.09267829 269.59484062 -14.29858398 238.07397461 C-7.37151451 225.92306369 -1.83698566 212.98772872 1.875 199.5 C2.06610352 198.82670654 2.25720703 198.15341309 2.45410156 197.4597168 C7.30089804 178.40019544 6.30017526 158.21321659 6.26865101 138.70960879 C6.26351912 134.53166886 6.26830132 130.35373687 6.27142334 126.17579651 C6.27503872 119.17536818 6.27032445 112.17498239 6.26074219 105.17456055 C6.24982389 97.10535978 6.25341741 89.03625986 6.264395 80.96706146 C6.27349176 73.99841817 6.27474264 67.02980508 6.26951766 60.06115776 C6.26641599 55.91620198 6.26593941 51.77129353 6.27259064 47.62634087 C6.27839983 43.73635344 6.27430241 39.84649554 6.26280212 35.95652199 C6.2601762 34.53682037 6.26088489 33.11710768 6.26532745 31.69741058 C6.29671416 20.64214191 5.92980671 11.48769073 0 2 C0 1.34 0 0.68 0 0 Z " fill="#0A0A0A" transform="translate(730,356)"/>
<path d="M0 0 C78.87 0 157.74 0 239 0 C239 39.6 239 79.2 239 120 C238.34 119.67 237.68 119.34 237 119 C237 80.39 237 41.78 237 2 C159.45 2 81.9 2 2 2 C2 40.61 2 79.22 2 119 C-0.49669414 121.49669414 -1.27251067 121.25651281 -4.72024536 121.2784729 C-5.71586487 121.28963638 -6.71148437 121.30079987 -7.73727417 121.31230164 C-8.83347076 121.31446182 -9.92966736 121.31662201 -11.05908203 121.31884766 C-12.21029541 121.32889328 -13.36150879 121.3389389 -14.54760742 121.34928894 C-18.36767051 121.3802765 -22.18766305 121.39719936 -26.0078125 121.4140625 C-28.65054946 121.43276161 -31.29328037 121.45233406 -33.93600464 121.4727478 C-40.19036347 121.51958152 -46.44473945 121.5563033 -52.6991843 121.58942068 C-60.51696714 121.63135426 -68.33464711 121.68673452 -76.15234375 121.7421875 C-90.1015062 121.84107299 -104.05069186 121.91956393 -118 122 C-117.67 150.38 -117.34 178.76 -117 208 C47.34 208.33 211.68 208.66 381 209 C381 209.33 381 209.66 381 210 C215.67 210 50.34 210 -120 210 C-120 180.3 -120 150.6 -120 120 C-61.095 119.505 -61.095 119.505 -1 119 C-0.67 79.73 -0.34 40.46 0 0 Z " fill="#030303" transform="translate(318,127)"/>
<path d="M0 0 C0.33 0 0.66 0 1 0 C0.96970703 1.16635986 0.93941406 2.33271973 0.90820312 3.53442383 C0.05520227 37.64973329 -0.16145424 71.77013185 -0.23217773 105.89486694 C-0.24253053 110.74845339 -0.25995202 115.60193462 -0.28344727 120.45547485 C-0.31104243 126.28024982 -0.32316619 132.10486821 -0.32407379 137.92970657 C-0.32673731 140.09983174 -0.33443825 142.26995763 -0.3476181 144.4400444 C-0.45322632 162.93214355 0.29698525 178.40901425 13 193 C23.05036019 200.72240136 33.6892298 205.15494404 46.31649399 205.1386652 C47.59222988 205.14292853 47.59222988 205.14292853 48.89373821 205.14727798 C51.76280698 205.15564445 54.63183548 205.15689472 57.50091553 205.15821838 C59.57089371 205.1627824 61.64087097 205.16778219 63.71084714 205.17318195 C69.4139962 205.18679068 75.11713928 205.19418932 80.82030034 205.20060861 C86.96480719 205.20860055 93.10930156 205.22230247 99.25379944 205.23532104 C109.90455519 205.25710093 120.55531152 205.27527442 131.20607758 205.29092598 C142.37828802 205.30735887 153.55049198 205.32583821 164.7226944 205.34705925 C165.41697918 205.34837686 166.11126395 205.34969446 166.82658766 205.351052 C170.35241439 205.35775395 173.87824104 205.36449255 177.40406767 205.37124526 C202.38672242 205.41902641 227.36938322 205.46220623 252.35205078 205.50268555 C276.62451619 205.54202464 300.8969766 205.58344455 325.16943359 205.62768555 C325.9174295 205.62904808 326.66542541 205.63041061 327.43608786 205.63181442 C334.94767281 205.64549963 342.45925769 205.65922718 349.97084251 205.67298577 C365.2732248 205.70101338 380.5756076 205.72875833 395.87799072 205.7563324 C396.93339191 205.7582347 396.93339191 205.7582347 398.01011433 205.76017542 C445.00673477 205.84485166 492.00336656 205.92291775 539 206 C539.02312228 217.58688402 539.0409145 229.17376259 539.05181217 240.76066494 C539.05704125 246.14033762 539.06413935 251.51999458 539.07543945 256.8996582 C539.08626745 262.08674843 539.09227665 267.27382349 539.09487724 272.46092415 C539.09673165 274.4445628 539.10035256 276.42820058 539.10573006 278.41183281 C539.11293932 281.18009136 539.11399099 283.94828638 539.11352539 286.71655273 C539.11712067 287.54517319 539.12071594 288.37379364 539.12442017 289.2275238 C539.11405216 294.88594784 539.11405216 294.88594784 538 296 C536.45646869 296.09584998 534.90854892 296.1218807 533.36204529 296.12025452 C532.35938629 296.12162918 531.35672729 296.12300385 530.32368469 296.12442017 C528.65997078 296.11902725 528.65997078 296.11902725 526.96264648 296.11352539 C525.80182556 296.11367142 524.64100464 296.11381744 523.44500732 296.1139679 C519.58701748 296.11326817 515.72907522 296.10547298 511.87109375 296.09765625 C509.20451272 296.09579228 506.53793436 296.09431912 503.87135315 296.09336853 C497.5567112 296.09025548 491.24208649 296.08204244 484.92745215 296.07201904 C477.74014367 296.0608571 470.55283439 296.05534725 463.3655194 296.05032361 C448.57700411 296.0398598 433.78850235 296.02226086 419 296 C419 295.67 419 295.34 419 295 C477.41 294.505 477.41 294.505 537 294 C537 265.95 537 237.9 537 209 C512.08575925 208.13815414 512.08575925 208.13815414 487.18141174 207.88647461 C485.27307748 207.88675606 483.36474312 207.88658885 481.45640892 207.88602352 C476.31562652 207.88573352 471.17486826 207.89158087 466.03409135 207.89859343 C460.45077874 207.9050583 454.86746495 207.90554354 449.28414917 207.9067688 C439.6417001 207.90963496 429.99925884 207.91603962 420.35681343 207.92483521 C406.40076416 207.93747139 392.44471772 207.94348457 378.48866367 207.94776857 C355.81755388 207.95481105 333.14644821 207.96558231 310.4753418 207.97949219 C309.4611941 207.98011266 309.4611941 207.98011266 308.42655856 207.98074566 C298.13853897 207.98704398 287.85051948 207.99350809 277.5625 208 C266.56469733 208.00693682 255.56689461 208.01380185 244.5690918 208.02050781 C243.55210002 208.0211297 243.55210002 208.0211297 242.51456295 208.02176414 C219.21768487 208.03598422 195.92080711 208.04625314 172.62392563 208.05341816 C158.7022025 208.05789098 144.78049006 208.06591359 130.85877191 208.07856297 C121.32958242 208.08699761 111.80039537 208.09188151 102.27120239 208.09398818 C96.77876262 208.09533063 91.28633665 208.09832283 85.79390144 208.10574722 C80.76055359 208.11252541 75.72722563 208.11462626 70.69387364 208.11311162 C68.87956283 208.11338165 67.06525126 208.11533512 65.25094456 208.1192044 C44.44210396 208.16150109 26.06255161 208.18128521 9.8125 193.375 C-0.45324724 182.67895197 -2.27218841 169.57213274 -2.6171875 155.4296875 C-2.65472137 154.11225555 -2.69225525 152.79482361 -2.73092651 151.43746948 C-3.12256324 137.00203424 -3.15332613 122.56493213 -3.125 108.125 C-3.12361501 106.74149591 -3.12238616 105.35799166 -3.12130737 103.9744873 C-3.10427167 85.3967304 -2.95229418 66.82416366 -2.5625 48.25 C-2.5429425 47.29804749 -2.52338501 46.34609497 -2.50323486 45.36529541 C-2.29558544 35.60790675 -1.98912811 25.85821836 -1.52734375 16.109375 C-1.49024796 15.295755 -1.45315216 14.48213501 -1.41493225 13.64385986 C-1.18137366 9.0392039 -0.72568347 4.55363533 0 0 Z " fill="#0D0D0D" transform="translate(138,191)"/>
<path d="M0 0 C4.65125052 3.65455398 6.47039212 8.44208981 8 14 C8.64248872 19.40654664 8.69334894 24.79412113 8.73828125 30.23046875 C8.76574837 31.91670059 8.79438269 33.60291373 8.8240509 35.28910828 C8.91744878 41.19254472 8.96059173 47.09599201 9 53 C9.00835625 54.12700569 9.01671249 55.25401138 9.02532196 56.41516876 C9.15374096 73.98608949 9.1867311 91.55662684 9.18511403 109.12791336 C9.18545807 114.6666014 9.19712765 120.20522665 9.2110464 125.74389488 C9.22580878 131.84414016 9.22928839 137.94434499 9.22869301 144.04460716 C9.22985976 146.59474225 9.23420656 149.14487824 9.24202538 151.6950016 C9.34058718 187.05013541 9.34058718 187.05013541 4.9375 201.875 C4.7297998 202.5963916 4.52209961 203.3177832 4.30810547 204.06103516 C-0.93016411 221.27038883 -9.56552593 237.35977045 -20.30078125 251.72265625 C-21.58547103 253.44443588 -22.80836855 255.21255282 -24 257 C-24.66 257 -25.32 257 -26 257 C-26.18691406 257.67417969 -26.37382813 258.34835937 -26.56640625 259.04296875 C-28.603582 263.24499067 -31.62353617 266.06895078 -34.9375 269.3125 C-35.61409668 269.97967041 -36.29069336 270.64684082 -36.98779297 271.33422852 C-42.29427996 276.48309086 -47.77266745 280.99416574 -54 285 C-55.00289062 285.65097656 -56.00578125 286.30195312 -57.0390625 286.97265625 C-60.3245515 289.04707084 -63.64683411 291.03698489 -67 293 C-67.85803223 293.51095215 -67.85803223 293.51095215 -68.73339844 294.03222656 C-93.241536 308.49760703 -121.56731272 312.18697426 -149.59082031 312.11352539 C-151.11966449 312.11324266 -152.6485088 312.11340294 -154.17735291 312.1139679 C-158.29015965 312.1142525 -162.40293668 312.10841059 -166.51573658 312.10139394 C-170.82785195 312.09510397 -175.13996815 312.09455216 -179.4520874 312.09336853 C-187.60090835 312.09027175 -195.74971573 312.08208084 -203.89853072 312.07201904 C-213.1827901 312.06080632 -222.46705016 312.0553345 -231.75131464 312.05032361 C-250.83421742 312.03989669 -269.91710762 312.02232954 -289 312 C-289 311.34 -289 310.68 -289 310 C-288.2869829 310.00184359 -287.5739658 310.00368717 -286.83934212 310.00558662 C-269.3637254 310.05005861 -251.88812335 310.08299732 -234.41246223 310.10362434 C-225.96082634 310.11386853 -217.50922858 310.12779488 -209.05761719 310.15087891 C-201.67774897 310.17102578 -194.29790841 310.183766 -186.91801345 310.18817699 C-183.02264021 310.19074898 -179.12734596 310.1966444 -175.23199844 310.21146011 C-137.77274719 310.40930035 -137.77274719 310.40930035 -101 304 C-100.28005859 303.80986328 -99.56011719 303.61972656 -98.81835938 303.42382812 C-63.23036103 293.6889945 -33.09267829 269.59484062 -14.29858398 238.07397461 C-7.37151451 225.92306369 -1.83698566 212.98772872 1.875 199.5 C2.06610352 198.82670654 2.25720703 198.15341309 2.45410156 197.4597168 C7.30089804 178.40019544 6.30017526 158.21321659 6.26865101 138.70960879 C6.26351912 134.53166886 6.26830132 130.35373687 6.27142334 126.17579651 C6.27503872 119.17536818 6.27032445 112.17498239 6.26074219 105.17456055 C6.24982389 97.10535978 6.25341741 89.03625986 6.264395 80.96706146 C6.27349176 73.99841817 6.27474264 67.02980508 6.26951766 60.06115776 C6.26641599 55.91620198 6.26593941 51.77129353 6.27259064 47.62634087 C6.27839983 43.73635344 6.27430241 39.84649554 6.26280212 35.95652199 C6.2601762 34.53682037 6.26088489 33.11710768 6.26532745 31.69741058 C6.29671416 20.64214191 5.92980671 11.48769073 0 2 C0 1.34 0 0.68 0 0 Z " fill="#040406" transform="translate(730,356)"/>
<path d="M0 0 C1.64096384 -0.02742969 3.28192833 -0.0548201 4.92289352 -0.08216858 C5.69207875 -0.10696053 6.46126397 -0.13175248 7.25375783 -0.1572957 C12.57576937 -0.22551629 12.57576937 -0.22551629 15.01716805 1.43564606 C16.9848374 4.56556802 17.19461861 7.24479781 17.19070053 10.837677 C17.19276253 12.29530457 17.19276253 12.29530457 17.19486618 13.78237915 C17.1912709 14.84692825 17.18767563 15.91147736 17.18397141 17.00828552 C17.18411743 18.13038422 17.18426346 19.25248291 17.18441391 20.40858459 C17.18371599 24.1258384 17.17592919 27.8430424 17.16810226 31.56028748 C17.16623766 34.13432793 17.16481396 36.70836873 17.16381454 39.28240967 C17.16038359 45.37032401 17.1524982 51.45821772 17.14246505 57.54612428 C17.13129023 64.47713566 17.12579001 71.4081479 17.12076962 78.33916605 C17.11031523 92.59647658 17.09272431 106.85377201 17.07044601 121.11106873 C16.41044601 121.11106873 15.75044601 121.11106873 15.07044601 121.11106873 C14.74044601 81.84106873 14.41044601 42.57106873 14.07044601 2.11106873 C-44.66955399 2.11106873 -103.40955399 2.11106873 -163.92955399 2.11106873 C-163.92955399 1.78106873 -163.92955399 1.45106873 -163.92955399 1.11106873 C-143.50940575 0.97998593 -123.08925338 0.8495659 -102.66909599 0.7199173 C-93.18592634 0.65969302 -83.70275811 0.59925852 -74.21959305 0.53831482 C-65.94619366 0.48514624 -57.67279178 0.43238668 -49.39938676 0.38010168 C-45.02587148 0.35244876 -40.65235764 0.32460232 -36.27884674 0.29626465 C-32.14700815 0.26949937 -28.01516638 0.24328845 -23.88332176 0.21747017 C-22.38152758 0.20799424 -20.87973457 0.19833017 -19.37794304 0.18844414 C-18.32929605 0.18155665 -18.32929605 0.18155665 -17.25946426 0.17453003 C-16.57203699 0.16995033 -15.88460971 0.16537064 -15.17635131 0.16065216 C-13.8269464 0.15298852 -12.47752787 0.14740319 -11.1281054 0.14403534 C-7.41702043 0.13430054 -3.71014482 0.08709755 0 0 Z " fill="#333232" transform="translate(302.9295539855957,484.88893127441406)"/>
<path d="M0 0 C18.15 0 36.3 0 55 0 C55.04010881 22.17125849 55.04010881 22.17125849 55.04882812 31.58789062 C55.05481683 38.02515482 55.06191786 44.46240485 55.07543945 50.8996582 C55.08626745 56.08674843 55.09227665 61.27382349 55.09487724 66.46092415 C55.09673165 68.4445628 55.10035256 70.42820058 55.10573006 72.41183281 C55.11293932 75.18009136 55.11399099 77.94828638 55.11352539 80.71655273 C55.11712067 81.54517319 55.12071594 82.37379364 55.12442017 83.2275238 C55.11405216 88.88594784 55.11405216 88.88594784 54 90 C52.45646869 90.09584998 50.90854892 90.1218807 49.36204529 90.12025452 C48.35938629 90.12162918 47.35672729 90.12300385 46.32368469 90.12442017 C45.21454208 90.12082489 44.10539948 90.11722961 42.96264648 90.11352539 C41.80182556 90.11367142 40.64100464 90.11381744 39.44500732 90.1139679 C35.58701748 90.11326817 31.72907522 90.10547298 27.87109375 90.09765625 C25.20451272 90.09579228 22.53793436 90.09431912 19.87135315 90.09336853 C13.5567112 90.09025548 7.24208649 90.08204244 0.92745215 90.07201904 C-6.25985633 90.0608571 -13.44716561 90.05534725 -20.6344806 90.05032361 C-35.42299589 90.0398598 -50.21149765 90.02226086 -65 90 C-65 89.67 -65 89.34 -65 89 C-26.06 88.67 12.88 88.34 53 88 C53 59.95 53 31.9 53 3 C35.51 2.34 18.02 1.68 0 1 C0 0.67 0 0.34 0 0 Z " fill="#353634" transform="translate(622,397)"/>
<path d="M0 0 C12.0998222 4.32291673 22.20271383 14.9513628 31 24 C32.3921875 25.3921875 32.3921875 25.3921875 33.8125 26.8125 C34.534375 27.534375 35.25625 28.25625 36 29 C35.67 29.66 35.34 30.32 35 31 C34.37508667 30.351521 34.37508667 30.351521 33.73754883 29.68994141 C24.03037178 19.66731105 14.35977502 10.44101558 2.6328125 2.796875 C1.76398437 2.20390625 0.89515625 1.6109375 0 1 C0 0.67 0 0.34 0 0 Z " fill="#0E0E0E" transform="translate(667,89)"/>
<path d="M0 0 C0.66 0.33 1.32 0.66 2 1 C-3.94 6.94 -9.88 12.88 -16 19 C-16.66 18.67 -17.32 18.34 -18 18 C-12.37361021 11.50903494 -6.55902307 5.55113536 0 0 Z " fill="#868686" transform="translate(192,99)"/>
<path d="M0 0 C0.33 0.99 0.66 1.98 1 3 C-0.8125 6.1875 -0.8125 6.1875 -3 9 C-3.66 9 -4.32 9 -5 9 C-5.33 9.99 -5.66 10.98 -6 12 C-6.99 12.33 -7.98 12.66 -9 13 C-7.50923566 9.7173068 -5.61379679 7.06922559 -3.375 4.25 C-2.74335937 3.45078125 -2.11171875 2.6515625 -1.4609375 1.828125 C-0.97882812 1.22484375 -0.49671875 0.6215625 0 0 Z " fill="#0E0E10" transform="translate(709,604)"/>
<path d="M0 0 C2 4 2 4 1.3203125 6.359375 C0.92585937 7.14828125 0.53140625 7.9371875 0.125 8.75 C-0.45894531 9.94882812 -0.45894531 9.94882812 -1.0546875 11.171875 C-1.36664062 11.77515625 -1.67859375 12.3784375 -2 13 C-2.99 12.67 -3.98 12.34 -5 12 C-3.35 8.04 -1.7 4.08 0 0 Z " fill="#111113" transform="translate(727,570)"/>
<path d="M0 0 C0.99 0.33 1.98 0.66 3 1 C1.54712339 2.33927721 0.08752741 3.67126847 -1.375 5 C-2.18710937 5.7425 -2.99921875 6.485 -3.8359375 7.25 C-6 9 -6 9 -8 9 C-6.40758592 4.70048197 -3.64459275 2.60328053 0 0 Z " fill="#020203" transform="translate(688,628)"/>
<path d="M0 0 C0.66 0.33 1.32 0.66 2 1 C-0.13274079 3.34601486 -2.02537789 4.86264449 -5 6 C-7.75 6.125 -7.75 6.125 -10 6 C-6.87511433 3.47605388 -3.68685613 1.60298093 0 0 Z " fill="#101113" transform="translate(657,649)"/>
<path d="M0 0 C0.33 0.99 0.66 1.98 1 3 C-1.25 5.0625 -1.25 5.0625 -4 7 C-5.32 6.67 -6.64 6.34 -8 6 C-5.36 4.02 -2.72 2.04 0 0 Z " fill="#131315" transform="translate(679,635)"/>
</svg>
