<svg xmlns="http://www.w3.org/2000/svg" version="1.1" xmlns:xlink="http://www.w3.org/1999/xlink" width="512" height="512" x="0" y="0" viewBox="0 0 1706.66 1706.66" style="enable-background:new 0 0 512 512" xml:space="preserve" fill-rule="evenodd" class=""><g><path fill="#ffad92" d="M1046.95 1340.11H658.69c-10.39 0-19.15-8.02-19.93-18.54l-27.35-372.19c-73.22-35.06-59.65-109.76-59.65-185.58 0-25.04 36.15-26.26 39.71-3.69l156.02-2.84c-20.36-22.12-30.35-54.89-28.45-96.3 1.12-24.48 2.18-47.62 23.52-47.62l307.28.01c57.89 0 105.02 47.11 105.02 105v136.36c0 41.34-23.87 78.03-60.62 95.13l-27.4 371.73c-.77 10.52-9.53 18.54-19.9 18.54z" opacity="1" data-original="#ffad92" class=""></path><path fill="#b3b3b3" d="M419.73 593.06v150.76c-32.09 0-27.84 40-2.91 40h873.02c24.94 0 29.14-40-2.89-40V593.06c32.03 0 27.82-40 2.89-40H416.82c-24.93 0-29.17 40 2.91 40z" opacity="1" data-original="#b3b3b3" class=""></path><path fill="#4a5254" d="M1607.64 949.96H1373.8c-6.41 0-12.43-3.08-16.19-8.26-13.03-17.94-87.78-113.75-87.78-127.52V519.86c0-13.93 74.7-107.17 87.86-124.88 3.78-5.08 9.74-8.07 16.06-8.07h233.88c6.54 0 12.65 3.18 16.41 8.54 12.24 17.51 82.53 111.27 82.53 124.42v294.02c0 12.99-70.28 109.52-82.38 127.32a19.996 19.996 0 0 1-16.54 8.76zM337.93 949.96H104.07c-6.4 0-12.43-3.08-16.19-8.26C74.85 923.76.1 827.95.1 814.18V519.86c0-13.96 74.68-107.11 87.86-124.88 3.76-5.08 9.72-8.07 16.06-8.07h233.9c6.53 0 12.65 3.18 16.4 8.54 12.26 17.53 82.5 111.23 82.5 124.42v294.02c0 13-70.26 109.54-82.35 127.33a19.99 19.99 0 0 1-16.54 8.74z" opacity="1" data-original="#4a5254"></path><g fill="#ffad92"><path d="M647.91 653.35h-11.52c-46.66 0-84.63-37.95-84.63-84.63V451.18c0-112.89 180.78-112.89 180.78 0v117.54c0 46.67-37.97 84.63-84.63 84.63z" fill="#ffad92" opacity="1" data-original="#ffad92" class=""></path><path d="M788.68 653.35h-11.52c-46.66 0-84.63-37.95-84.63-84.63V451.18c0-112.9 180.78-112.89 180.78 0v117.54c-.01 46.67-37.96 84.63-84.63 84.63z" fill="#ffad92" opacity="1" data-original="#ffad92" class=""></path><path d="M929.46 653.35h-11.52c-46.66 0-84.63-37.95-84.63-84.63V451.18c0-112.9 180.78-112.89 180.78 0v117.54c0 46.67-37.95 84.63-84.63 84.63z" fill="#ffad92" opacity="1" data-original="#ffad92" class=""></path><path d="M1070.24 653.35h-11.51c-46.66 0-84.64-37.95-84.64-84.63V451.18c0-112.89 180.79-112.89 180.79 0v117.54c0 46.67-37.98 84.63-84.64 84.63z" fill="#ffad92" opacity="1" data-original="#ffad92" class=""></path></g><path fill="#e69c83" d="M721.18 568.72c0-34.52-4.15-124.19 5.68-149.67 11.69-30.31 39.93-47.5 70.39-51.59-52.78-7.07-104.71 24.06-104.71 83.72v117.54c0 25.21 11.14 48.3 29.33 64.01 2.04-8.73 5.73-15.4 12.89-18.09-8.8-13.56-13.57-29.39-13.57-45.92zM862.96 568.72c0-34.52-4.15-124.19 5.68-149.67 11.69-30.31 39.93-47.5 70.39-51.59-52.78-7.07-104.71 24.06-104.71 83.72v117.54c0 25.21 11.14 48.3 29.33 64.01 2.04-8.73 5.73-15.4 12.89-18.09-8.8-13.56-13.57-29.39-13.57-45.92zM1004.28 568.72c0-34.52-4.15-124.19 5.68-149.67 11.69-30.31 39.93-47.5 70.39-51.59-52.78-7.07-104.71 24.06-104.71 83.72v117.54c0 25.21 11.14 48.3 29.33 64.01 2.04-8.73 5.73-15.4 12.89-18.09-8.8-13.56-13.57-29.39-13.57-45.92z" opacity="1" data-original="#e69c83"></path></g></svg>