<svg xmlns="http://www.w3.org/2000/svg" version="1.1" xmlns:xlink="http://www.w3.org/1999/xlink" width="512" height="512" x="0" y="0" viewBox="0 0 64 64" style="enable-background:new 0 0 512 512" xml:space="preserve" class=""><g><path fill="#3f4042" d="m50.738 31.413-3.886 20.986 3.731 1.453 4.321-23.332z" opacity="1" data-original="#3f4042" class=""></path><path fill="#5a5b5d" d="m48.807 53.161 4.114-22.216-2.183.468-3.886 20.986z" opacity="1" data-original="#5a5b5d" class=""></path><path fill="#103d66" d="m19.655 41.913-3.197 6.927-6.549-.748 3.195-10.226z" opacity="1" data-original="#103d66"></path><path fill="#52a04f" d="M24 49.717V43l-6.03-1.508A7.882 7.882 0 0 1 12 33.845c0-.562.052-1.123.156-1.675l2.107-11.238A4.82 4.82 0 0 1 19 17l.821-2.464L24 15.704V18c1.226.613 2 1.866 2 3.236V35l2.336 3.504A9.907 9.907 0 0 1 30 44v6.419" opacity="1" data-original="#52a04f"></path><path fill="#6db569" d="M30 50.419V44a9.907 9.907 0 0 0-1.664-5.496L26 35V21.236c0-1.37-.774-2.623-2-3.236v-2.296l-2.349-.657L21 17a4.82 4.82 0 0 0-4.737 3.931L14.156 32.17A9.048 9.048 0 0 0 14 33.845a7.882 7.882 0 0 0 5.97 7.647L26 43v6.951z" opacity="1" data-original="#6db569" class=""></path><path fill="#d69578" d="M21.797 19c.771 0 1.51-.306 2.055-.851L24 18v-2.296l-4.179-1.168L19 17l.197.393a2.906 2.906 0 0 0 2.6 1.607z" opacity="1" data-original="#d69578"></path><path fill="#e8a989" d="M23 2a6 6 0 0 0-6 6v2a6 6 0 1 0 12 0V8a6 6 0 0 0-6-6z" opacity="1" data-original="#e8a989"></path><path fill="#f6bb95" d="M23 2a5.974 5.974 0 0 0-3.71 1.29A5.974 5.974 0 0 0 18 7v2a6 6 0 0 0 6 6 5.974 5.974 0 0 0 3.71-1.29A5.972 5.972 0 0 0 29 10V8a6 6 0 0 0-6-6z" opacity="1" data-original="#f6bb95"></path><path fill="#3f4042" d="M22 8h7a6 6 0 1 0-12 0v2a5.993 5.993 0 0 0 2.73 5.027L22 12z" opacity="1" data-original="#3f4042" class=""></path><path fill="#5a5b5d" d="M23 2a5.974 5.974 0 0 0-3.71 1.29A5.974 5.974 0 0 0 18 7v2a5.988 5.988 0 0 0 2.564 4.914L22 12V8h7a6 6 0 0 0-6-6z" opacity="1" data-original="#5a5b5d" class=""></path><path fill="#3f4042" d="m38.862 51.459 4.088.481L40.992 10h-4z" opacity="1" data-original="#3f4042" class=""></path><path fill="#5a5b5d" d="M40.989 51.709 39.041 10h-2.049l1.87 41.459z" opacity="1" data-original="#5a5b5d" class=""></path><path fill="#52a04f" d="m26 22-3 7-4.292-2.146A3.089 3.089 0 0 1 20.09 21c.605 0 1.209.06 1.802.178z" opacity="1" data-original="#52a04f"></path><path fill="#f6bb95" d="M25.585 22.969 31 25l5.865-4.189A4.347 4.347 0 0 1 39.394 20a2.606 2.606 0 0 1 1.446 4.774l-6.278 4.185a6.2 6.2 0 0 1-5.614.646L23.6 27.6" opacity="1" data-original="#f6bb95"></path><path fill="#5a5b5d" d="M52 57.24c0 1.32-.53 2.5-1.39 3.37-.87.86-2.05 1.39-3.37 1.39H9c-3.87 0-7-3.13-7-7s3.13-7 7-7c.54 0 38.79 4.51 38.79 4.51A4.76 4.76 0 0 1 52 57.24z" opacity="1" data-original="#5a5b5d" class=""></path><path fill="#777777" d="m48 32 14-3.001V22h-4v3l-10 2zM47.79 52.51S9.54 48 9 48a6.968 6.968 0 0 0-3.847 1.153A6.968 6.968 0 0 0 4 53c0 3.87 3.13 7 7 7h38.24a4.71 4.71 0 0 0 2.2-.56 4.71 4.71 0 0 0 .56-2.2 4.76 4.76 0 0 0-4.21-4.73z" opacity="1" data-original="#777777"></path><path fill="#e8a989" d="M19.402 15.794 19 17l.197.393a2.906 2.906 0 0 0 4.655.756L24 18v-1.09c-.326.055-.659.09-1 .09a5.965 5.965 0 0 1-3.598-1.206z" opacity="1" data-original="#e8a989"></path><path fill="#1d549c" d="M28.336 38.504 26 35H12.09a7.881 7.881 0 0 0 5.88 6.492L24 43v6.717l6 .702V44a9.907 9.907 0 0 0-1.664-5.496z" opacity="1" data-original="#1d549c"></path><path fill="#2b6bb2" d="M30 50.185V44a9.907 9.907 0 0 0-1.664-5.496L26 35H14.09a7.881 7.881 0 0 0 5.88 6.492L26 43v6.717z" opacity="1" data-original="#2b6bb2"></path><path fill="#174b84" d="M16.88 42.492a7.84 7.84 0 0 1-4.325-2.866l-2.646 8.467 4.977.568 2.759-5.977z" opacity="1" data-original="#174b84"></path><path fill="#969696" d="m58 25-10 2v3l14-3.001V22h-4z" opacity="1" data-original="#969696"></path></g></svg>