<?xml version="1.0" encoding="UTF-8"?>
<svg version="1.1" xmlns="http://www.w3.org/2000/svg" width="288" height="288">
<path d="M0 0 C10.80590075 9.0935811 15.76464708 22.48363909 17.5390625 36.13671875 C17.86028187 41.39932059 17.90375209 46.66612703 17.9296875 51.9375 C18.28860644 68.46771126 23.8970462 84.51813335 28.48632812 100.28173828 C34.35449716 120.51039139 34.35449716 120.51039139 32.5390625 129.13671875 C31.02124023 131.89086914 31.02124023 131.89086914 29.14453125 134.6875 C24.23273437 142.23013094 24.2903315 149.81230763 23.95831299 158.56167603 C23.77656858 163.26494905 23.48617058 167.96182881 23.20703125 172.66015625 C23.15474365 173.57998795 23.10245605 174.49981964 23.04858398 175.44752502 C22.45527953 185.44875746 20.92871157 195.1771393 19.07177734 205.01269531 C18.56970771 207.95700465 18.16945442 210.90195498 17.80743408 213.86647034 C17.55919109 215.87407539 17.28954741 217.87767871 17.01318359 219.8815918 C16.66486455 222.44073838 16.35184564 225.00503058 16.08056641 227.57348633 C14.83723126 236.06724833 14.83723126 236.06724833 11.1027832 239.14379883 C8.29986558 240.65138753 5.47056881 241.90286087 2.5390625 243.13671875 C0.6023766 244.51868764 -1.30251288 245.94816826 -3.1484375 247.44921875 C-27.24086327 265.84930893 -58.67582758 277.60896704 -89.0234375 277.44921875 C-90.18762207 277.4435791 -91.35180664 277.43793945 -92.55126953 277.43212891 C-120.53882825 277.05295474 -148.94359989 272.25022338 -176.31640625 266.51171875 C-190.31865909 263.69546408 -204.47989676 263.84716418 -218.7109375 263.57421875 C-220.82422579 263.53094156 -222.93750716 263.48732463 -225.05078125 263.44335938 C-230.18742845 263.33722669 -235.3241477 263.23569902 -240.4609375 263.13671875 C-241.82074712 258.6968794 -242.7699935 254.58287169 -243.20703125 249.94140625 C-243.38008789 248.24951172 -243.38008789 248.24951172 -243.55664062 246.5234375 C-243.78522225 244.17492456 -244.00915251 241.82595442 -244.22851562 239.4765625 C-244.34517578 238.35121094 -244.46183594 237.22585937 -244.58203125 236.06640625 C-244.72789673 234.53862549 -244.72789673 234.53862549 -244.87670898 232.97998047 C-245.76542706 228.65486108 -247.99408107 225.76834804 -250.5859375 222.26171875 C-254.20165043 216.23553054 -253.75615326 209.84305815 -252.4609375 203.13671875 C-250.77793081 201.45371206 -248.64085023 201.90862798 -246.33203125 201.8203125 C-244.78032227 201.7574707 -244.78032227 201.7574707 -243.19726562 201.69335938 C-242.10865234 201.65404297 -241.02003906 201.61472656 -239.8984375 201.57421875 C-238.2597168 201.50944336 -238.2597168 201.50944336 -236.58789062 201.44335938 C-233.87904186 201.33689807 -231.17009758 201.23488359 -228.4609375 201.13671875 C-228.1309375 200.47671875 -227.8009375 199.81671875 -227.4609375 199.13671875 C-226.8009375 199.13671875 -226.1409375 199.13671875 -225.4609375 199.13671875 C-225.2134375 198.43546875 -224.9659375 197.73421875 -224.7109375 197.01171875 C-223.30005724 193.76669416 -221.48198352 191.03355138 -219.4609375 188.13671875 C-213.38793349 188.831973 -207.65245668 190.29817713 -201.7734375 191.94921875 C-200.36868164 192.32143555 -200.36868164 192.32143555 -198.93554688 192.70117188 C-190.04132667 195.19612444 -190.04132667 195.19612444 -187.4609375 199.13671875 C-186.15206062 202.50352024 -185.29125297 205.97462743 -184.39453125 209.46875 C-183.34756548 213.46708918 -183.34756548 213.46708918 -180.765625 216.5546875 C-150.37239207 224.23026666 -122.84939262 214.76407223 -95.83203125 201.33984375 C-83.08314937 195.07913979 -68.4920795 188.87954116 -54.0859375 189.07421875 C-53.21195313 189.08324219 -52.33796875 189.09226563 -51.4375 189.1015625 C-50.45910156 189.11896484 -50.45910156 189.11896484 -49.4609375 189.13671875 C-50.04101562 187.71746094 -50.04101562 187.71746094 -50.6328125 186.26953125 C-58.40072841 166.7672636 -61.16435597 147.14717454 -61.6953125 126.2265625 C-61.7135054 125.53907425 -61.7316983 124.851586 -61.7504425 124.14326477 C-61.83793137 120.72341569 -61.90671298 117.30480091 -61.9440918 113.8840332 C-62.134421 104.23267971 -63.92037647 97.1256393 -68.06225586 88.5222168 C-77.76523124 68.16468383 -78.09323921 44.20702005 -71.4296875 22.828125 C-67.01048435 11.1082788 -58.53848286 0.77206106 -47.2578125 -4.98828125 C-32.09052885 -11.00888239 -13.39468084 -9.20643049 0 0 Z " fill="#FDE9D2" transform="translate(254.4609375,9.86328125)"/>
<path d="M0 0 C-0.66 1.65 -1.32 3.3 -2 5 C-3.32 5 -4.64 5 -6 5 C-6.10691162 5.60884033 -6.21382324 6.21768066 -6.32397461 6.8449707 C-7.44986437 10.43407468 -10.60643559 12.09941309 -13.5625 14.1875 C-14.23869385 14.67017334 -14.9148877 15.15284668 -15.61157227 15.65014648 C-40.65797158 33.20835762 -70.7166948 45.47262342 -101.5625 45.3125 C-102.72233398 45.30758545 -103.88216797 45.3026709 -105.07714844 45.29760742 C-123.78156649 45.0522912 -142.2398407 42.39699225 -160.6875 39.5 C-161.98204102 39.29866455 -163.27658203 39.0973291 -164.61035156 38.88989258 C-180.5944669 36.2703554 -180.5944669 36.2703554 -187 32 C-185.70304199 31.98541748 -184.40608398 31.97083496 -183.06982422 31.95581055 C-158.25020118 31.65551027 -133.63391528 31.30439812 -109 28 C-107.74195557 27.84192871 -107.74195557 27.84192871 -106.45849609 27.68066406 C-88.15141203 25.33212121 -69.58017293 20.5914568 -52.40625 13.84765625 C-50 13 -50 13 -47 13 C-47 12.34 -47 11.68 -47 11 C-46.01 11 -45.02 11 -44 11 C-44 9.68 -44 8.36 -44 7 C-30.41108068 0.20554034 -14.86337474 -0.19028503 0 0 Z " fill="#F5BF90" transform="translate(267,242)"/>
<path d="M0 0 C0.04648213 9.36256479 0.08194953 18.72508942 0.10362434 28.08774471 C0.11403078 32.43589817 0.12813218 36.78397228 0.15087891 41.13208008 C0.17271984 45.33366735 0.18459221 49.53517862 0.18975449 53.73681831 C0.19343014 55.33426674 0.20060744 56.93171133 0.21146011 58.52912712 C0.28382709 69.6293216 0.2737647 79.40483046 -6 89 C-6.598125 89.94875 -7.19625 90.8975 -7.8125 91.875 C-10 94 -10 94 -13.4375 95.125 C-17 95 -17 95 -19.5859375 92.90234375 C-22.23933183 89.71225963 -23.14743103 87.42972982 -24.1875 83.4375 C-24.50589844 82.21675781 -24.82429687 80.99601562 -25.15234375 79.73828125 C-26.3349372 74.52288063 -27.26284974 69.29584267 -28 64 C-28.66 64 -29.32 64 -30 64 C-30.61854725 42.92357526 -29.12568195 23.18965578 -14 7 C-9.53283357 2.55996211 -6.48510567 0 0 0 Z " fill="#FD1313" transform="translate(209,7)"/>
<path d="M0 0 C1.65 0.66 3.3 1.32 5 2 C3.66654594 5.85144853 1.99840091 8.39277539 -0.6875 11.4375 C-8.57651187 21.03651626 -13.85277634 32.45321743 -14.625 44.9375 C-14.69976562 46.08089844 -14.77453125 47.22429687 -14.8515625 48.40234375 C-14.90054687 49.25957031 -14.94953125 50.11679688 -15 51 C-16.98 51 -18.96 51 -21 51 C-21.65530854 33.88916594 -15.67397684 19.65830116 -5.75 5.875 C-5.1725 5.25625 -4.595 4.6375 -4 4 C-3.34 4 -2.68 4 -2 4 C-1.34 2.68 -0.68 1.36 0 0 Z " fill="#F3C297" transform="translate(274,151)"/>
<path d="M0 0 C-0.66 1.65 -1.32 3.3 -2 5 C-3.32 5 -4.64 5 -6 5 C-6.0928125 5.86625 -6.0928125 5.86625 -6.1875 6.75 C-7.32027301 9.88690987 -9.34197595 11.09167504 -12 13 C-12.66 12.67 -13.32 12.34 -14 12 C-14 10.68 -14 9.36 -14 8 C-14.61520508 8.09087891 -15.23041016 8.18175781 -15.86425781 8.27539062 C-18.65907971 8.68654888 -21.45452331 9.09331859 -24.25 9.5 C-25.21808594 9.64308594 -26.18617188 9.78617188 -27.18359375 9.93359375 C-28.11816406 10.06894531 -29.05273438 10.20429688 -30.015625 10.34375 C-30.87446289 10.46943359 -31.73330078 10.59511719 -32.61816406 10.72460938 C-35 11 -35 11 -39 11 C-39 11.66 -39 12.32 -39 13 C-39.99 13 -40.98 13 -42 13 C-42 12.34 -42 11.68 -42 11 C-42.66 11 -43.32 11 -44 11 C-44 9.68 -44 8.36 -44 7 C-30.41108068 0.20554034 -14.86337474 -0.19028503 0 0 Z " fill="#F9CEAB" transform="translate(267,242)"/>
<path d="M0 0 C0.04648213 9.36256479 0.08194953 18.72508942 0.10362434 28.08774471 C0.11403078 32.43589817 0.12813218 36.78397228 0.15087891 41.13208008 C0.17271984 45.33366735 0.18459221 49.53517862 0.18975449 53.73681831 C0.19343014 55.33426674 0.20060744 56.93171133 0.21146011 58.52912712 C0.28348191 69.5763758 0.34641602 79.48037597 -6 89 C-6.99 89.495 -6.99 89.495 -8 90 C-8.495 87.525 -8.495 87.525 -9 85 C-8.34 85 -7.68 85 -7 85 C-6.01 83.02 -5.02 81.04 -4 79 C-3.34 79 -2.68 79 -2 79 C-2 53.59 -2 28.18 -2 2 C-6.66071072 4.50086014 -6.66071072 4.50086014 -8.625 6.6875 C-10 8 -10 8 -13 8 C-13 8.99 -13 9.98 -13 11 C-13.66 11 -14.32 11 -15 11 C-15.33 12.32 -15.66 13.64 -16 15 C-17.32 15.33 -18.64 15.66 -20 16 C-18.58884686 12.87729974 -16.889376 10.50346319 -14.625 7.9375 C-14.03976563 7.26589844 -13.45453125 6.59429687 -12.8515625 5.90234375 C-8.84168888 1.7824947 -5.76619095 0 0 0 Z " fill="#DF2620" transform="translate(209,7)"/>
<path d="M0 0 C-12.4352511 12.4352511 -39.54464029 13.21442859 -55.9375 13.25 C-64.01127158 13.23150736 -71.97165541 12.86575252 -80 12 C-80 11.67 -80 11.34 -80 11 C-78.7632251 10.97494385 -77.5264502 10.9498877 -76.25219727 10.92407227 C-71.68063287 10.83017747 -67.10922682 10.72991371 -62.5378418 10.62768555 C-60.55610854 10.58426856 -58.57433622 10.54259863 -56.5925293 10.50268555 C-53.7503683 10.44514617 -50.90840517 10.38140555 -48.06640625 10.31640625 C-46.72891075 10.29133751 -46.72891075 10.29133751 -45.36439514 10.26576233 C-41.36051605 10.563413 -41.36051605 10.563413 -38 9 C-35.98035801 8.92755947 -33.95832876 8.91622812 -31.9375 8.9375 C-30.28041016 8.95103516 -30.28041016 8.95103516 -28.58984375 8.96484375 C-27.73519531 8.97644531 -26.88054687 8.98804688 -26 9 C-26 8.34 -26 7.68 -26 7 C-25.14535156 6.80664062 -24.29070312 6.61328125 -23.41015625 6.4140625 C-22.30542969 6.15367187 -21.20070312 5.89328125 -20.0625 5.625 C-18.96035156 5.36976563 -17.85820312 5.11453125 -16.72265625 4.8515625 C-15.82417969 4.57054687 -14.92570312 4.28953125 -14 4 C-13.67 3.34 -13.34 2.68 -13 2 C-8.54569773 0.42789332 -4.71334503 -0.22991927 0 0 Z " fill="#F6DDC6" transform="translate(220,274)"/>
<path d="M0 0 C6.93 0 13.86 0 21 0 C21 1.98 21 3.96 21 6 C14.07 6 7.14 6 0 6 C0 4.02 0 2.04 0 0 Z " fill="#F6BF8F" transform="translate(27,210)"/>
<path d="M0 0 C7.62951555 -0.34855655 13.92444501 -0.0017506 21 3 C20.67 4.65 20.34 6.3 20 8 C13.4 7.34 6.8 6.68 0 6 C0 4.02 0 2.04 0 0 Z " fill="#F4C296" transform="translate(207,196)"/>
<path d="M0 0 C2.55729502 2.99509281 3.45121877 5.1810161 4 9.0625 C5.08845234 15.87676042 6.81845533 22.45536599 9 29 C12.98669952 29.87953079 12.98669952 29.87953079 17 30 C19.85393478 27.89612236 19.85393478 27.89612236 22 25 C23.33333333 23.66666667 24.66666667 22.33333333 26 21 C25.57405412 22.44096586 25.13373367 23.87768712 24.6875 25.3125 C24.44386719 26.11300781 24.20023438 26.91351563 23.94921875 27.73828125 C22.90563332 30.22484901 22.21476522 31.45757422 20 33 C17.30078125 33.29296875 17.30078125 33.29296875 14.3125 33.1875 C13.31863281 33.16042969 12.32476562 33.13335937 11.30078125 33.10546875 C10.54152344 33.07066406 9.78226563 33.03585938 9 33 C3.94834316 22.1132743 -0.5325259 12.24809581 0 0 Z " fill="#FED2C0" transform="translate(180,71)"/>
<path d="M0 0 C0.33 0 0.66 0 1 0 C0.67 3.3 0.34 6.6 0 10 C-0.99 10.33 -1.98 10.66 -3 11 C-3.88089984 13.64269953 -4.15394988 15.33380625 -4.24609375 18.0546875 C-4.29540039 19.22451172 -4.29540039 19.22451172 -4.34570312 20.41796875 C-4.40660427 22.04804623 -4.46393155 23.67826139 -4.51757812 25.30859375 C-4.70875205 29.68755876 -5.22552057 32.94700612 -7 37 C-7.2759478 38.92903132 -7.48449903 40.8689032 -7.625 42.8125 C-7.73714844 44.27623047 -7.73714844 44.27623047 -7.8515625 45.76953125 C-7.90054688 46.50558594 -7.94953125 47.24164063 -8 48 C-8.33 48 -8.66 48 -9 48 C-9.48880336 31.34447797 -8.65210043 16.22162423 -1 1 C-0.67 0.67 -0.34 0.34 0 0 Z " fill="#EF7373" transform="translate(188,23)"/>
<path d="M0 0 C0.66 0 1.32 0 2 0 C5.61543256 5.62956626 5.39103644 10.63222214 5.29296875 17.0859375 C5.28872391 18.14285797 5.28447906 19.19977844 5.28010559 20.28872681 C5.26336702 23.6510814 5.22572289 27.01282779 5.1875 30.375 C5.17244697 32.66014757 5.15875964 34.94530457 5.14648438 37.23046875 C5.1134793 42.8205186 5.06332772 48.41021584 5 54 C4.67 54 4.34 54 4 54 C3.13885535 43.38610787 2.72902758 32.80038901 2.52319336 22.15454102 C2.36930291 14.50148583 2.01158619 7.40296296 0 0 Z " fill="#FCF3E9" transform="translate(190,104)"/>
<path d="M0 0 C0.33 0 0.66 0 1 0 C0.59679706 16.48231236 -0.78498785 32.66350397 -3 49 C-3.33 49 -3.66 49 -4 49 C-4.05461688 46.18723057 -4.09396555 43.3755513 -4.125 40.5625 C-4.14175781 39.77939453 -4.15851563 38.99628906 -4.17578125 38.18945312 C-4.21567364 33.34252729 -3.67119247 29.09190581 -2.51220703 24.39477539 C-1.5292776 19.79918205 -1.25265159 15.11480783 -0.875 10.4375 C-0.78863281 9.42880859 -0.70226562 8.42011719 -0.61328125 7.38085938 C-0.40343341 4.92097635 -0.19911533 2.46077098 0 0 Z " fill="#FBF3E8" transform="translate(278,159)"/>
<path d="M0 0 C15.74487472 -0.18451025 15.74487472 -0.18451025 23 1 C23 1.66 23 2.32 23 3 C25.97851562 2.90234375 25.97851562 2.90234375 28.95703125 2.8046875 C31 3 31 3 34 5 C22.47101379 4.5444951 11.34425017 3.08765715 0 1 C0 0.67 0 0.34 0 0 Z " fill="#F6DFC8" transform="translate(105,280)"/>
<path d="M0 0 C6.93 0 13.86 0 21 0 C21 1.98 21 3.96 21 6 C14.07 6 7.14 6 0 6 C0 4.02 0 2.04 0 0 Z M3 1 C2.67 2.32 2.34 3.64 2 5 C7.94 5 13.88 5 20 5 C20 3.68 20 2.36 20 1 C14.39 1 8.78 1 3 1 Z " fill="#F4C8A2" transform="translate(27,210)"/>
<path d="M0 0 C2.62553363 3.05477618 3.48474443 5.34674087 4.0625 9.3125 C4.75949757 13.68191331 5.68659599 17.77834424 7 22 C6.01 22 5.02 22 4 22 C1.13498747 14.65062002 0.35224909 7.85879863 0 0 Z " fill="#EF7A7E" transform="translate(180,71)"/>
<path d="M0 0 C0.66 0.33 1.32 0.66 2 1 C0.8125 3.4375 0.8125 3.4375 -1 6 C-3.6875 6.8125 -3.6875 6.8125 -6 7 C-6 7.99 -6 8.98 -6 10 C-6.66 10 -7.32 10 -8 10 C-8.33 11.32 -8.66 12.64 -9 14 C-10.32 14.33 -11.64 14.66 -13 15 C-11.58884686 11.87729974 -9.889376 9.50346319 -7.625 6.9375 C-7.03976563 6.26589844 -6.45453125 5.59429687 -5.8515625 4.90234375 C-4.0239296 3.02458589 -2.13635135 1.51050393 0 0 Z " fill="#EE6666" transform="translate(202,8)"/>
<path d="M0 0 C9.36963011 -0.34560111 18.06929761 -0.31668334 27 3 C27.66 3.66 28.32 4.32 29 5 C26.69 5 24.38 5 22 5 C22 4.34 22 3.68 22 3 C21.37351563 3.01160156 20.74703125 3.02320313 20.1015625 3.03515625 C19.28429687 3.04417969 18.46703125 3.05320312 17.625 3.0625 C16.81289062 3.07410156 16.00078125 3.08570313 15.1640625 3.09765625 C13 3 13 3 11 2 C9.12943209 1.7724985 7.25314042 1.59037189 5.375 1.4375 C4.37210938 1.35371094 3.36921875 1.26992188 2.3359375 1.18359375 C1.56507813 1.12300781 0.79421875 1.06242188 0 1 C0 0.67 0 0.34 0 0 Z " fill="#FCF2E8" transform="translate(219,2)"/>
<path d="M0 0 C2.64 0 5.28 0 8 0 C4.77038428 2.15307714 2.38872346 2.77234869 -1.375 3.625 C-3.05722656 4.01558594 -3.05722656 4.01558594 -4.7734375 4.4140625 C-7.6152708 4.93013392 -10.12444684 5.11846848 -13 5 C-12.67 4.01 -12.34 3.02 -12 2 C-8.04 2 -4.08 2 0 2 C0 1.34 0 0.68 0 0 Z " fill="#F4D8BF" transform="translate(194,281)"/>
<path d="M0 0 C2.60727199 4.86690772 3.17336371 8.91330044 3.25 14.4375 C3.28867187 16.10619141 3.28867187 16.10619141 3.328125 17.80859375 C2.96870683 21.30436338 2.01522151 23.16278024 0 26 C-0.33 25.34 -0.66 24.68 -1 24 C-0.690625 23.13375 -0.38125 22.2675 -0.0625 21.375 C1.29982378 17.04761858 2.10907727 12.21815455 0 8 C-0.13415472 5.3276379 -0.04318541 2.67749512 0 0 Z " fill="#FCF4EB" transform="translate(284,118)"/>
<path d="M0 0 C-2.07937949 1.31914392 -4.16308019 2.63038213 -6.25 3.9375 C-6.83652344 4.31068359 -7.42304688 4.68386719 -8.02734375 5.06835938 C-10.95906265 6.8965661 -13.55480229 8.46275382 -17 9 C-17 8.34 -17 7.68 -17 7 C-14.09451118 4.95830515 -12.59857954 4 -9 4 C-9 3.34 -9 2.68 -9 2 C-8.01 2 -7.02 2 -6 2 C-6 1.34 -6 0.68 -6 0 C-3.50907189 -1.24546405 -2.58919267 -0.7767578 0 0 Z " fill="#F3D5BB" transform="translate(249,259)"/>
<path d="M0 0 C0.33 0 0.66 0 1 0 C1.48975968 5.87711622 0.37071448 10.09611773 -3 15 C-3.99 15.66 -4.98 16.32 -6 17 C-6.33 15.35 -6.66 13.7 -7 12 C-6.34 12 -5.68 12 -5 12 C-4.01 10.02 -3.02 8.04 -2 6 C-1.34 6 -0.68 6 0 6 C0 4.02 0 2.04 0 0 Z " fill="#E92725" transform="translate(207,80)"/>
<path d="M0 0 C-5.79424351 3.59058175 -9.30403958 4.43484866 -16 3 C-11.08294543 0.13171817 -5.53605896 -1.7423757 0 0 Z " fill="#F0C29B" transform="translate(188,266)"/>
<path d="M0 0 C-2.12966005 2.12966005 -3.04068204 2.47624662 -5.875 3.1875 C-6.55304688 3.36667969 -7.23109375 3.54585938 -7.9296875 3.73046875 C-10.22818556 4.02970718 -11.80550964 3.69377386 -14 3 C-12.42274653 2.29866401 -10.83788667 1.614417 -9.25 0.9375 C-7.92742187 0.36322266 -7.92742187 0.36322266 -6.578125 -0.22265625 C-3.84743691 -1.04600008 -2.63098653 -0.9773992 0 0 Z " fill="#F0C59E" transform="translate(217,257)"/>
<path d="M0 0 C-5.5825192 3.32575612 -9.49686791 4.46450943 -16 4 C-13.20344553 2.54120507 -10.41743581 1.34614948 -7.4375 0.3125 C-6.67308594 0.04050781 -5.90867188 -0.23148438 -5.12109375 -0.51171875 C-3 -1 -3 -1 0 0 Z " fill="#FCF3E9" transform="translate(136,224)"/>
<path d="M0 0 C2.12132552 4.24265104 3.11647866 6.32385165 2.5625 11.125 C2.46066406 12.03507813 2.35882813 12.94515625 2.25390625 13.8828125 C2.12822266 14.93082031 2.12822266 14.93082031 2 16 C1.67 16 1.34 16 1 16 C0.08342019 10.61509359 -0.11138159 5.45769811 0 0 Z " fill="#FDF3EA" transform="translate(10,240)"/>
<path d="M0 0 C0.6875 1.625 0.6875 1.625 1 4 C-1.33333333 9.66666667 -1.33333333 9.66666667 -4 11 C-3.48964169 6.6109185 -2.47785723 3.66291938 0 0 Z " fill="#FEE2C0" transform="translate(265,174)"/>
<path d="M0 0 C0.66 0 1.32 0 2 0 C1.67 3.96 1.34 7.92 1 12 C0.67 12 0.34 12 0 12 C-0.19573608 10.56359829 -0.38127816 9.12580496 -0.5625 7.6875 C-0.66691406 6.88699219 -0.77132813 6.08648437 -0.87890625 5.26171875 C-1 3 -1 3 0 0 Z " fill="#FBF0E4" transform="translate(268,228)"/>
<path d="M0 0 C2.33944736 0.28730055 4.6739143 0.61936779 7 1 C7 1.33 7 1.66 7 2 C5.906875 2.28875 4.81375 2.5775 3.6875 2.875 C-0.04013845 3.81893204 -0.04013845 3.81893204 -3 6 C-1.125 1.125 -1.125 1.125 0 0 Z " fill="#FBF5E9" transform="translate(35,198)"/>
<path d="M0 0 C1.90401138 1.90401138 2.93520439 3.33425686 3.19921875 6.046875 C3.1886578 8.03233273 3.09915043 10.0169914 3 12 C2.67 12 2.34 12 2 12 C2 10.35 2 8.7 2 7 C1.34 7 0.68 7 0 7 C0 4.69 0 2.38 0 0 Z " fill="#E76565" transform="translate(180,71)"/>
<path d="M0 0 C2.29633824 3.44450737 2.54016485 5.93812283 3 10 C2.01 9.67 1.02 9.34 0 9 C0 6.03 0 3.06 0 0 Z " fill="#FBF1E4" transform="translate(275,86)"/>
<path d="M0 0 C2.64 0 5.28 0 8 0 C4.55549263 2.29633824 2.06187717 2.54016485 -2 3 C-1.34 2.67 -0.68 2.34 0 2 C0 1.34 0 0.68 0 0 Z " fill="#F8E1CA" transform="translate(194,281)"/>
<path d="" fill="#FFFFFF" transform="translate(0,0)"/>
<path d="" fill="#FFFFFF" transform="translate(0,0)"/>
<path d="" fill="#FFFFFF" transform="translate(0,0)"/>
<path d="" fill="#FFFFFF" transform="translate(0,0)"/>
<path d="" fill="#FFFFFF" transform="translate(0,0)"/>
<path d="" fill="#FFFFFF" transform="translate(0,0)"/>
<path d="" fill="#FFFFFF" transform="translate(0,0)"/>
<path d="" fill="#FFFFFF" transform="translate(0,0)"/>
<path d="" fill="#FFFFFF" transform="translate(0,0)"/>
<path d="" fill="#FFFFFF" transform="translate(0,0)"/>
<path d="" fill="#FFFFFF" transform="translate(0,0)"/>
<path d="" fill="#FFFFFF" transform="translate(0,0)"/>
<path d="" fill="#FFFFFF" transform="translate(0,0)"/>
<path d="" fill="#FFFFFF" transform="translate(0,0)"/>
<path d="" fill="#FFFFFF" transform="translate(0,0)"/>
<path d="" fill="#FFFFFF" transform="translate(0,0)"/>
<path d="" fill="#FFFFFF" transform="translate(0,0)"/>
<path d="" fill="#FFFF00" transform="translate(0,0)"/>
<path d="" fill="#FFFFFF" transform="translate(0,0)"/>
<path d="" fill="#FFFFFF" transform="translate(0,0)"/>
<path d="" fill="#FFFFFF" transform="translate(0,0)"/>
<path d="" fill="#FFFFFF" transform="translate(0,0)"/>
<path d="" fill="#FFFFFF" transform="translate(0,0)"/>
<path d="" fill="#FFFFFF" transform="translate(0,0)"/>
<path d="" fill="#FFFFFF" transform="translate(0,0)"/>
<path d="" fill="#FFFFFF" transform="translate(0,0)"/>
<path d="" fill="#FFFFFF" transform="translate(0,0)"/>
<path d="" fill="#FFFFFF" transform="translate(0,0)"/>
<path d="" fill="#FFFFFF" transform="translate(0,0)"/>
<path d="" fill="#FFFFFF" transform="translate(0,0)"/>
<path d="" fill="#FFFFFF" transform="translate(0,0)"/>
<path d="" fill="#FFFFFF" transform="translate(0,0)"/>
<path d="" fill="#FFFFFF" transform="translate(0,0)"/>
<path d="" fill="#FFFFFF" transform="translate(0,0)"/>
<path d="" fill="#FFFFFF" transform="translate(0,0)"/>
<path d="" fill="#FFFFFF" transform="translate(0,0)"/>
<path d="" fill="#FFFFFF" transform="translate(0,0)"/>
<path d="" fill="#FFFFFF" transform="translate(0,0)"/>
<path d="" fill="#FFFFFF" transform="translate(0,0)"/>
<path d="" fill="#FFFFFF" transform="translate(0,0)"/>
<path d="" fill="#FFFFFF" transform="translate(0,0)"/>
<path d="" fill="#FFFFFF" transform="translate(0,0)"/>
<path d="" fill="#FFFFFF" transform="translate(0,0)"/>
<path d="" fill="#FFFFFF" transform="translate(0,0)"/>
<path d="" fill="#FFFFFF" transform="translate(0,0)"/>
<path d="" fill="#FFFFFF" transform="translate(0,0)"/>
<path d="" fill="#FFFFFF" transform="translate(0,0)"/>
<path d="" fill="#FFFFFF" transform="translate(0,0)"/>
</svg>
