<svg id="SvgjsSvg1085" width="288" height="288" xmlns="http://www.w3.org/2000/svg" version="1.1" xmlns:xlink="http://www.w3.org/1999/xlink" xmlns:svgjs="http://svgjs.com/svgjs"><defs id="SvgjsDefs1086"></defs><g id="SvgjsG1087"><svg xmlns="http://www.w3.org/2000/svg" enable-background="new 0 0 512 512" viewBox="0 0 512 512" width="288" height="288"><path fill="#ffead3" d="M25 507h181.7c0-40 31.1-75.6 31.1-203.7 6.2-4.5 12.3-9.7 18.2-15.7 6 6 12.1 11.2 18.2 15.7 0 128.1 31.1 164 31.1 203.7H487c0-129.3-22.7-206.4-22.7-206.4C464.3 182.4 427 95 427 95V5H85v90s-37.3 87.4-37.3 205.6c0 0-22.7 77.4-22.7 206.4z" class="svgShape colorffead3-0 selectable"></path><path fill="#f8bf8d" d="M237.8 303.3c0 66.1-8.3 107.6-16.3 137.8-24.3-93.6-80-108.5-80-108.5 25.5.7 61.9-4 96.3-29.3zM274.2 303.3c0 66.1 8.3 107.6 16.3 137.8 24.3-93.6 80-108.5 80-108.5-25.5.7-61.9-4-96.3-29.3zM118.093 41.02l8.08 5.89-37.225 51.065-8.08-5.89zM190.41 50.164l39.663 41.5-7.23 6.91-39.663-41.5zM393.926 40.892l37.225 51.066-8.08 5.89-37.225-51.066zM321.577 50.05l7.23 6.91-39.663 41.5-7.23-6.91z" class="svgShape colorf8bf8d-1 selectable"></path><path fill="#ff1313" d="M256 287.6c-6 6-12.1 11.2-18.2 15.7-24.2 17.8-49.4 25.4-71.1 28.1-40.4 0-63-45.8-63-108 0-76.4 40.2-121.6 40.2-121.6S256 107.4 256 287.6zM256 287.6c6 6 12.1 11.2 18.2 15.7 24.2 17.8 49.4 25.4 71.1 28.1 40.4 0 63-45.8 63-108 0-76.4-40.2-121.6-40.2-121.6S256 107.4 256 287.6z" class="svgShape colorb5e1e8-2 selectable"></path><path fill="#f8bf8d" d="M146.4 337.6c-23.2 0-39-4.7-39.7-4.9l2.9-9.6-1.4 4.8 1.4-4.8c.2 0 16.9 5 40.6 4.4 21.8-.5 54.1-5.8 84.6-28.3l5.9 8.1c-32.8 24.1-67.4 29.8-90.7 30.3h-3.6zM365.6 337.6h-3.7c-23.3-.5-57.9-6.1-90.7-30.3l5.9-8.1c58.7 43.2 124.6 24.1 125.3 23.9l2.9 9.6c-.7.3-16.4 4.9-39.7 4.9z" class="svgShape colorf8bf8d-3 selectable"></path></svg></g></svg>