<svg xmlns="http://www.w3.org/2000/svg" version="1.1" xmlns:xlink="http://www.w3.org/1999/xlink" width="512" height="512" x="0" y="0" viewBox="0 0 512 512" style="enable-background:new 0 0 512 512" xml:space="preserve" class=""><g><path fill="#585f63" d="M354.152 40.556C327.896 14.39 293.061 0 256.005 0l-.496.001c-76.402.265-138.56 63.246-138.56 140.396v104.934c0 8.284 6.716 15 15 15h30c8.284 0 15-6.716 15-15v-106.28C176.949 95.462 212.411 60 256 60s79.051 35.462 79.051 79.051v106.28c0 8.284 6.716 15 15 15h30c8.284 0 15-6.716 15-15v-106.28c0-37.233-14.525-72.212-40.899-98.495z" opacity="1" data-original="#585f63"></path><path fill="#484f53" d="M256.005 0H256v60c43.589 0 79.051 35.462 79.051 79.051v106.28c0 8.284 6.716 15 15 15h30c8.284 0 15-6.716 15-15v-106.28c0-37.232-14.525-72.212-40.899-98.495C327.896 14.39 293.061 0 256.005 0z" opacity="1" data-original="#484f53"></path><path fill="#484f53" d="M256 152.339c-106.171 0-192.547 86.377-192.547 192.548 0 33.773 8.875 67.004 25.665 96.101 16.279 28.21 39.628 52.02 67.524 68.855a15.005 15.005 0 0 0 7.75 2.157h183.215a15 15 0 0 0 7.75-2.157c27.896-16.836 51.246-40.646 67.524-68.855 16.79-29.097 25.665-62.327 25.665-96.101.001-106.171-86.375-192.548-192.546-192.548z" opacity="1" data-original="#484f53"></path><path fill="#2e363a" d="M256 152.339V512h91.607a15 15 0 0 0 7.75-2.157c27.896-16.836 51.246-40.646 67.524-68.855 16.79-29.097 25.665-62.327 25.665-96.101.001-106.171-86.375-192.548-192.546-192.548z" opacity="1" data-original="#2e363a"></path><path fill="#585f63" d="M339.719 257.17H172.281c-8.284 0-15 6.716-15 15v120c0 8.284 6.716 15 15 15h167.438c8.284 0 15-6.716 15-15v-120c0-8.284-6.716-15-15-15z" opacity="1" data-original="#585f63"></path><path fill="#484f53" d="M339.719 257.17H256v150h83.719c8.284 0 15-6.716 15-15v-120c0-8.284-6.716-15-15-15z" opacity="1" data-original="#484f53"></path><path fill="#484f53" d="M279.719 347.17h-47.438c-8.284 0-15-6.716-15-15s6.716-15 15-15h47.438c8.284 0 15 6.716 15 15s-6.716 15-15 15z" opacity="1" data-original="#484f53"></path><path fill="#2e363a" d="M279.719 317.17H256v30h23.719c8.284 0 15-6.716 15-15s-6.716-15-15-15z" opacity="1" data-original="#2e363a"></path></g></svg>