<svg id="SvgjsSvg1102" width="288" height="288" xmlns="http://www.w3.org/2000/svg" version="1.1" xmlns:xlink="http://www.w3.org/1999/xlink" xmlns:svgjs="http://svgjs.com/svgjs"><defs id="SvgjsDefs1103"></defs><g id="SvgjsG1104"><svg xmlns="http://www.w3.org/2000/svg" enable-background="new 0 0 512 512" viewBox="0 0 512 512" width="288" height="288"><path fill="#ffead3" d="M143.7 507c4.4-31.6 17.2-61 17.2-61l-2.3-126.6s-15.7-31-29.4-81.5L109 333.5s.7 71.5-18.7 173.5H47.4S35 426.9 35 383.2c0-47 12.6-74.4 12.6-74.4l21.1-131.3s-4.6-50.4 18.3-74.4 49.6-28.9 49.6-28.9L212 40V5h88v35l75.4 34.1S402.1 79 425 103s18.3 74.4 18.3 74.4l21.1 131.3s12.6 27.5 12.6 74.4c0 43.8-12.4 123.8-12.4 123.8h-42.9C402.3 405 403 333.5 403 333.5l-20.2-95.6c-13.7 50.5-29.4 81.5-29.4 81.5L351.1 446s12.8 29.4 17.2 61z" class="svgShape colorffead3-0 selectable"></path><path fill="#f8bf8d" d="m101 208.7 16.7 83.9 11.5-54.7zM411 208.7l-16.7 83.9-11.5-54.7z" class="svgShape colorf8bf8d-1 selectable"></path><path fill="#f8bf8d" d="m104.667 205.247 28.177 29.232-7.2 6.94-28.177-29.232zM58.4 331.1c-3.2 0-6.5-.7-9.3-2.6-5.4-3.7-7.6-10.5-6.5-20.4l9.9 1.1c-.6 5.7.1 9.6 2.2 11 3.5 2.4 11.8-.6 15.1-2.3l4.7 8.8c-1.1.7-8.5 4.4-16.1 4.4zM208 340.2l-6.1-7.9 3.1 3.9-3.1-3.9c.4-.3 37.5-29.8 49.2-84.4l9.8 2.1c-12.5 58.2-51.2 88.9-52.9 90.2zM172.4 242.7l-3.3-9.5c21.2-7.3 35.7-22.6 43.1-45.2 5.7-17.3 4.8-32.7 4.8-32.9l10-.6c0 .7 1 17.2-5.2 36.2-8.2 25.7-25.3 43.6-49.4 52zM179.354 408.917l8.36 5.49-22.618 34.443-8.36-5.49zM261 110h-10c0-28-48.6-29.8-49.1-29.8l.3-9.9c.6 0 14.4.3 28.5 5.1C250.5 82.1 261 94 261 110zM407.312 205.24l7.2 6.94-28.176 29.232-7.2-6.94zM453.6 331.1c-7.6 0-15-3.8-16.1-4.4l4.7-8.8c4.2 2.2 11.9 4.5 15.1 2.3 2-1.4 2.8-5.3 2.2-11l9.9-1.1c1.1 9.9-1.1 16.7-6.5 20.4-2.8 1.9-6.1 2.6-9.3 2.6z" class="svgShape colorf8bf8d-2 selectable"></path><path fill="#f8bf8d" d="M304 340.2c-1.6-1.3-40.4-31.9-52.9-90.2l9.8-2.1c11.7 54.6 48.9 84.1 49.2 84.4zM339.6 242.7c-24.1-8.3-41.2-26.3-49.5-51.9-6.1-19.1-5.2-35.6-5.2-36.2l10 .6-5-.3 5 .3c0 .2-.8 15.6 4.8 32.9 7.4 22.7 21.9 37.9 43.1 45.2zM332.585 408.872l22.619 34.444-8.36 5.49-22.619-34.444zM261 110h-10c0-16 10.5-27.9 30.4-34.6 14-4.8 27.9-5.1 28.5-5.1l.3 10-.1-5 .1 4.8c-.6.1-49.2 1.9-49.2 29.9z" class="svgShape colorf8bf8d-3 selectable"></path><path fill="#f8bf8d" d="M251 110h10v139h-10zM216.117 408.713l18.438 29.033-8.44 5.36-18.438-29.033zM295.95 408.822l8.44 5.36-18.438 29.034-8.44-5.36z" class="svgShape colorf8bf8d-4 selectable"></path><path fill="#ff1313" d="M256 209c0 117.1-34.6 175.1-34.6 175.1L159 319.6v-.2s-15.9-31-29.6-81.5l-.1.1-28.3-29zM256 209c0 117.1 34.6 175.1 34.6 175.1l62.4-64.6v-.2s15.9-31 29.6-81.5l.1.1L411 209z" class="svgShape colorb5e1e8-5 selectable"></path></svg></g></svg>