<svg xmlns="http://www.w3.org/2000/svg" version="1.1" xmlns:xlink="http://www.w3.org/1999/xlink" width="512" height="512" x="0" y="0" viewBox="0 0 512 512" style="enable-background:new 0 0 512 512" xml:space="preserve" class=""><g><g fill="#dff6fd"><path d="M389.777 208.468h-24.821a7.726 7.726 0 1 1 0-15.452h24.821a7.726 7.726 0 1 1 0 15.452zM147.044 208.468h-24.821a7.726 7.726 0 1 1 0-15.452h24.821a7.726 7.726 0 1 1 0 15.452zM237.509 25.821h36.982v459.77h-36.982z" fill="#a4a4a4" opacity="1" data-original="#dff6fd" class=""></path></g><path fill="#a4a4a4" d="M253.887 25.821h20.604v459.77h-20.604z" opacity="1" data-original="#bedef4" class=""></path><path fill="#648b96" d="M331.6 247.953v14.057c0 6.94 5.626 12.566 12.566 12.566h45.61v-39.19h-45.61c-6.94 0-12.566 5.626-12.566 12.567zM180.4 247.953v14.057c0 6.94-5.626 12.566-12.566 12.566h-45.61v-39.19h45.61c6.94 0 12.566 5.626 12.566 12.567z" opacity="1" data-original="#678d98" class=""></path><path fill="#a4a4a4" d="M389.777 278.182a7.726 7.726 0 0 1-7.726-7.726V170.41a22.475 22.475 0 0 0-6.281-15.625l-48.989-51.089A27.842 27.842 0 0 1 319 84.338V25.821a7.726 7.726 0 1 1 15.452 0v58.518c0 3.244 1.236 6.321 3.482 8.662l48.989 51.089a37.86 37.86 0 0 1 10.58 26.32v100.045a7.726 7.726 0 0 1-7.726 7.727zM122.223 278.182a7.726 7.726 0 0 1-7.726-7.726V170.41a37.858 37.858 0 0 1 10.58-26.32l48.989-51.089a12.457 12.457 0 0 0 3.482-8.662V25.821a7.726 7.726 0 1 1 15.452 0v58.518c0 7.25-2.764 14.125-7.781 19.358l-48.989 51.089a22.475 22.475 0 0 0-6.281 15.625v100.045a7.726 7.726 0 0 1-7.726 7.726z" opacity="1" data-original="#dff6fd" class=""></path><path fill="#648b96" d="M193.598 400.721v17.242a5.212 5.212 0 0 0 5.212 5.212h114.38a5.213 5.213 0 0 0 5.213-5.212v-17.242c0-10.615-8.605-19.22-19.22-19.22h-86.365c-10.615 0-19.22 8.605-19.22 19.22z" opacity="1" data-original="#678d98" class=""></path><path fill="#648b96" d="M299.183 381.501h-22.664c10.615 0 19.22 8.605 19.22 19.22v17.242a5.212 5.212 0 0 1-5.213 5.212h22.664a5.213 5.213 0 0 0 5.213-5.212v-17.242c-.001-10.615-8.606-19.22-19.22-19.22z" opacity="1" data-original="#4e737c" class=""></path><path fill="#648b96" d="M276.387 197.059h-40.774a20.157 20.157 0 0 0-19.708 15.925l-11.818 55.031a33.986 33.986 0 0 0-.757 7.131v51.688a9.572 9.572 0 0 0 9.572 9.572H299.1a9.572 9.572 0 0 0 9.572-9.572v-51.688c0-2.397-.254-4.788-.757-7.131l-11.818-55.031a20.162 20.162 0 0 0-19.71-15.925z" opacity="1" data-original="#678d98" class=""></path><path fill="#648b96" d="m307.914 268.015-11.818-55.031a20.158 20.158 0 0 0-19.708-15.925h-22.664a20.157 20.157 0 0 1 19.708 15.925l11.818 55.031c.503 2.344.757 4.734.757 7.131v51.688a9.572 9.572 0 0 1-9.572 9.572h22.664a9.572 9.572 0 0 0 9.572-9.572v-51.688c0-2.397-.254-4.787-.757-7.131z" opacity="1" data-original="#4e737c" class=""></path><path fill="#d1636a" d="M134.633 484.685v17.013c0 5.69 4.612 10.302 10.302 10.302h222.13c5.69 0 10.302-4.612 10.302-10.302v-17.013c0-5.69-4.612-10.302-10.302-10.302h-222.13c-5.689.001-10.302 4.613-10.302 10.302z" opacity="1" data-original="#fd8087" class=""></path><path fill="#d1636a" d="M367.065 474.384h-22.664c5.69 0 10.302 4.612 10.302 10.302v17.013c0 5.69-4.612 10.302-10.302 10.302h22.664c5.69 0 10.302-4.612 10.302-10.302v-17.013c0-5.69-4.613-10.302-10.302-10.302z" opacity="1" data-original="#ee6161" class=""></path><path fill="#648b96" d="M128.058 20.294v16.985a7.352 7.352 0 0 0 7.352 7.352h241.18a7.352 7.352 0 0 0 7.352-7.352V20.294C383.942 9.086 374.856 0 363.648 0H148.352c-11.208 0-20.294 9.086-20.294 20.294z" opacity="1" data-original="#678d98" class=""></path><path fill="#648b96" d="M363.648 0h-23c11.208 0 20.294 9.086 20.294 20.294v16.984a7.352 7.352 0 0 1-7.352 7.352h23a7.352 7.352 0 0 0 7.352-7.352V20.294C383.942 9.086 374.856 0 363.648 0z" opacity="1" data-original="#4e737c" class=""></path></g></svg>