<svg id="SvgjsSvg1123" width="288" height="288" xmlns="http://www.w3.org/2000/svg" version="1.1" xmlns:xlink="http://www.w3.org/1999/xlink" xmlns:svgjs="http://svgjs.com/svgjs"><defs id="SvgjsDefs1124"></defs><g id="SvgjsG1125"><svg xmlns="http://www.w3.org/2000/svg" enable-background="new 0 0 512 512" viewBox="0 0 512 512" width="288" height="288"><path fill="#ffead3" d="M126.2 5s-23.7 104.8-23.7 141.4c0 24.4 13.4 37.7 13.4 37.7l2.2 35.3s-15.5 26.5-15.5 69.4c0 45.6 14.4 111.1 14.4 129.8s-71 64.5-71 64.5V507h106.7c13.9 0 24.4-12.6 21.9-26.2-5.2-28.5-17.5-40.4-15-56.8 3.1-20.8 7-77.1 17.3-87.3 10.1-10.1 19.1-56.1 6.6-107.1l31.7-80.5s25.1-50.9 35.4-144H126.2z" class="svgShape colorffead3-0 selectable"></path><path fill="#ff1313" d="M227.8 5s-27.4 200.2-62.1 187.9c-16.8-6-24.9-20.7-28.6-36.6L116 184.2s-13.3-13.3-13.3-37.8C102.6 109.8 126.2 5 126.2 5z" class="svgShape colorb5e1e8-1 selectable"></path><path fill="#f8bf8d" d="M130.4 242.4c-.9 0-1.6-.1-2.3-.2-8-1.4-13.5-9.5-14.9-22.1l9.9-1.2c1 8.7 4.1 13 6.7 13.4 3.3.6 9.1-3.9 14.6-15.1l9 4.4c-8.5 17.4-17.4 20.8-23 20.8zM174.01 332.586l5.89 8.08-27.877 20.32-5.89-8.08zM126.7 512H97c-2.8 0-5-2.2-5-5v-16.9c0-1.3.5-2.6 1.5-3.5l16.9-16.9 7.1 7.1-15.5 15.4v9.8h21.5l6.5-14 9.1 4.2-7.9 16.9c-.8 1.8-2.5 2.9-4.5 2.9zM72 490h10v17H72zM55 490h10v17H55z" class="svgShape colorf8bf8d-2 selectable"></path><path fill="#ffead3" d="M385.8 5s23.7 104.8 23.7 141.4c0 24.4-13.4 37.7-13.4 37.7l-2.2 35.3s15.5 26.5 15.5 69.4c0 45.6-14.4 111.1-14.4 129.8s71 64.5 71 64.5V507H359.3c-13.9 0-24.4-12.6-21.9-26.2 5.2-28.5 17.5-40.4 15-56.8-3.1-20.8-7-77.1-17.3-87.3-10.1-10.1-19.1-56.1-6.6-107.1L296.9 149S271.8 98.1 261.5 5z" class="svgShape colorffead3-3 selectable"></path><path fill="#ff1313" d="M284.2 5s27.4 200.2 62.1 187.9c16.8-6 24.9-20.7 28.6-36.6l21.1 27.9s13.3-13.3 13.3-37.8C409.4 109.8 385.8 5 385.8 5z" class="svgShape colorb5e1e8-4 selectable"></path><path fill="#f8bf8d" d="M381.6 242.4c-5.6 0-14.4-3.4-23-20.7l9-4.4c5.5 11.2 11.3 15.7 14.6 15.1 2.6-.5 5.7-4.8 6.7-13.4l9.9 1.2c-1.5 12.7-6.9 20.7-14.9 22.1-.7 0-1.5.1-2.3.1zM337.971 332.589l27.876 20.32-5.89 8.08-27.876-20.32zM415 512h-29.7c-1.9 0-3.7-1.1-4.5-2.9l-7.9-16.9 9.1-4.2 6.5 14H410v-9.8l-15.4-15.4 7.1-7.1 16.9 16.9c.9.9 1.5 2.2 1.5 3.5V507c-.1 2.8-2.3 5-5.1 5zM430 490h10v17h-10zM447 490h10v17h-10z" class="svgShape colorf8bf8d-5 selectable"></path></svg></g></svg>