<?xml version="1.0" encoding="UTF-8"?>
<svg version="1.1" xmlns="http://www.w3.org/2000/svg" width="288" height="288">
<path d="M0 0 C11.8836889 9.35309076 17.03528582 24.85875166 19.421875 39.296875 C19.76515916 42.25221075 19.76650013 45.03651989 19.57421875 48.00390625 C18.53357697 65.15179986 22.76679564 80.56588214 27.12467957 96.97694397 C34.58220752 125.35217276 34.58220752 125.35217276 30.46508789 132.93920898 C29.92489014 133.75977783 29.38469238 134.58034668 28.828125 135.42578125 C24.94837257 142.26090591 24.84319906 148.57991216 24.66796875 156.3046875 C24.55396615 159.15974726 24.41518155 162.01338455 24.2734375 164.8671875 C24.23936295 165.58787918 24.20528839 166.30857086 24.17018127 167.05110168 C23.13507962 187.49941507 19.26011736 207.83368854 15.26098633 227.87792969 C14.85916053 230.12245272 14.62748703 232.29710724 14.44921875 234.56640625 C13.79296875 237.4921875 13.79296875 237.4921875 11.7109375 239.171875 C10.80988281 239.56632813 9.90882813 239.96078125 8.98046875 240.3671875 C4.61237831 242.42174821 0.98681258 244.74701518 -2.7890625 247.74609375 C-8.89334132 252.39625507 -15.23667746 256.07117303 -22.08203125 259.5546875 C-23.25241943 260.15321533 -24.42280762 260.75174316 -25.62866211 261.3684082 C-72.76467028 285.15181781 -121.35229654 277.51437786 -171.41992188 267.671875 C-187.09262578 264.59197152 -202.52752526 264.23520879 -218.45703125 263.9296875 C-220.57031954 263.88641031 -222.68360091 263.84279338 -224.796875 263.79882812 C-229.9335222 263.69269544 -235.07024145 263.59116777 -240.20703125 263.4921875 C-241.5939942 259.0089292 -242.48996943 254.95946917 -242.8125 250.25390625 C-242.90982422 249.10341797 -243.00714844 247.95292969 -243.10742188 246.76757812 C-243.29777781 244.38877646 -243.46986727 242.00843769 -243.62304688 239.62695312 C-244.29814909 232.11696508 -245.85265926 227.42597106 -250.6418457 221.54638672 C-254.31924831 216.72004675 -253.23074853 210.97780459 -252.55859375 205.3125 C-252.20703125 203.4921875 -252.20703125 203.4921875 -251.20703125 202.4921875 C-249.50139347 202.33478145 -247.78975881 202.24125358 -246.078125 202.17578125 C-244.52641602 202.11293945 -244.52641602 202.11293945 -242.94335938 202.04882812 C-241.85474609 202.00951172 -240.76613281 201.97019531 -239.64453125 201.9296875 C-238.00581055 201.86491211 -238.00581055 201.86491211 -236.33398438 201.79882812 C-233.62513561 201.69236682 -230.91619133 201.59035234 -228.20703125 201.4921875 C-227.87703125 200.8321875 -227.54703125 200.1721875 -227.20703125 199.4921875 C-226.54703125 199.4921875 -225.88703125 199.4921875 -225.20703125 199.4921875 C-224.95953125 198.6053125 -224.71203125 197.7184375 -224.45703125 196.8046875 C-223.10946037 193.23362467 -222.06343502 191.03979086 -219.20703125 188.4921875 C-213.14768451 188.88978243 -207.34529437 190.66860211 -201.51953125 192.3046875 C-200.11477539 192.6769043 -200.11477539 192.6769043 -198.68164062 193.05664062 C-189.78742042 195.55159319 -189.78742042 195.55159319 -187.20703125 199.4921875 C-185.89815437 202.85898899 -185.03734672 206.33009618 -184.140625 209.82421875 C-183.09273142 213.81827294 -183.09273142 213.81827294 -180.5234375 216.9140625 C-177.25368689 217.73012168 -173.98732967 218.23622841 -170.64453125 218.6171875 C-169.56836548 218.7423877 -169.56836548 218.7423877 -168.47045898 218.87011719 C-143.68773592 221.593188 -123.35187362 215.21194347 -101.36132812 204.3762207 C-87.79154584 197.72691361 -74.12683873 192.2325603 -59.20703125 189.4921875 C-58.46710938 189.35039062 -57.7271875 189.20859375 -56.96484375 189.0625 C-53.8893678 188.53928625 -52.22497448 188.48620642 -49.20703125 189.4921875 C-49.78710938 188.07292969 -49.78710938 188.07292969 -50.37890625 186.625 C-58.1981076 166.99397422 -60.87414043 147.30112951 -61.4765625 126.25390625 C-61.49712204 125.53740906 -61.51768158 124.82091187 -61.53886414 124.08270264 C-61.63752215 120.49910633 -61.71959319 116.91602083 -61.77807617 113.33154297 C-61.80619385 112.01428223 -61.83431152 110.69702148 -61.86328125 109.33984375 C-61.88197266 108.16429932 -61.90066406 106.98875488 -61.91992188 105.77758789 C-62.43829891 99.84578533 -64.77102986 95.28501101 -67.58203125 90.1171875 C-77.97146497 70.20995307 -78.66348313 46.17728331 -72.10546875 24.921875 C-66.89006159 11.76558984 -59.32440406 1.82596554 -46.39453125 -4.21875 C-30.40869732 -10.68360931 -14.4374366 -9.86345226 0 0 Z " fill="#FDE9D2" transform="translate(254.20703125,9.5078125)"/>
<path d="M0 0 C0 1.65 0 3.3 0 5 C-0.65484375 5.32871094 -1.3096875 5.65742188 -1.984375 5.99609375 C-7.21443724 8.72193127 -11.9526298 11.62367284 -16.5859375 15.28125 C-22.70324594 19.92071269 -29.04224373 23.58539625 -35.875 27.0625 C-37.04538818 27.66102783 -38.21577637 28.25955566 -39.42163086 28.8762207 C-89.76865953 54.27981451 -142.91826118 43.92133176 -196 33 C-195.67 32.34 -195.34 31.68 -195 31 C-194.04637573 31.00666183 -194.04637573 31.00666183 -193.07348633 31.01345825 C-186.32228904 31.05847525 -179.57113579 31.08818277 -172.81982422 31.10986328 C-170.31622582 31.11978423 -167.81263855 31.1333252 -165.30908203 31.15087891 C-144.78496035 31.29094718 -124.26378471 30.8500186 -104 27.25 C-103.02981934 27.08153564 -102.05963867 26.91307129 -101.06005859 26.73950195 C-84.70115347 23.78679718 -68.840701 19.83140688 -53.484375 13.41796875 C-50 12 -50 12 -47.86035156 11.55981445 C-47.24643555 11.37507568 -46.63251953 11.19033691 -46 11 C-45.38125 9.824375 -45.38125 9.824375 -44.75 8.625 C-41.97478633 4.4621795 -37.41699841 3.54812136 -32.71337891 2.48144531 C-30.29328938 2.03647576 -27.8735924 1.65912359 -25.4375 1.3125 C-24.57286133 1.18512451 -23.70822266 1.05774902 -22.81738281 0.92651367 C-15.16894611 -0.12433586 -7.70992338 -0.31540596 0 0 Z " fill="#F5BE8F" transform="translate(268,242)"/>
<path d="M0 0 C12.95167011 0.57308275 23.66761776 4.24032276 32.67578125 13.7734375 C44.81092963 28.6366425 47.19422857 47.05800006 47.0625 65.5 C47.05798828 66.70398438 47.05347656 67.90796875 47.04882812 69.1484375 C47.0371195 72.09901073 47.02071995 75.04947859 47 78 C46.34 78 45.68 78 45 78 C44.9175 78.66 44.835 79.32 44.75 80 C43.74112611 84.03549556 42.54509816 87.66292265 40 91 C36.6875 92.375 36.6875 92.375 33 92 C27.30475706 88.78995398 24.79018577 84.283112 21.875 78.5625 C21.56248291 77.94963135 21.24996582 77.3367627 20.92797852 76.70532227 C15.30351831 64.97656922 12.12524728 52.19161933 9 39.625 C8.31662458 36.90780023 7.6284957 34.1918339 6.9375 31.4765625 C6.7712915 30.82286682 6.60508301 30.16917114 6.43383789 29.4956665 C4.77614107 23.03068999 2.85786413 16.66389388 0.8125 10.3125 C-0.05828942 6.76235853 -0.14862906 3.64141202 0 0 Z " fill="#FB1514" transform="translate(227,1)"/>
<path d="M0 0 C2.475 0.495 2.475 0.495 5 1 C5 2.65 5 4.3 5 6 C3.68 6.33 2.36 6.66 1 7 C1 7.66 1 8.32 1 9 C0.34 9 -0.32 9 -1 9 C-1.24878906 9.68707031 -1.49757813 10.37414062 -1.75390625 11.08203125 C-2.93132714 13.83918925 -4.32418639 16.34272594 -5.86889648 18.90844727 C-12.23144094 29.50105898 -14.43571131 38.58564874 -15 51 C-16.98 51 -18.96 51 -21 51 C-21.65530854 33.88916594 -15.67397684 19.65830116 -5.75 5.875 C-5.1725 5.25625 -4.595 4.6375 -4 4 C-3.34 4 -2.68 4 -2 4 C-1.34 2.68 -0.68 1.36 0 0 Z " fill="#F3C296" transform="translate(274,151)"/>
<path d="M0 0 C0 1.65 0 3.3 0 5 C-4.85155006 6.94062002 -8.81720598 7 -14 7 C-14.85851562 7.30679688 -15.71703125 7.61359375 -16.6015625 7.9296875 C-21.15496199 9.36374665 -25.63454077 9.71249214 -30.375 10.125 C-31.30183594 10.21136719 -32.22867188 10.29773438 -33.18359375 10.38671875 C-35.45522701 10.59748885 -37.72724727 10.80173181 -40 11 C-40 11.66 -40 12.32 -40 13 C-40.99 13 -41.98 13 -43 13 C-43 12.34 -43 11.68 -43 11 C-43.66 11 -44.32 11 -45 11 C-44.42655063 8.13275314 -44.1385485 7.1385485 -42 5 C-28.29277455 0.79532962 -14.23836975 -0.3589505 0 0 Z " fill="#F9CEAB" transform="translate(268,242)"/>
<path d="M0 0 C6.93 0.33 13.86 0.66 21 1 C21 2.98 21 4.96 21 7 C14.07 7 7.14 7 0 7 C-1 2 -1 2 0 0 Z " fill="#F6BE8F" transform="translate(27,209)"/>
<path d="M0 0 C8.05364285 -0.33608711 14.49783264 -0.0517291 22 3 C21.67 4.65 21.34 6.3 21 8 C14.4 7.34 7.8 6.68 1 6 C0.67 4.02 0.34 2.04 0 0 Z " fill="#F4C296" transform="translate(206,196)"/>
<path d="M0 0 C-2.98023535 2.5376946 -5.21101025 3.46415393 -9.0625 4.0625 C-12.52808886 4.60969824 -13.99440907 4.99627272 -17 7 C-19.7421875 7.44921875 -19.7421875 7.44921875 -22.875 7.6875 C-23.90367187 7.77386719 -24.93234375 7.86023438 -25.9921875 7.94921875 C-28.84629667 7.99740501 -31.23740442 7.6779063 -34 7 C-34 6.67 -34 6.34 -34 6 C-33.2471875 5.90203125 -32.494375 5.8040625 -31.71875 5.703125 C-24.47741201 4.68371334 -17.52182242 3.24524702 -10.47070312 1.32128906 C-6.89172044 0.36797494 -3.70697848 -0.21386414 0 0 Z " fill="#F0C299" transform="translate(197,263)"/>
<path d="M0 0 C6.93 0.33 13.86 0.66 21 1 C21 2.98 21 4.96 21 7 C14.07 7 7.14 7 0 7 C-1 2 -1 2 0 0 Z M2 2 C1.67 2.99 1.34 3.98 1 5 C4.76300374 6.25433458 8.27210909 6.10695422 12.1875 6.0625 C13.31188477 6.05573242 13.31188477 6.05573242 14.45898438 6.04882812 C16.30602383 6.03706354 18.15302213 6.01912865 20 6 C20 4.68 20 3.36 20 2 C14.06 2 8.12 2 2 2 Z " fill="#F4C8A2" transform="translate(27,209)"/>
<path d="M0 0 C-0.99 0.495 -0.99 0.495 -2 1 C-2 1.66 -2 2.32 -2 3 C1.63 3 5.26 3 9 3 C9 3.66 9 4.32 9 5 C6.29139876 4.85823579 3.58319248 4.71171784 0.875 4.5625 C-0.26582031 4.50352539 -0.26582031 4.50352539 -1.4296875 4.44335938 C-5.68509203 4.20490998 -9.80370826 3.79769763 -14 3 C-14 2.67 -14 2.34 -14 2 C-9.07262981 0.02905192 -5.21979128 -0.1799928 0 0 Z " fill="#F0BE9B" transform="translate(147,282)"/>
<path d="M0 0 C0.99 0 1.98 0 3 0 C2.54738642 1.43931117 2.08767021 2.87638999 1.625 4.3125 C1.36976563 5.11300781 1.11453125 5.91351563 0.8515625 6.73828125 C0 9 0 9 -2 12 C-5.3125 13 -5.3125 13 -9 13 C-11.9375 10.5625 -11.9375 10.5625 -14 8 C-13.29875 8.309375 -12.5975 8.61875 -11.875 8.9375 C-8.91063343 10.03302678 -6.12301892 10.56422992 -3 11 C-3.33 10.01 -3.66 9.02 -4 8 C-3.01 8 -2.02 8 -1 8 C-0.67 5.36 -0.34 2.72 0 0 Z " fill="#E82B2C" transform="translate(269,80)"/>
<path d="M0 0 C8.88838428 0.88883843 15.99819282 5.51932522 22 12 C22 12.66 22 13.32 22 14 C21.01 14 20.02 14 19 14 C18.61199219 13.26394531 18.22398437 12.52789062 17.82421875 11.76953125 C15.24440567 7.85285571 11.98960129 6.61006103 7.8125 4.6875 C7.06291016 4.32849609 6.31332031 3.96949219 5.54101562 3.59960938 C3.70010734 2.72019459 1.85083446 1.85832714 0 1 C0 0.67 0 0.34 0 0 Z " fill="#DB2A2B" transform="translate(238,3)"/>
<path d="M0 0 C1.79133978 -0.05391993 3.58313899 -0.09275571 5.375 -0.125 C6.37273437 -0.14820313 7.37046875 -0.17140625 8.3984375 -0.1953125 C11 0 11 0 13 2 C8.57756501 4.56786548 5.48856529 3.71809676 0.79296875 2.5078125 C0.20128906 2.34023438 -0.39039062 2.17265625 -1 2 C-0.67 1.34 -0.34 0.68 0 0 Z " fill="#EECCA6" transform="translate(73,273)"/>
<path d="M0 0 C2.64 0 5.28 0 8 0 C8 0.66 8 1.32 8 2 C5.8125 3.7265625 5.8125 3.7265625 3 5.625 C2.071875 6.25664062 1.14375 6.88828125 0.1875 7.5390625 C-0.534375 8.02117187 -1.25625 8.50328125 -2 9 C-2.66 8.67 -3.32 8.34 -4 8 C-2.625 6.5 -2.625 6.5 -1 5 C-0.34 5 0.32 5 1 5 C0.67 3.35 0.34 1.7 0 0 Z " fill="#EEC09A" transform="translate(254,248)"/>
<path d="M0 0 C1.6396875 0.0928125 1.6396875 0.0928125 3.3125 0.1875 C2.6525 0.8475 1.9925 1.5075 1.3125 2.1875 C2.9625 2.5175 4.6125 2.8475 6.3125 3.1875 C6.3125 3.8475 6.3125 4.5075 6.3125 5.1875 C2.0225 4.5275 -2.2675 3.8675 -6.6875 3.1875 C-3.6875 0.1875 -3.6875 0.1875 0 0 Z " fill="#EEBF9A" transform="translate(89.6875,273.8125)"/>
<path d="M0 0 C3.02788635 3.46044155 4.98556464 7.52249221 6 12 C5.578125 14.25 5.578125 14.25 5 16 C2.79427771 12.64346608 1.65847618 9.95085709 1 6 C0.67 5.67 0.34 5.34 0 5 C-0.04063832 3.33382885 -0.042721 1.66611905 0 0 Z " fill="#E11B1C" transform="translate(265,25)"/>
<path d="M0 0 C4.42857143 5.14285714 4.42857143 5.14285714 5 9 C4.34 9 3.68 9 3 9 C3 8.01 3 7.02 3 6 C2.401875 5.896875 1.80375 5.79375 1.1875 5.6875 C-1.28243264 4.91123545 -2.32251235 3.92911079 -4 2 C-2.68 1.34 -1.36 0.68 0 0 Z " fill="#EA191A" transform="translate(260,16)"/>
<path d="M0 0 C0.66 0.33 1.32 0.66 2 1 C-3.94 6.445 -3.94 6.445 -10 12 C-10 9 -10 9 -8.57421875 7.24609375 C-7.95160156 6.64925781 -7.32898438 6.05242188 -6.6875 5.4375 C-6.07261719 4.83808594 -5.45773438 4.23867187 -4.82421875 3.62109375 C-3 2 -3 2 0 0 Z " fill="#FAECDD" transform="translate(202,8)"/>
<path d="M0 0 C2.625 0.375 2.625 0.375 5 1 C5 2.65 5 4.3 5 6 C3.68 6.33 2.36 6.66 1 7 C1 5.68 1 4.36 1 3 C0.01 2.67 -0.98 2.34 -2 2 C-1.34 1.34 -0.68 0.68 0 0 Z " fill="#EFC7A3" transform="translate(274,151)"/>
<path d="M0 0 C-1.41519715 2.0343459 -2.54982123 2.90410393 -4.98046875 3.421875 C-6.98176954 3.66273952 -8.9909944 3.83532741 -11 4 C-11.33 3.34 -11.66 2.68 -12 2 C-10.56656 1.46809459 -9.12804633 0.94984742 -7.6875 0.4375 C-6.48673828 0.00244141 -6.48673828 0.00244141 -5.26171875 -0.44140625 C-3 -1 -3 -1 0 0 Z " fill="#F0C39A" transform="translate(214,258)"/>
<path d="M0 0 C0.66 0 1.32 0 2 0 C1.45269624 3.92234364 0.82170566 7.45779454 -1 11 C-1.99 11.33 -2.98 11.66 -4 12 C-2.66666667 8 -1.33333333 4 0 0 Z " fill="#FDC5B1" transform="translate(272,79)"/>
<path d="M0 0 C0.6875 1.625 0.6875 1.625 1 4 C-1.33333333 9.66666667 -1.33333333 9.66666667 -4 11 C-3.48964169 6.6109185 -2.47785723 3.66291938 0 0 Z " fill="#FEE2C0" transform="translate(265,174)"/>
<path d="M0 0 C0.33 0 0.66 0 1 0 C2.13764351 4.26616316 3 7.56486311 3 12 C2.01 11.67 1.02 11.34 0 11 C0 7.37 0 3.74 0 0 Z " fill="#FDBDAD" transform="translate(226,2)"/>
<path d="M0 0 C1.32 0 2.64 0 4 0 C4 1.65 4 3.3 4 5 C2.68 5.33 1.36 5.66 0 6 C0 5.34 0 4.68 0 4 C0.66 4 1.32 4 2 4 C2 3.01 2 2.02 2 1 C1.34 0.67 0.68 0.34 0 0 Z " fill="#F0D1B6" transform="translate(264,242)"/>
<path d="M0 0 C3.375 -0.125 3.375 -0.125 7 0 C7.66 0.66 8.32 1.32 9 2 C7.35 2 5.7 2 4 2 C4 2.66 4 3.32 4 4 C2.68 3.34 1.36 2.68 0 2 C0 1.34 0 0.68 0 0 Z " fill="#F7171A" transform="translate(231,3)"/>
<path d="" fill="#FFFFFF" transform="translate(0,0)"/>
<path d="" fill="#FFFFFF" transform="translate(0,0)"/>
<path d="" fill="#FFFFFF" transform="translate(0,0)"/>
<path d="" fill="#FFFFFF" transform="translate(0,0)"/>
<path d="" fill="#FFFFFF" transform="translate(0,0)"/>
<path d="" fill="#FFFFFF" transform="translate(0,0)"/>
<path d="" fill="#FFFFFF" transform="translate(0,0)"/>
<path d="" fill="#FFFFFF" transform="translate(0,0)"/>
<path d="" fill="#FFFFFF" transform="translate(0,0)"/>
<path d="" fill="#FFFFFF" transform="translate(0,0)"/>
<path d="" fill="#FFFFFF" transform="translate(0,0)"/>
<path d="" fill="#FFFFFF" transform="translate(0,0)"/>
<path d="" fill="#FFFFFF" transform="translate(0,0)"/>
<path d="" fill="#FFFFFF" transform="translate(0,0)"/>
<path d="" fill="#FFFFFF" transform="translate(0,0)"/>
<path d="" fill="#FFFFFF" transform="translate(0,0)"/>
<path d="" fill="#FFFFFF" transform="translate(0,0)"/>
<path d="" fill="#FFFFFF" transform="translate(0,0)"/>
<path d="" fill="#FFFFFF" transform="translate(0,0)"/>
<path d="" fill="#FFFFFF" transform="translate(0,0)"/>
<path d="" fill="#FFFFFF" transform="translate(0,0)"/>
<path d="" fill="#FFFFFF" transform="translate(0,0)"/>
<path d="" fill="#FFFFFF" transform="translate(0,0)"/>
<path d="" fill="#FFFFFF" transform="translate(0,0)"/>
<path d="" fill="#FFFFFE" transform="translate(0,0)"/>
<path d="" fill="#FFFFFF" transform="translate(0,0)"/>
<path d="" fill="#FFFFFF" transform="translate(0,0)"/>
<path d="" fill="#FFFFFF" transform="translate(0,0)"/>
<path d="" fill="#FFFFFF" transform="translate(0,0)"/>
<path d="" fill="#FFFFFF" transform="translate(0,0)"/>
<path d="" fill="#FFFFFF" transform="translate(0,0)"/>
<path d="" fill="#FFFFFF" transform="translate(0,0)"/>
<path d="" fill="#FFFFFF" transform="translate(0,0)"/>
<path d="" fill="#FFFFFF" transform="translate(0,0)"/>
<path d="" fill="#FFFFFF" transform="translate(0,0)"/>
<path d="" fill="#FFFFFF" transform="translate(0,0)"/>
<path d="" fill="#FFFFFF" transform="translate(0,0)"/>
<path d="" fill="#FFFFFF" transform="translate(0,0)"/>
<path d="" fill="#FFFFFF" transform="translate(0,0)"/>
<path d="" fill="#FFFFFF" transform="translate(0,0)"/>
<path d="" fill="#FFFFFF" transform="translate(0,0)"/>
<path d="" fill="#FFFFFF" transform="translate(0,0)"/>
<path d="" fill="#FFFFFF" transform="translate(0,0)"/>
<path d="" fill="#FFFFFF" transform="translate(0,0)"/>
</svg>
