<svg xmlns="http://www.w3.org/2000/svg" version="1.1" xmlns:xlink="http://www.w3.org/1999/xlink" width="512" height="512" x="0" y="0" viewBox="0 0 64 64" style="enable-background:new 0 0 512 512" xml:space="preserve" class=""><g><path fill="#3f4042" d="M17 54v-9H2v14h60v-5z" opacity="1" data-original="#3f4042"></path><path fill="#5a5b5d" d="M17 45H2v12h60v-3H17z" opacity="1" data-original="#5a5b5d"></path><path fill="#969696" d="M2 45h15v14H2z" opacity="1" data-original="#969696"></path><path fill="#777777" d="M44.007 44.658 37 54h5l3.28-4.373z" opacity="1" data-original="#777777"></path><path fill="#5a5b5d" d="M38.75 54H42l3.28-4.373-.828-3.23z" opacity="1" data-original="#5a5b5d"></path><path fill="#969696" d="m28.115 33.336.724-1.863 19.08 7.41-.724 1.864z" opacity="1" data-original="#969696"></path><path fill="#52a04f" d="M5.547 45.001a9.3 9.3 0 0 1-3.446-8.68l1.847-12.462A5.236 5.236 0 0 1 9 20l.513-1.538 4.487.196V21c1.226.613 2 1.866 2 3.236V40l7.262-2.723a4.347 4.347 0 0 1 5.039 1.512L35 48l3.226-3.226a2.642 2.642 0 0 1 4.377 1.033l.167.5-5.708 7.61a3.229 3.229 0 0 1-3.008-.863L32 51l-3.571-2.976A11.115 11.115 0 0 1 25 43l-6.597 2.582c-.461.192-.929.365-1.403.519z" opacity="1" data-original="#52a04f"></path><path fill="#6db569" d="M42.602 45.807a2.642 2.642 0 0 0-4.376-1.033L35 48l-6.699-9.211a4.343 4.343 0 0 0-5.038-1.512L16 40V24.236c0-1.37-.774-2.623-2-3.236v-2.342l-2.516-.11L11 20a5.236 5.236 0 0 0-5.052 3.859L4.101 36.321A9.307 9.307 0 0 0 7.547 45l9.865.948c.332-.117.665-.231.99-.366L25 43a11.115 11.115 0 0 0 3.429 5.024L32 51l2.054 2.054a3.229 3.229 0 0 0 3.008.864l5.708-7.61z" opacity="1" data-original="#6db569"></path><path fill="#1d549c" d="M42.602 45.807a2.642 2.642 0 0 0-4.376-1.033L35 48l-6.699-9.211a4.343 4.343 0 0 0-5.038-1.512L16 40H2.298a9.32 9.32 0 0 0 3.249 5.001L17 46.101c.474-.154.942-.327 1.403-.519L25 43a11.115 11.115 0 0 0 3.429 5.024L32 51l2.054 2.054a3.229 3.229 0 0 0 3.008.864l5.708-7.61z" opacity="1" data-original="#1d549c"></path><path fill="#2b6bb2" d="M42.602 45.807a2.642 2.642 0 0 0-4.376-1.033L35 48l-6.699-9.211a4.343 4.343 0 0 0-5.038-1.512L16 40H4.298a9.32 9.32 0 0 0 3.249 5.001l9.865.948c.332-.117.665-.231.99-.366L25 43a11.115 11.115 0 0 0 3.429 5.024L32 51l2.054 2.054a3.229 3.229 0 0 0 3.008.864l5.708-7.61z" opacity="1" data-original="#2b6bb2"></path><path fill="#969696" d="M42.602 45.807a2.642 2.642 0 0 0-4.376-1.033L35 48l-2.571 3.429 1.625 1.625a3.229 3.229 0 0 0 3.008.864l5.708-7.61z" opacity="1" data-original="#969696"></path><path fill="#d69578" d="M11.797 22c.771 0 1.51-.306 2.055-.851L14 21v-2.342l-4.487-.197L9 20l.197.393a2.906 2.906 0 0 0 2.6 1.607z" opacity="1" data-original="#d69578"></path><path fill="#e8a989" d="M12 5a6 6 0 0 0-6 6v2a6 6 0 1 0 12 0v-2a6 6 0 0 0-6-6z" opacity="1" data-original="#e8a989"></path><path fill="#f6bb95" d="M12 5a5.974 5.974 0 0 0-3.71 1.29A5.976 5.976 0 0 0 7 10v2a6 6 0 0 0 6 6 5.974 5.974 0 0 0 3.71-1.29A5.972 5.972 0 0 0 18 13v-2a6 6 0 0 0-6-6z" opacity="1" data-original="#f6bb95"></path><path fill="#3f4042" d="M11 11h7a6 6 0 1 0-12 0v2a5.993 5.993 0 0 0 2.73 5.027L11 15z" opacity="1" data-original="#3f4042"></path><path fill="#5a5b5d" d="M12 5a5.974 5.974 0 0 0-3.71 1.29A5.976 5.976 0 0 0 7 10v2a5.988 5.988 0 0 0 2.564 4.914L11 15v-4h7a6 6 0 0 0-6-6z" opacity="1" data-original="#5a5b5d"></path><path fill="#52a04f" d="m16 25-3 7-4.292-2.146A3.089 3.089 0 0 1 10.09 24c.605 0 1.209.06 1.802.178z" opacity="1" data-original="#52a04f"></path><circle cx="53" cy="45" r="9" fill="#3f4042" opacity="1" data-original="#3f4042"></circle><path fill="#5a5b5d" d="M53 36a8.955 8.955 0 0 0-5.84 2.16A8.955 8.955 0 0 0 45 44a9 9 0 0 0 9 9 8.957 8.957 0 0 0 5.84-2.16A8.955 8.955 0 0 0 62 45a9 9 0 0 0-9-9z" opacity="1" data-original="#5a5b5d"></path><circle cx="53" cy="45" r="5" fill="#777777" opacity="1" data-original="#777777"></circle><path fill="#f6bb95" d="m15.395 26.41 13.962 4.106A2.288 2.288 0 0 1 28.712 35a11.2 11.2 0 0 1-3.346-.511L13.52 30.787" opacity="1" data-original="#f6bb95"></path><path fill="#e8a989" d="M9.227 19.318 9 20l.197.393a2.906 2.906 0 0 0 4.655.756L14 21v-1.349A5.97 5.97 0 0 1 12 20a5.977 5.977 0 0 1-2.773-.682z" opacity="1" data-original="#e8a989"></path><path fill="#969696" d="M52 41a4.96 4.96 0 0 0-2.988 1.012A4.96 4.96 0 0 0 48 45a5 5 0 0 0 5 5 4.96 4.96 0 0 0 2.988-1.012A4.96 4.96 0 0 0 57 46a5 5 0 0 0-5-5z" opacity="1" data-original="#969696"></path><path fill="#b5b5b5" d="M4 54a3 3 0 0 0 3 3h10V45H4z" opacity="1" data-original="#b5b5b5"></path><path fill="#3f4042" d="M2 45h15v6H2z" opacity="1" data-original="#3f4042"></path><path fill="#5a5b5d" d="M4 45h13v6H4z" opacity="1" data-original="#5a5b5d"></path></g></svg>