<?xml version="1.0" encoding="UTF-8"?>
<svg version="1.1" xmlns="http://www.w3.org/2000/svg" width="500" height="500">
<path d="M0 0 C1.34964844 0.30671631 1.34964844 0.30671631 2.7265625 0.61962891 C19.37090905 4.74640373 33.62558619 15.97357169 42.4609375 30.578125 C48.37811873 41.44860274 52.6188865 52.62517039 55.1875 64.75 C55.36990234 65.55147461 55.55230469 66.35294922 55.74023438 67.17871094 C57.86272498 77.74309363 57.26996868 88.39812107 56.99560547 99.11230469 C56.73161876 110.17480265 57.34939747 119.8294893 60.52410889 130.47381592 C61.8525797 135.03197786 63.01197671 139.63691269 64.2109375 144.23046875 C64.75959885 146.30880516 65.30876145 148.38700929 65.85839844 150.46508789 C86.42223217 228.44630997 86.42223217 228.44630997 73.93188477 251.32055664 C72.02833396 254.82604082 71.1875 256.66843676 71.1875 260.75 C70.40972222 265.52777778 70.40972222 265.52777778 69.1875 266.75 C69.06408226 268.79957506 69.00745469 270.85319483 68.9765625 272.90625 C68.95045898 274.22181885 68.92435547 275.5373877 68.89746094 276.89282227 C68.88420776 277.60125275 68.87095459 278.30968323 68.8572998 279.0395813 C68.18850373 312.03792498 64.14574663 344.35475675 57.8984375 376.75390625 C57.69689056 377.79935608 57.49534363 378.84480591 57.28768921 379.92193604 C56.28122611 385.12511515 55.26183477 390.3253252 54.22216797 395.52197266 C52.29007122 405.27079872 50.52280293 414.79126692 50.1875 424.75 C48.90875 424.915 47.63 425.08 46.3125 425.25 C41.02512265 426.42130668 37.88269707 429.08895518 33.82421875 432.55078125 C29.23632611 436.37742355 24.22544343 439.55375104 19.1875 442.75 C18.54844727 443.15589355 17.90939453 443.56178711 17.25097656 443.97998047 C-6.86528352 459.20014746 -32.29476753 473.35488363 -59.5 482.1875 C-60.39887939 482.48108398 -61.29775879 482.77466797 -62.22387695 483.07714844 C-65.40198956 484.05348779 -68.59470436 484.91267977 -71.8125 485.75 C-72.58656189 485.95819366 -73.36062378 486.16638733 -74.15814209 486.38088989 C-90.22695028 490.61857764 -105.49740853 491.5180604 -122.0625 491.3125 C-123.30028198 491.3044635 -124.53806396 491.296427 -125.81335449 491.28814697 C-148.09203339 491.13649181 -170.0707612 489.78715545 -192.1774292 487.07287598 C-194.87551802 486.74227838 -197.57459341 486.4208589 -200.27392578 486.10058594 C-225.80644352 483.04559758 -251.14341653 479.01571261 -276.453125 474.484375 C-277.26990219 474.33875122 -278.08667938 474.19312744 -278.9282074 474.04309082 C-282.78008909 473.34458724 -286.59337282 472.57725718 -290.40380859 471.67871094 C-294.49401055 470.75900285 -298.52567557 470.3299038 -302.7109375 470.15625 C-303.89107925 470.1007196 -303.89107925 470.1007196 -305.09506226 470.04406738 C-320.30887527 469.40608299 -335.55508066 469.39333941 -350.77978516 469.22393799 C-355.36993447 469.17267877 -359.96001307 469.11784972 -364.55006027 469.05812073 C-366.67085308 469.03193778 -368.79165482 469.01091684 -370.9125061 468.9901123 C-377.61975958 468.90381997 -384.16353376 468.65174038 -390.8125 467.75 C-392.72308995 459.10573842 -393.79147619 450.40740012 -394.8125 441.625 C-394.97878775 440.21610106 -395.1454527 438.80724659 -395.3125 437.3984375 C-395.39494461 436.70167404 -395.47738922 436.00491058 -395.56233215 435.28703308 C-395.72867399 433.88581494 -395.89589555 432.48470095 -396.06401062 431.08369446 C-396.49465481 427.48646419 -396.90676332 423.8886791 -397.28833008 420.28588867 C-397.44863418 418.84813379 -397.60903127 417.41038928 -397.76953125 415.97265625 C-397.90593018 414.69140869 -398.0423291 413.41016113 -398.18286133 412.09008789 C-399.28609493 406.23768814 -402.5220358 402.99729379 -406.65185547 398.9453125 C-411.90854825 393.21023138 -412.56776665 388.66762542 -412.42773438 381.00585938 C-412.33975586 379.11577148 -412.33975586 379.11577148 -412.25 377.1875 C-412.21841797 375.89263672 -412.18683594 374.59777344 -412.15429688 373.26367188 C-412.07232157 370.09005667 -411.95761904 366.92124964 -411.8125 363.75 C-407.8648573 362.4341191 -404.10160644 362.62699727 -399.98828125 362.65234375 C-398.69617989 362.65446617 -398.69617989 362.65446617 -397.37797546 362.65663147 C-394.62694831 362.6622286 -391.87600256 362.67478054 -389.125 362.6875 C-387.2597668 362.69251537 -385.39453233 362.69707821 -383.52929688 362.70117188 C-378.95699989 362.71219708 -374.38476375 362.72945973 -369.8125 362.75 C-369.8125 361.43 -369.8125 360.11 -369.8125 358.75 C-369.20510986 358.50523926 -368.59771973 358.26047852 -367.97192383 358.00830078 C-365.38779432 356.50252311 -364.65539059 355.23866519 -363.26171875 352.6171875 C-362.80990234 351.81152344 -362.35808594 351.00585938 -361.89257812 350.17578125 C-360.96357336 348.47412596 -360.04687588 346.76569411 -359.14257812 345.05078125 C-358.68689453 344.24769531 -358.23121094 343.44460938 -357.76171875 342.6171875 C-357.36299561 341.87581543 -356.96427246 341.13444336 -356.5534668 340.37060547 C-354.8125 338.75 -354.8125 338.75 -351.6706543 338.35083008 C-347.2297619 338.81029088 -343.35688626 339.87549538 -339.1328125 341.26953125 C-337.91451248 341.65838753 -337.91451248 341.65838753 -336.67160034 342.05509949 C-334.09042012 342.88146193 -331.5140287 343.72176087 -328.9375 344.5625 C-327.21513814 345.11615103 -325.49248407 345.66889389 -323.76953125 346.22070312 C-319.85540668 347.47746171 -315.94254115 348.73761256 -312.03797913 350.02381897 C-310.46522951 350.53701225 -308.88829242 351.03745578 -307.30857849 351.52879333 C-306.49719925 351.78580521 -305.68582001 352.04281708 -304.84985352 352.30761719 C-304.11315933 352.53656677 -303.37646515 352.76551636 -302.6174469 353.00140381 C-300.8125 353.75 -300.8125 353.75 -299.26953125 355.74609375 C-299.05683594 356.55175781 -298.84414063 357.35742188 -298.625 358.1875 C-298.3465625 359.14527344 -298.068125 360.10304688 -297.78125 361.08984375 C-297.4615625 362.29769531 -297.141875 363.50554687 -296.8125 364.75 C-296.30814207 366.4406214 -295.79720019 368.1292865 -295.28125 369.81640625 C-293.96611552 374.11960079 -292.68005233 378.43036928 -291.41333008 382.74804688 C-290.91010408 384.42478526 -290.36609624 386.08921127 -289.8125 387.75 C-288.82636719 387.91435547 -288.82636719 387.91435547 -287.8203125 388.08203125 C-286.86898437 388.24058594 -285.91765625 388.39914062 -284.9375 388.5625 C-283.81601562 388.74167969 -282.69453125 388.92085938 -281.5390625 389.10546875 C-279.10585929 389.52630578 -276.68188171 390.00582423 -274.2734375 390.55078125 C-252.91723631 395.17223922 -227.0019486 395.14566372 -205.8125 389.75 C-205.14444336 389.58902832 -204.47638672 389.42805664 -203.78808594 389.26220703 C-188.62903605 385.55262289 -174.25951635 379.16096275 -160.4375 372 C-135.47529702 359.14580859 -109.08902375 350.23243774 -81.9375 343.375 C-81.24246368 343.19915375 -80.54742737 343.0233075 -79.83132935 342.84213257 C-72.86351885 341.09080169 -65.98409476 339.39195861 -58.8125 338.75 C-59.24820312 337.83863281 -59.68390625 336.92726563 -60.1328125 335.98828125 C-76.15162111 301.56006739 -79.55586799 262.33668605 -80.07421875 224.79296875 C-80.09149017 223.57996094 -80.1087616 222.36695313 -80.1265564 221.1171875 C-80.20606002 215.03689558 -80.25398664 208.9582497 -80.25878906 202.87744141 C-80.27518012 200.62271981 -80.29177269 198.36799968 -80.30859375 196.11328125 C-80.30027023 195.08446335 -80.29194672 194.05564545 -80.28337097 192.99565125 C-80.35045002 186.60959991 -81.40216735 182.16420724 -84.8125 176.75 C-85.55113281 175.52410156 -85.55113281 175.52410156 -86.3046875 174.2734375 C-86.76101563 173.56445312 -87.21734375 172.85546875 -87.6875 172.125 C-96.68151099 157.2180498 -101.61172807 139.94672947 -103.8125 122.75 C-103.92335938 122.0075 -104.03421875 121.265 -104.1484375 120.5 C-108.54207968 86.30083927 -101.49855353 51.12070044 -80.38354492 23.64941406 C-60.58082793 -0.29233235 -29.2933387 -6.68067469 0 0 Z " fill="#FDE9D2" transform="translate(414.8125,5.25)"/>
<path d="M0 0 C1.28583984 -0.01998047 2.57167969 -0.03996094 3.89648438 -0.06054688 C12.75381756 -0.05607121 23.01003559 0.38391305 30.34106445 5.98828125 C38.09234659 13.95176872 40.54158804 25.95728206 42.86279297 36.44824219 C43.27400378 38.26721378 43.73043619 40.07580985 44.19140625 41.8828125 C49.30609436 63.57699686 47.61790701 87.31173688 47.3125 109.4375 C47.29993164 110.38786133 47.28736328 111.33822266 47.27441406 112.31738281 C46.95869636 129.44990034 42.51450486 144.67362982 30.5078125 157.43359375 C20.44723155 166.61700661 8.77866466 169.31008538 -4.48046875 168.859375 C-12.74756038 168.26820031 -20.16939028 164.40367883 -26.6875 159.4375 C-28.2034375 158.2928125 -28.2034375 158.2928125 -29.75 157.125 C-36.4259625 151.01720452 -39.6054016 144.2660625 -41.6875 135.4375 C-41.75004182 133.43847811 -41.76767325 131.43589242 -41.6875 129.4375 C-42.3475 129.4375 -43.0075 129.4375 -43.6875 129.4375 C-44.78715484 124.09443894 -44.84884839 118.92070147 -44.85546875 113.4921875 C-44.85879715 112.52709259 -44.86212555 111.56199768 -44.86555481 110.56765747 C-44.8706092 108.52183506 -44.8729636 106.47600443 -44.87280273 104.43017578 C-44.87495858 101.37127102 -44.89304424 98.3127458 -44.91210938 95.25390625 C-45.00654354 62.07558709 -45.00654354 62.07558709 -41.6875 55.4375 C-41.59273691 53.55066149 -41.5036706 51.66330572 -41.44824219 49.77490234 C-40.94941389 33.85562845 -39.29702125 18.53490694 -27.375 7.125 C-19.24611978 -0.2826487 -10.46157734 -0.05682832 0 0 Z " fill="#FD3131" transform="translate(392.6875,4.5625)"/>
<path d="M0 0 C1 1 1 1 1.09765625 3.06640625 C1.08025391 4.30197266 1.08025391 4.30197266 1.0625 5.5625 C1.05347656 6.38878906 1.04445313 7.21507812 1.03515625 8.06640625 C1.01775391 9.02353516 1.01775391 9.02353516 1 10 C-0.9490625 10.2784375 -0.9490625 10.2784375 -2.9375 10.5625 C-8.81884882 11.84788913 -12.49383 15.19686028 -17 19 C-22.42608696 23 -22.42608696 23 -25 23 C-25.09466553 23.607229 -25.18933105 24.21445801 -25.28686523 24.84008789 C-26.17224185 27.52167875 -27.04202399 28.07742705 -29.41015625 29.55859375 C-30.50469116 30.25082031 -30.50469116 30.25082031 -31.62133789 30.95703125 C-32.42692139 31.44558594 -33.23250488 31.93414062 -34.0625 32.4375 C-34.9073999 32.95828125 -35.7522998 33.4790625 -36.62280273 34.015625 C-59.0426542 47.65842107 -82.66944172 60.30875358 -107.6875 68.4375 C-108.58654053 68.73116455 -109.48558105 69.0248291 -110.41186523 69.32739258 C-113.58982678 70.30357819 -116.78238797 71.16272755 -120 72 C-120.77406189 72.20819366 -121.54812378 72.41638733 -122.34564209 72.63088989 C-138.41445028 76.86857764 -153.68490853 77.7680604 -170.25 77.5625 C-171.48778198 77.5544635 -172.72556396 77.546427 -174.00085449 77.53814697 C-196.27953339 77.38649181 -218.2582612 76.03715545 -240.3649292 73.32287598 C-243.06301802 72.99227838 -245.76209341 72.6708589 -248.46142578 72.35058594 C-278.78041246 68.72297922 -309.07918364 64.13557526 -339 58 C-339 57.34 -339 56.68 -339 56 C-339.66 55.67 -340.32 55.34 -341 55 C-340.11636276 55.07064667 -339.23272552 55.14129333 -338.3223114 55.21408081 C-328.47742736 55.94304656 -318.7010297 56.14773328 -308.83203125 56.1328125 C-307.21986374 56.13348923 -305.60769634 56.13446229 -303.99552917 56.13571167 C-300.6382041 56.13717344 -297.2809059 56.13508507 -293.92358398 56.13037109 C-289.68224769 56.12469707 -285.44097438 56.12805085 -281.19964027 56.13379669 C-256.08057134 56.22251905 -256.08057134 56.22251905 -231 55 C-230.21968414 54.93983704 -229.43936829 54.87967407 -228.63540649 54.81768799 C-222.91669309 54.36207011 -217.20773421 53.82609681 -211.5 53.25 C-210.63604614 53.1631897 -209.77209229 53.07637939 -208.88195801 52.98693848 C-193.4173618 51.41204425 -178.22416737 49.18959828 -163 46 C-162.29020996 45.85199951 -161.58041992 45.70399902 -160.84912109 45.55151367 C-155.31024146 44.39416245 -149.77859269 43.20546545 -144.25 42 C-143.50327026 41.83850464 -142.75654053 41.67700928 -141.98718262 41.51062012 C-127.67146186 38.39471984 -113.87942043 34.12142017 -100.0625 29.25 C-99.18916016 28.94707031 -98.31582031 28.64414062 -97.41601562 28.33203125 C-96.58908203 28.04199219 -95.76214844 27.75195312 -94.91015625 27.453125 C-94.17933838 27.19692383 -93.44852051 26.94072266 -92.69555664 26.67675781 C-90.99624298 26.12777763 -90.99624298 26.12777763 -90 25 C-88.33382885 24.95936168 -86.66611905 24.957279 -85 25 C-85 24.34 -85 23.68 -85 23 C-83.5459375 22.566875 -83.5459375 22.566875 -82.0625 22.125 C-78.89335797 21.35785318 -78.89335797 21.35785318 -78 19 C-77.34 19 -76.68 19 -76 19 C-76 17.35 -76 15.7 -76 14 C-73.69 13.34 -71.38 12.68 -69 12 C-69 11.34 -69 10.68 -69 10 C-59.2870171 6.57606647 -49.87672914 4.95647906 -39.6875 3.875 C-38.29218691 3.71861049 -36.89700334 3.56106106 -35.50195312 3.40234375 C-33.41854933 3.16575017 -31.33505906 2.93087356 -29.2507019 2.70281982 C-25.70861388 2.3146358 -22.17241671 1.90065373 -18.63916016 1.43847656 C-17.92717972 1.3457547 -17.21519928 1.25303284 -16.48164368 1.15750122 C-14.51957434 0.89926965 -12.55822156 0.63561015 -10.59692383 0.37158203 C-7.02644754 0.00273218 -3.58646868 -0.13612709 0 0 Z " fill="#F7BF8E" transform="translate(463,419)"/>
<path d="M0 0 C0 0.66 0 1.32 0 2 C1.32 2.66 2.64 3.32 4 4 C3.49613347 9.71048734 0.10015428 12.98609436 -3.90234375 16.82421875 C-16.05557222 29.43008143 -24.38421597 47.60203908 -28.125 64.5625 C-28.29676758 65.33319824 -28.46853516 66.10389648 -28.64550781 66.89794922 C-30.19905376 74.24788065 -30.77867037 81.4969255 -31 89 C-34.3 89 -37.6 89 -41 89 C-41.82553145 68.10946811 -38.37733835 47.27126125 -26.125 29.6875 C-23.12229357 25.27352155 -20.5143394 20.70604232 -18 16 C-17.34 16 -16.68 16 -16 16 C-15.59201172 15.11634766 -15.59201172 15.11634766 -15.17578125 14.21484375 C-12.40300913 8.99171487 -5.99403112 0 0 0 Z " fill="#F5C091" transform="translate(480,262)"/>
<path d="M0 0 C1 1 1 1 1.09765625 3.06640625 C1.08605469 3.89011719 1.07445312 4.71382813 1.0625 5.5625 C1.05347656 6.38878906 1.04445313 7.21507812 1.03515625 8.06640625 C1.02355469 8.70449219 1.01195312 9.34257812 1 10 C0.38511719 10.12117188 -0.22976563 10.24234375 -0.86328125 10.3671875 C-1.67152344 10.53476562 -2.47976563 10.70234375 -3.3125 10.875 C-4.51326172 11.11863281 -4.51326172 11.11863281 -5.73828125 11.3671875 C-8.25301118 11.94478999 -8.25301118 11.94478999 -11 14 C-11 13.34 -11 12.68 -11 12 C-15.83563089 12.62689837 -20.66938663 13.26640413 -25.50195312 13.91650391 C-27.13823744 14.13495234 -28.7749474 14.35024117 -30.41210938 14.56201172 C-41.52785306 16.00268857 -52.17454443 18.08297859 -63 21 C-65.66430058 21.67656222 -68.33181623 22.33883759 -71 23 C-71.33 22.34 -71.66 21.68 -72 21 C-73.98 21 -75.96 21 -78 21 C-78 20.34 -78 19.68 -78 19 C-77.34 19 -76.68 19 -76 19 C-76 17.35 -76 15.7 -76 14 C-73.69 13.34 -71.38 12.68 -69 12 C-69 11.34 -69 10.68 -69 10 C-59.2870171 6.57606647 -49.87672914 4.95647906 -39.6875 3.875 C-38.29218691 3.71861049 -36.89700334 3.56106106 -35.50195312 3.40234375 C-33.41854933 3.16575017 -31.33505906 2.93087356 -29.2507019 2.70281982 C-25.70861388 2.3146358 -22.17241671 1.90065373 -18.63916016 1.43847656 C-17.5711895 1.29939377 -17.5711895 1.29939377 -16.48164368 1.15750122 C-14.51957434 0.89926965 -12.55822156 0.63561015 -10.59692383 0.37158203 C-7.02644754 0.00273218 -3.58646868 -0.13612709 0 0 Z " fill="#FACEAB" transform="translate(463,419)"/>
<path d="M0 0 C-14.81321067 7.18929369 -29.50772257 13.72548427 -45.25 18.625 C-46.56919434 19.04096436 -46.56919434 19.04096436 -47.91503906 19.46533203 C-50.92873575 20.37613574 -53.9550428 21.19957603 -57 22 C-57.6391333 22.17438599 -58.2782666 22.34877197 -58.93676758 22.52844238 C-73.58209917 26.43163031 -87.91556532 26.63131528 -103 26.5 C-104.24777222 26.49446106 -105.49554443 26.48892212 -106.78112793 26.48321533 C-129.14322465 26.36755054 -151.17612047 25.04724077 -173.3649292 22.32287598 C-176.06301802 21.99227838 -178.76209341 21.6708589 -181.46142578 21.35058594 C-211.78041246 17.72297922 -242.07918364 13.13557526 -272 7 C-272 6.67 -272 6.34 -272 6 C-263.59573216 6.49804319 -255.50617964 7.51067752 -247.25 9.125 C-212.78593148 15.52694221 -177.91332413 19.94868954 -143 23 C-141.89180908 23.1023999 -140.78361816 23.2047998 -139.6418457 23.31030273 C-129.34078143 24.1691749 -119.03040278 24.25568882 -108.69946289 24.29516602 C-106.62419793 24.30663335 -104.54896123 24.32700087 -102.47387695 24.35668945 C-81.47871184 24.65521472 -61.84301741 21.95333387 -42 15 C-40.33130859 14.49339844 -40.33130859 14.49339844 -38.62890625 13.9765625 C-35.85967687 13.28828511 -35.85967687 13.28828511 -35 11 C-32.9609375 10.4375 -32.9609375 10.4375 -30.375 10 C-29.47523438 9.83242188 -28.57546875 9.66484375 -27.6484375 9.4921875 C-26.77445313 9.32976562 -25.90046875 9.16734375 -25 9 C-22.49752868 8.49950574 -20.41156164 7.90433561 -18 7 C-17.61134766 6.04673828 -17.61134766 6.04673828 -17.21484375 5.07421875 C-15.36428885 1.91458964 -13.00219539 1.68067849 -9.5625 0.6875 C-8.40878906 0.34074219 -7.25507813 -0.00601562 -6.06640625 -0.36328125 C-3 -1 -3 -1 0 0 Z " fill="#FEF1E0" transform="translate(396,470)"/>
<path d="M0 0 C1.32 0.66 2.64 1.32 4 2 C3.34 4.97 2.68 7.94 2 11 C-2.10526923 11.13824479 -5.39138356 10.74848167 -9.3125 9.5625 C-17.12054141 7.47510431 -24.96425026 7.27610988 -33 7 C-33 3.7 -33 0.4 -33 -3 C-22.3351943 -6.55493523 -10.35195174 -3.26026986 0 0 Z " fill="#F5C192" transform="translate(392,343)"/>
<path d="M0 0 C11.88 0 23.76 0 36 0 C36 3.3 36 6.6 36 10 C24.12 10 12.24 10 0 10 C0 6.7 0 3.4 0 0 Z " fill="#F7BE8D" transform="translate(47,364)"/>
<path d="M0 0 C2.41856174 0.36695843 3.65446248 0.56882143 5.2146759 2.51573181 C7.7659639 7.79973914 8.84978216 12.62573922 9.44921875 18.44140625 C9.60364189 19.76941505 9.60364189 19.76941505 9.76118469 21.12425232 C10.08412354 23.93560812 10.38572991 26.7488025 10.6875 29.5625 C10.90038343 31.42267635 11.1145661 33.28270448 11.33007812 35.14257812 C12.50103921 45.41601458 13.4385013 55.67460744 14 66 C14.66949677 65.99803619 15.33899353 65.99607239 16.02877808 65.99404907 C34.61299379 65.94764385 53.19116248 66.06004247 71.7734375 66.31738281 C74.72099077 66.35770104 77.66853269 66.39208918 80.61621094 66.421875 C84.24718754 66.45859963 87.87792308 66.50480587 91.5086937 66.55806351 C92.87463175 66.57653159 94.24061924 66.59166728 95.60663223 66.60334396 C97.48802166 66.62010967 99.36927744 66.65028153 101.25048828 66.68115234 C102.84922287 66.70113785 102.84922287 66.70113785 104.48025513 66.7215271 C107 67 107 67 109 69 C92.66735525 69.08547571 76.33880609 68.86166692 60.00830078 68.62768555 C56.12326233 68.5722671 52.23817322 68.52220625 48.35304832 68.47328281 C45.32280122 68.43416304 42.29261845 68.39113286 39.26243973 68.34705925 C37.82969749 68.32688107 36.3969343 68.30813209 34.96415329 68.29092598 C27.57441698 68.20083955 20.32770354 67.98926512 13 67 C11.08941005 58.35573842 10.02102381 49.65740012 9 40.875 C8.83371225 39.46610106 8.6670473 38.05724659 8.5 36.6484375 C8.41755035 35.95171936 8.33510071 35.25500122 8.25015259 34.53717041 C8.08377858 33.13550443 7.91660704 31.73393288 7.74862671 30.3324585 C7.3191843 26.74209654 6.90651833 23.15113162 6.52197266 19.55566406 C6.36111763 18.12303396 6.20015153 16.69041631 6.0390625 15.2578125 C5.90193848 13.98309082 5.76481445 12.70836914 5.62353516 11.39501953 C4.7476617 6.62607033 2.98497255 3.77049164 0 0 Z " fill="#FDF5EB" transform="translate(11,406)"/>
<path d="M0 0 C0.66 0 1.32 0 2 0 C5.10141711 5.97125489 5.4281573 10.90928714 5.40625 17.57421875 C5.42581831 19.68929153 5.44551765 21.8043631 5.46533203 23.91943359 C5.47034729 25.02341492 5.47536255 26.12739624 5.48052979 27.26483154 C5.6749993 61.45062077 8.28410829 93.91550936 15.29150391 127.38012695 C15.98387453 130.91761117 16.52297371 134.42863252 17 138 C17.66 138 18.32 138 19 138 C19.26554687 138.96421875 19.53109375 139.9284375 19.8046875 140.921875 C20.33449219 142.81679688 20.33449219 142.81679688 20.875 144.75 C21.22304688 146.00296875 21.57109375 147.2559375 21.9296875 148.546875 C22.84524048 151.87488196 22.84524048 151.87488196 24.1953125 154.265625 C25 156 25 156 24 159 C3.20743259 119.25817789 3.65223984 69.68791865 3.46582031 25.95166016 C3.45572937 24.80861923 3.44563843 23.66557831 3.4352417 22.48789978 C3.41641235 20.33169177 3.4092707 18.17533847 3.41583252 16.01905823 C3.3576499 10.51991435 2.92965719 6.8218083 0 2 C0 1.34 0 0.68 0 0 Z " fill="#FEFAF3" transform="translate(331,182)"/>
<path d="M0 0 C0.66 0 1.32 0 2 0 C1.36395174 9.25971125 -0.54037633 18.25508251 -2.41601562 27.32397461 C-4.24324269 36.20139708 -5.55200025 44.93476377 -6 54 C-7.918125 54.2475 -7.918125 54.2475 -9.875 54.5 C-16.19375858 55.87321053 -20.21036632 59.88530621 -25 64 C-30.35911602 68 -30.35911602 68 -33 68 C-33 67.34 -33 66.68 -33 66 C-31.33861059 64.82638506 -29.61820517 63.73574737 -27.875 62.6875 C-24.60042206 60.68683312 -21.6232806 58.80301206 -18.875 56.125 C-15.88087296 53.91194958 -14.87714364 53.66948599 -11.3203125 53.3671875 C-10.51094238 53.2935498 -9.70157227 53.21991211 -8.86767578 53.14404297 C-8.25134277 53.09650879 -7.63500977 53.04897461 -7 53 C-7.02320313 51.70964844 -7.04640625 50.41929687 -7.0703125 49.08984375 C-7.08908236 47.37240166 -7.10728125 45.65495326 -7.125 43.9375 C-7.14175781 43.08994141 -7.15851563 42.24238281 -7.17578125 41.36914062 C-7.21603247 36.15660742 -6.55755069 32.01455343 -5 27 C-4.22768884 23.11863212 -3.58606582 19.21622506 -2.9375 15.3125 C-2.59376559 13.26670525 -2.24876436 11.22112285 -1.90234375 9.17578125 C-1.75273193 8.27770752 -1.60312012 7.37963379 -1.44897461 6.4543457 C-1.04974834 4.27195218 -0.56729621 2.14398629 0 0 Z " fill="#FCF1E3" transform="translate(471,376)"/>
<path d="M0 0 C6.95246939 -1.07999525 13.42483835 1.80813207 19.9375 4 C21.09830078 4.3815625 22.25910156 4.763125 23.45507812 5.15625 C26.30655885 6.09500909 29.15455259 7.04314077 32 8 C25.57962314 9.85041429 20.74378861 7.99155657 15 5 C10.16627943 3.33016926 6.1078375 2.79151684 1 3 C0.4225 4.03125 -0.155 5.0625 -0.75 6.125 C-2.6856056 9.52260557 -4.83096029 12.74644043 -7 16 C-7.69429379 17.3191582 -8.37530495 18.64649406 -9 20 C-9.99 19.67 -10.98 19.34 -12 19 C-10.3757418 16.39536997 -8.75046434 13.79137745 -7.125 11.1875 C-6.66480469 10.44951172 -6.20460938 9.71152344 -5.73046875 8.95117188 C-5.06337891 7.88286133 -5.06337891 7.88286133 -4.3828125 6.79296875 C-3.97434082 6.1383667 -3.56586914 5.48376465 -3.14501953 4.80932617 C-2.1207169 3.1907533 -1.06250416 1.59375623 0 0 Z " fill="#FDF6EE" transform="translate(60,344)"/>
<path d="M0 0 C11.88 0 23.76 0 36 0 C36 3.3 36 6.6 36 10 C24.12 10 12.24 10 0 10 C0 6.7 0 3.4 0 0 Z M1 1 C1 3.64 1 6.28 1 9 C5.52065428 9.049377 10.04115217 9.08570823 14.56201172 9.10986328 C16.10045098 9.11993118 17.63887107 9.13358646 19.17724609 9.15087891 C21.38644133 9.17509317 23.59538395 9.18647491 25.8046875 9.1953125 C26.83914505 9.21079636 26.83914505 9.21079636 27.89450073 9.22659302 C29.59800906 9.22699478 31.30085943 9.12191026 33 9 C35.26839983 7.16734675 35.26839983 7.16734675 35.1875 4.4375 C35.27003323 2.05310277 35.27003323 2.05310277 34 1 C31.55169574 0.91156207 29.13179401 0.88471248 26.68359375 0.90234375 C25.95253922 0.9037587 25.22148468 0.90517365 24.46827698 0.90663147 C22.12464368 0.91224592 19.78110461 0.92480078 17.4375 0.9375 C15.85221492 0.94251314 14.26692834 0.94707637 12.68164062 0.95117188 C8.7877239 0.96222003 4.89387795 0.97949428 1 1 Z " fill="#F3C69C" transform="translate(47,364)"/>
<path d="M0 0 C1.49081995 3.87613187 0.28337888 6.17746289 -1 10 C-2.65783604 18.46254866 -3.29412844 26.97742893 -3.65844727 35.57739258 C-3.9006087 40.9006087 -3.9006087 40.9006087 -5 42 C-5.23678716 44.69235776 -5.42198025 47.36498156 -5.5625 50.0625 C-5.60568359 50.82111328 -5.64886719 51.57972656 -5.69335938 52.36132812 C-5.79973633 54.24065438 -5.90039934 56.12030244 -6 58 C-6.66 58 -7.32 58 -8 58 C-7.85953745 55.04132082 -7.71287776 52.08317736 -7.5625 49.125 C-7.52318359 48.28324219 -7.48386719 47.44148438 -7.44335938 46.57421875 C-7.40146484 45.76855469 -7.35957031 44.96289062 -7.31640625 44.1328125 C-7.26141968 43.01737061 -7.26141968 43.01737061 -7.20532227 41.87939453 C-7 40 -7 40 -6 38 C-5.90521174 36.11266051 -5.8160229 34.2248182 -5.75976562 32.3359375 C-5.43728964 21.9121191 -4.74261527 9.48523054 0 0 Z " fill="#F16760" transform="translate(357,22)"/>
<path d="M0 0 C-29.83804903 14.34233061 -29.83804903 14.34233061 -36 14 C-35.67 13.01 -35.34 12.02 -35 11 C-34.35933594 10.87882812 -33.71867187 10.75765625 -33.05859375 10.6328125 C-30.36721576 10.11138308 -27.68310457 9.56239746 -25 9 C-23.93458984 8.7834375 -23.93458984 8.7834375 -22.84765625 8.5625 C-20.77667711 8.11307403 -20.77667711 8.11307403 -18 7 C-17.74089844 6.36449219 -17.48179687 5.72898437 -17.21484375 5.07421875 C-15.36428885 1.91458964 -13.00219539 1.68067849 -9.5625 0.6875 C-8.40878906 0.34074219 -7.25507813 -0.00601562 -6.06640625 -0.36328125 C-3 -1 -3 -1 0 0 Z " fill="#FAE4CE" transform="translate(396,470)"/>
<path d="M0 0 C0.33 1.32 0.66 2.64 1 4 C0.01 4.33 -0.98 4.66 -2 5 C-2.88675558 6.75901116 -2.88675558 6.75901116 -3.4375 8.9375 C-4.45894896 12.32806879 -5.61335204 15.55414092 -7 18.8125 C-9.91955719 26.01631162 -11.84945054 33.44230755 -12.5625 41.1875 C-12.706875 42.445625 -12.85125 43.70375 -13 45 C-13.99 45.495 -13.99 45.495 -15 46 C-15.24786455 40.34418166 -14.40583921 35.51529134 -12.9375 30.0625 C-12.71852051 29.23999756 -12.49954102 28.41749512 -12.27392578 27.57006836 C-9.6525441 18.16366805 -6.30125069 7.61878493 0 0 Z " fill="#FDF6EC" transform="translate(327,40)"/>
<path d="M0 0 C0.66 0.33 1.32 0.66 2 1 C-4.99990751 6.09506542 -12.17923111 11.23811117 -20 15 C-20.66 14.67 -21.32 14.34 -22 14 C-21.195625 13.773125 -20.39125 13.54625 -19.5625 13.3125 C-18.716875 12.879375 -17.87125 12.44625 -17 12 C-16.67 10.35 -16.34 8.7 -16 7 C-12.04 6.01 -8.08 5.02 -4 4 C-4 3.34 -4 2.68 -4 2 C-2.125 0.9375 -2.125 0.9375 0 0 Z " fill="#F9E4CE" transform="translate(436,444)"/>
<path d="M0 0 C8.81767639 3.92982917 14.57862737 12.74677109 19 21 C19.69140625 23.328125 19.69140625 23.328125 20 25 C19.34 25 18.68 25 18 25 C16.5393715 22.35261084 16 21.10551666 16 18 C15.34 18 14.68 18 14 18 C10 12.58823529 10 12.58823529 10 10 C9.34 10 8.68 10 8 10 C6.65576661 8.34211215 5.32381517 6.67423683 4 5 C3.2575 4.443125 2.515 3.88625 1.75 3.3125 C1.1725 2.879375 0.595 2.44625 0 2 C0 1.34 0 0.68 0 0 Z " fill="#FEF7ED" transform="translate(440,18)"/>
<path d="M0 0 C0.33 0 0.66 0 1 0 C1.02687279 1.81242052 1.04633715 3.62495233 1.0625 5.4375 C1.07410156 6.44683594 1.08570313 7.45617187 1.09765625 8.49609375 C1 11 1 11 0 12 C-0.07319621 14.69654854 -0.09242537 17.36691458 -0.0625 20.0625 C-0.05798828 20.82111328 -0.05347656 21.57972656 -0.04882812 22.36132812 C-0.0370068 24.24091871 -0.01907078 26.12046899 0 28 C2.64 28 5.28 28 8 28 C8 28.33 8 28.66 8 29 C4.7 29 1.4 29 -2 29 C-2.3690205 9.03189066 -2.3690205 9.03189066 0 0 Z " fill="#F6CBA6" transform="translate(441,322)"/>
<path d="M0 0 C0 0.66 0 1.32 0 2 C-5.41176471 6 -5.41176471 6 -8 6 C-8.268125 6.763125 -8.53625 7.52625 -8.8125 8.3125 C-9.9717361 10.93603434 -10.75255646 12.27119728 -13 14 C-15.1875 14.6875 -15.1875 14.6875 -17 15 C-15.41564958 10.95424802 -12.70463183 8.6671523 -9.5 5.8125 C-8.5203125 4.93207031 -7.540625 4.05164063 -6.53125 3.14453125 C-2.81967213 0 -2.81967213 0 0 0 Z " fill="#FDF6ED" transform="translate(352,15)"/>
<path d="M0 0 C-7.92183761 4.09941247 -15.02948862 6.58823025 -24 6 C-20.51812247 3.67874831 -17.12828961 2.84877315 -13.125 1.875 C-12.41730469 1.69324219 -11.70960938 1.51148438 -10.98046875 1.32421875 C-7.25197827 0.40077511 -3.8442625 -0.22613309 0 0 Z " fill="#FDF5EB" transform="translate(344,347)"/>
<path d="M0 0 C3.86295574 6.94682798 4.29432871 15.20028921 4 23 C0.9834433 17.39782328 -0.25513618 12.50167274 -0.125 6.125 C-0.10695313 4.97257812 -0.08890625 3.82015625 -0.0703125 2.6328125 C-0.04710937 1.76398437 -0.02390625 0.89515625 0 0 Z " fill="#F26961" transform="translate(435,43)"/>
<path d="M0 0 C1.28148025 3.84444074 0.43706699 4.74929737 -1.3125 8.3125 C-3.14949057 12.15997469 -4.78186428 15.90263438 -6 20 C-6.66 20 -7.32 20 -8 20 C-6.59014224 12.66873967 -3.48192783 6.56967515 0 0 Z " fill="#FDDFC0" transform="translate(461,300)"/>
<path d="M0 0 C4.72224516 1.53472968 9.35855331 3.23945126 14 5 C13.67 5.66 13.34 6.32 13 7 C8.16039934 7.34568576 5.08931064 6.66280693 1 4 C0.125 1.8125 0.125 1.8125 0 0 Z " fill="#FCE0C7" transform="translate(370,167)"/>
<path d="M0 0 C5.20040035 4.4401079 7.87393579 12.6120386 8.8125 19.25 C8.874375 20.1575 8.93625 21.065 9 22 C7.02114001 19.03171001 5.74135003 16.22552946 4.375 12.9375 C3.92898438 11.87402344 3.48296875 10.81054688 3.0234375 9.71484375 C2 7 2 7 2 5 C1.34 5 0.68 5 0 5 C0 3.35 0 1.7 0 0 Z " fill="#F26A63" transform="translate(425,15)"/>
<path d="M0 0 C7.7065798 0.14540717 12.93073094 3.38138225 19 8 C19.33 8.66 19.66 9.32 20 10 C17.07120629 9.37240135 14.63904371 8.41377341 12 7 C12 6.34 12 5.68 12 5 C11.38511719 4.80664062 10.77023437 4.61328125 10.13671875 4.4140625 C8.92435547 4.02347656 8.92435547 4.02347656 7.6875 3.625 C6.88699219 3.36976562 6.08648437 3.11453125 5.26171875 2.8515625 C3 2 3 2 0 0 Z " fill="#FDF8F1" transform="translate(420,8)"/>
<path d="M0 0 C0 0.66 0 1.32 0 2 C-0.721875 2.268125 -1.44375 2.53625 -2.1875 2.8125 C-5.03684718 3.90256808 -5.03684718 3.90256808 -7.4375 5.6875 C-10.70643 7.36183 -12.51170995 6.89235327 -16 6 C-13.50063756 3.50063756 -11.35191992 2.96276247 -8 1.875 C-6.9275 1.52179688 -5.855 1.16859375 -4.75 0.8046875 C-2 0 -2 0 0 0 Z " fill="#F3C79F" transform="translate(368,447)"/>
<path d="M0 0 C-5.9435884 3.30199356 -11.29119838 4.95518663 -18 6 C-15.48453928 2.22680892 -13.8411192 2.02833885 -9.5625 0.75 C-8.40878906 0.39421875 -7.25507813 0.0384375 -6.06640625 -0.328125 C-3 -1 -3 -1 0 0 Z " fill="#F5D6B7" transform="translate(396,470)"/>
<path d="M0 0 C0.66 0 1.32 0 2 0 C2.33 0.99 2.66 1.98 3 3 C0.36 5.97 -2.28 8.94 -5 12 C-5 8.55639368 -4.20408468 7.25204608 -2.5 4.3125 C-2.0359375 3.50425781 -1.571875 2.69601562 -1.09375 1.86328125 C-0.7328125 1.24839844 -0.371875 0.63351562 0 0 Z " fill="#F4C5A0" transform="translate(462,278)"/>
<path d="M0 0 C0.33 0 0.66 0 1 0 C1.125 7.75 1.125 7.75 0 10 C-0.22622081 11.70363822 -0.40888473 13.41328701 -0.5625 15.125 C-0.68818359 16.49011719 -0.68818359 16.49011719 -0.81640625 17.8828125 C-0.87699219 18.58148438 -0.93757813 19.28015625 -1 20 C-1.33 20 -1.66 20 -2 20 C-2.05392397 17.22890693 -2.09363455 14.45886182 -2.125 11.6875 C-2.14175781 10.90181641 -2.15851563 10.11613281 -2.17578125 9.30664062 C-2.18544922 8.1706543 -2.18544922 8.1706543 -2.1953125 7.01171875 C-2.20578613 6.31522217 -2.21625977 5.61872559 -2.22705078 4.90112305 C-2 3 -2 3 0 0 Z " fill="#FCB6A5" transform="translate(351,52)"/>
<path d="M0 0 C-2.67031284 2.67733998 -4.03721441 3.00280229 -7.890625 3.29296875 C-9.34404009 3.27314945 -10.79731167 3.23754845 -12.25 3.1875 C-12.99507813 3.17396484 -13.74015625 3.16042969 -14.5078125 3.14648438 C-16.33885416 3.11127204 -18.16952169 3.05746851 -20 3 C-20 2.67 -20 2.34 -20 2 C-17.41842632 1.46867611 -14.83538244 0.94965621 -12.25 0.4375 C-11.52039063 0.28603516 -10.79078125 0.13457031 -10.0390625 -0.02148438 C-6.33442927 -0.74557178 -3.60677678 -1.09817231 0 0 Z " fill="#F4C499" transform="translate(308,465)"/>
<path d="M0 0 C7.06533193 2.04109589 7.06533193 2.04109589 9 5 C8.6875 7.1875 8.6875 7.1875 8 9 C7.34 9 6.68 9 6 9 C4.4921875 7.03125 4.4921875 7.03125 2.875 4.5 C2.33617187 3.6646875 1.79734375 2.829375 1.2421875 1.96875 C0.83226562 1.3190625 0.42234375 0.669375 0 0 Z " fill="#FDDCC5" transform="translate(421,9)"/>
<path d="M0 0 C2.97 0 5.94 0 9 0 C7.12244138 3.75511724 6.37972575 4.88767141 3 7 C2.34 7 1.68 7 1 7 C1.33 6.01 1.66 5.02 2 4 C2.99 4 3.98 4 5 4 C4 1.5 4 1.5 0 0 Z " fill="#F2C39C" transform="translate(443,431)"/>
<path d="M0 0 C0.33 0 0.66 0 1 0 C1.08086147 1.79093191 1.13912702 3.58289628 1.1875 5.375 C1.22230469 6.37273437 1.25710938 7.37046875 1.29296875 8.3984375 C1.19628906 9.25695312 1.09960938 10.11546875 1 11 C0.01 11.66 -0.98 12.32 -2 13 C-2.19294408 8.17639811 -1.75747614 4.50353262 0 0 Z " fill="#F5C49B" transform="translate(444,312)"/>
<path d="M0 0 C4.01734589 1.37737573 6.72741701 3.33026125 10 6 C10.99 6.33 11.98 6.66 13 7 C12.67 7.66 12.34 8.32 12 9 C7.09198451 7.51272258 3.59508707 4.55364515 0 1 C0 0.67 0 0.34 0 0 Z " fill="#EB504A" transform="translate(360,158)"/>
<path d="M0 0 C-3.3 2.31 -6.6 4.62 -10 7 C-10.33 6.01 -10.66 5.02 -11 4 C-8.32997607 0.73663741 -4.08378642 -2.04189321 0 0 Z " fill="#FEDED5" transform="translate(375,6)"/>
<path d="M0 0 C-5.00932754 3.00559652 -8.32723489 3.29341888 -14 3 C-9.7368213 0.15788087 -5.03577274 -2.0143091 0 0 Z " fill="#FDF6EE" transform="translate(320,354)"/>
<path d="M0 0 C0 3 0 3 -1.6875 5.6875 C-4 8 -4 8 -6.75 8.3125 C-7.86375 8.1578125 -7.86375 8.1578125 -9 8 C-7.88625 7.13375 -7.88625 7.13375 -6.75 6.25 C-4.33912357 4.27746474 -2.15957299 2.23955718 0 0 Z " fill="#FDD3BC" transform="translate(425,159)"/>
<path d="M0 0 C2.6875 -0.3125 2.6875 -0.3125 5 0 C2.6875 2.5 2.6875 2.5 0 5 C-0.99 5 -1.98 5 -3 5 C-1.8125 2.5 -1.8125 2.5 0 0 Z " fill="#F2CFAE" transform="translate(412,456)"/>
<path d="M0 0 C0.33 0 0.66 0 1 0 C1 3.3 1 6.6 1 10 C-0.98 10 -2.96 10 -5 10 C-4.360625 9.46375 -3.72125 8.9275 -3.0625 8.375 C-0.61470596 5.55632807 -0.33285388 3.66139268 0 0 Z " fill="#FCE1C3" transform="translate(358,340)"/>
<path d="M0 0 C0.33 0 0.66 0 1 0 C1.125 2.375 1.125 2.375 1 5 C0.34 5.66 -0.32 6.32 -1 7 C-1.99 7 -2.98 7 -4 7 C-2.92598892 4.08482708 -2.22189824 2.22189824 0 0 Z " fill="#F14C4A" transform="translate(362,15)"/>
<path d="M0 0 C1.65 0 3.3 0 5 0 C1.39042389 3.2910841 -1.12637153 4.54663921 -6 5 C-6 4.34 -6 3.68 -6 3 C-5.195625 2.87625 -4.39125 2.7525 -3.5625 2.625 C-2.716875 2.41875 -1.87125 2.2125 -1 2 C-0.67 1.34 -0.34 0.68 0 0 Z " fill="#E94644" transform="translate(411,166)"/>
<path d="M0 0 C1.25127906 3.54667178 0.72285053 5.72253438 -0.4375 9.25 C-0.72496094 10.14203125 -1.01242187 11.0340625 -1.30859375 11.953125 C-1.53675781 12.62859375 -1.76492188 13.3040625 -2 14 C-2.33 14 -2.66 14 -3 14 C-3.34615998 8.34605369 -2.43425238 4.96993194 0 0 Z " fill="#F5726D" transform="translate(438,128)"/>
<path d="M0 0 C0.33 0.66 0.66 1.32 1 2 C-0.28062485 3.7074998 -1.61767557 5.37373596 -3 7 C-3.66 7 -4.32 7 -5 7 C-5 7.66 -5 8.32 -5 9 C-5.66 8.67 -6.32 8.34 -7 8 C-6.34 7.01 -5.68 6.02 -5 5 C-4.34 5 -3.68 5 -3 5 C-2.690625 4.360625 -2.38125 3.72125 -2.0625 3.0625 C-1 1 -1 1 0 0 Z " fill="#FCDDBE" transform="translate(481,272)"/>
<path d="M0 0 C-2 2 -2 2 -3.9453125 2.1953125 C-5.96354167 2.13020833 -7.98177083 2.06510417 -10 2 C-6.80505194 -1.19494806 -4.22040044 -1.35655728 0 0 Z " fill="#F2C39B" transform="translate(346,456)"/>
<path d="M0 0 C5.75 1.75 5.75 1.75 8 4 C5.69 4 3.38 4 1 4 C0.67 2.68 0.34 1.36 0 0 Z " fill="#FED5BE" transform="translate(370,167)"/>
<path d="M0 0 C2.0625 0.4375 2.0625 0.4375 4 1 C1.03 3.475 1.03 3.475 -2 6 C-2.66 5.01 -3.32 4.02 -4 3 C-3.01 2.34 -2.02 1.68 -1 1 C-0.67 0.67 -0.34 0.34 0 0 Z " fill="#EC4343" transform="translate(420,160)"/>
<path d="M0 0 C1.32 0.66 2.64 1.32 4 2 C0.77208445 4.1519437 -0.28400809 4.20086443 -4 4 C-2.68 2.68 -1.36 1.36 0 0 Z " fill="#F1413F" transform="translate(367,11)"/>
<path d="" fill="#FFFFFF" transform="translate(0,0)"/>
<path d="" fill="#FFFFFF" transform="translate(0,0)"/>
<path d="" fill="#FFFFFF" transform="translate(0,0)"/>
<path d="" fill="#FFFFFF" transform="translate(0,0)"/>
<path d="" fill="#FFFFFF" transform="translate(0,0)"/>
<path d="" fill="#FFFFFF" transform="translate(0,0)"/>
<path d="" fill="#FFFFFF" transform="translate(0,0)"/>
<path d="" fill="#FFFFFF" transform="translate(0,0)"/>
<path d="" fill="#FFFFFF" transform="translate(0,0)"/>
<path d="" fill="#FF00FF" transform="translate(0,0)"/>
<path d="" fill="#FFFFFF" transform="translate(0,0)"/>
<path d="" fill="#FFFFFF" transform="translate(0,0)"/>
<path d="" fill="#FFFFFF" transform="translate(0,0)"/>
<path d="" fill="#FFFFFF" transform="translate(0,0)"/>
<path d="" fill="#FFFFFF" transform="translate(0,0)"/>
<path d="" fill="#FFFFFF" transform="translate(0,0)"/>
<path d="" fill="#FFFFFF" transform="translate(0,0)"/>
<path d="" fill="#FFFFFF" transform="translate(0,0)"/>
<path d="" fill="#FFFFFF" transform="translate(0,0)"/>
<path d="" fill="#FFFFFF" transform="translate(0,0)"/>
<path d="" fill="#FFFFFF" transform="translate(0,0)"/>
<path d="" fill="#FFFFFF" transform="translate(0,0)"/>
<path d="" fill="#FFFFFF" transform="translate(0,0)"/>
<path d="" fill="#FFFFFF" transform="translate(0,0)"/>
<path d="" fill="#FFFFFF" transform="translate(0,0)"/>
<path d="" fill="#FFFFFF" transform="translate(0,0)"/>
<path d="" fill="#FFFFFF" transform="translate(0,0)"/>
<path d="" fill="#FFFFFF" transform="translate(0,0)"/>
<path d="" fill="#FFFFFF" transform="translate(0,0)"/>
<path d="" fill="#FFFFFF" transform="translate(0,0)"/>
<path d="" fill="#FFFFFF" transform="translate(0,0)"/>
<path d="" fill="#FFFFFF" transform="translate(0,0)"/>
<path d="" fill="#FFFFFF" transform="translate(0,0)"/>
<path d="" fill="#FFFFFF" transform="translate(0,0)"/>
<path d="" fill="#FFFFFF" transform="translate(0,0)"/>
<path d="" fill="#FFFFFF" transform="translate(0,0)"/>
<path d="" fill="#FFFFFF" transform="translate(0,0)"/>
<path d="" fill="#FFFFFF" transform="translate(0,0)"/>
<path d="" fill="#FFFFFF" transform="translate(0,0)"/>
<path d="" fill="#FFFFFF" transform="translate(0,0)"/>
<path d="" fill="#FFFFFF" transform="translate(0,0)"/>
<path d="" fill="#FFFFFF" transform="translate(0,0)"/>
<path d="" fill="#FFFFFF" transform="translate(0,0)"/>
<path d="" fill="#FFFFFF" transform="translate(0,0)"/>
<path d="" fill="#FFFFFF" transform="translate(0,0)"/>
<path d="" fill="#FFFFFF" transform="translate(0,0)"/>
<path d="" fill="#FFFFFF" transform="translate(0,0)"/>
<path d="" fill="#FFFFFF" transform="translate(0,0)"/>
<path d="" fill="#FFFFFF" transform="translate(0,0)"/>
<path d="" fill="#FFFFFF" transform="translate(0,0)"/>
<path d="" fill="#FFFFFF" transform="translate(0,0)"/>
<path d="" fill="#FFFFFF" transform="translate(0,0)"/>
</svg>
