<svg xmlns="http://www.w3.org/2000/svg" version="1.1" xmlns:xlink="http://www.w3.org/1999/xlink" width="512" height="512" x="0" y="0" viewBox="0 0 64 64" style="enable-background:new 0 0 512 512" xml:space="preserve" class=""><g><path fill="#969696" d="M12 29h10v5H12z" opacity="1" data-original="#969696" class=""></path><path fill="#5a5b5d" d="M20.8 43.9 19 34h-4l1.474 8.108z" opacity="1" data-original="#5a5b5d" class=""></path><path fill="#3f4042" d="M18.637 43.004 17 34h-2l1.474 8.108z" opacity="1" data-original="#3f4042"></path><path fill="#b5b5b5" d="M17 32h5v-3h-8a3 3 0 0 0 3 3z" opacity="1" data-original="#b5b5b5"></path><path fill="#5a5b5d" d="m24.884 56.007 22.9-3.12.27 1.984-22.9 3.12zM23.738 46.896l.2-1.99 22.636 2.275-.2 1.99z" opacity="1" data-original="#5a5b5d" class=""></path><circle cx="15" cy="52" r="10" fill="#3f4042" opacity="1" data-original="#3f4042"></circle><path fill="#5a5b5d" d="M15 42a9.95 9.95 0 0 0-6.547 2.453A9.95 9.95 0 0 0 6 51c0 5.523 4.477 10 10 10a9.95 9.95 0 0 0 6.547-2.453A9.95 9.95 0 0 0 25 52c0-5.523-4.477-10-10-10z" opacity="1" data-original="#5a5b5d" class=""></path><circle cx="15" cy="52" r="6" fill="#969696" opacity="1" data-original="#969696" class=""></circle><path fill="#b5b5b5" d="M14 47a5.974 5.974 0 0 0-3.71 1.29A5.974 5.974 0 0 0 9 52a6 6 0 0 0 6 6 5.974 5.974 0 0 0 3.71-1.29A5.974 5.974 0 0 0 20 53a6 6 0 0 0-6-6z" opacity="1" data-original="#b5b5b5"></path><circle cx="25" cy="52" r="6" fill="#e7b541" opacity="1" data-original="#e7b541" class=""></circle><path fill="#f9cb6e" d="M25 46a5.974 5.974 0 0 0-3.71 1.29A5.974 5.974 0 0 0 20 51a6 6 0 0 0 6 6 5.974 5.974 0 0 0 3.71-1.29A5.974 5.974 0 0 0 31 52a6 6 0 0 0-6-6z" opacity="1" data-original="#f9cb6e" class=""></path><path fill="#777777" d="m52 58-7.001-26L52 29.999V17h-4v10l-8.462 1.884L48 58" opacity="1" data-original="#777777" class=""></path><path fill="#969696" d="m50 28-8.462 1.884L49.709 58H52l-7.001-26L52 29.999V17h-2z" opacity="1" data-original="#969696" class=""></path><path fill="#52a04f" d="m38.953 18.666 1.904-2.667-4.469-2.162L36 15l-2.03.185a43.465 43.465 0 0 0-16.877 5.128 5.934 5.934 0 0 0 1.212 10.917L28 34l-8 11 4.379 4.379a2.12 2.12 0 0 0 3.621-1.5 2.12 2.12 0 0 0-.621-1.5L26 45l7.758-8.62a4.834 4.834 0 0 0-1.631-7.656L26 26l9.57-3.48z" opacity="1" data-original="#52a04f"></path><path fill="#6db569" d="m38.143 15-2.03.185a43.465 43.465 0 0 0-16.877 5.128 5.934 5.934 0 0 0 1.212 10.917L30.143 34l-8 11 4.379 4.379c.128.128.275.231.428.321a2.113 2.113 0 0 0 .429-3.321L26 45l7.758-8.62a4.836 4.836 0 0 0-1.631-7.656L26 26l9.57-3.48 3.383-3.854 1.904-2.667-2.624-1.269z" opacity="1" data-original="#6db569"></path><path fill="#d69578" d="M36.388 13.837 36 15a5.397 5.397 0 0 0 3.121 2.707l.417.139 1.319-1.848z" opacity="1" data-original="#d69578"></path><path fill="#1d549c" d="M14 25.523a5.936 5.936 0 0 0 4.305 5.707L28 34l-8 11 4.379 4.379a2.12 2.12 0 0 0 3.621-1.5c0-.563-.224-1.102-.621-1.5L26 45l7.758-8.62a4.836 4.836 0 0 0-1.631-7.656L26 26l-11.047-3.683A5.92 5.92 0 0 0 14 25.523z" opacity="1" data-original="#1d549c"></path><path fill="#2b6bb2" d="M32.127 28.723 26 26l-9.241-3.081a5.917 5.917 0 0 0-.615 2.604 5.936 5.936 0 0 0 4.305 5.707L30.143 34l-8 11 4.379 4.379c.128.128.275.231.428.321a2.113 2.113 0 0 0 .429-3.321L26 45l7.758-8.62a4.836 4.836 0 0 0-1.631-7.657z" opacity="1" data-original="#2b6bb2"></path><path fill="#e8a989" d="M41 2a6 6 0 0 0-6 6v2a6 6 0 1 0 12 0V8a6 6 0 0 0-6-6z" opacity="1" data-original="#e8a989"></path><path fill="#f6bb95" d="M41 2a5.974 5.974 0 0 0-3.71 1.29A5.974 5.974 0 0 0 36 7v2a6 6 0 0 0 6 6 5.974 5.974 0 0 0 3.71-1.29A5.974 5.974 0 0 0 47 10V8a6 6 0 0 0-6-6z" opacity="1" data-original="#f6bb95"></path><path fill="#3f4042" d="M40 8h7a6 6 0 1 0-12 0v2a5.993 5.993 0 0 0 2.73 5.027L40 12z" opacity="1" data-original="#3f4042"></path><path fill="#5a5b5d" d="M41 2a5.974 5.974 0 0 0-3.71 1.29A5.974 5.974 0 0 0 36 7v2a5.988 5.988 0 0 0 2.564 4.914L40 12V8h7a6 6 0 0 0-6-6z" opacity="1" data-original="#5a5b5d" class=""></path><path fill="#f6bb95" d="M35 20.325a2.325 2.325 0 0 1 4.53-.736L41 24l7-1 1.379-1.379a2.12 2.12 0 0 1 3.621 1.5 2.604 2.604 0 0 1-1.781 2.471L41.54 28.82a3.507 3.507 0 0 1-4.393-2.096l-1.909-5.092A3.696 3.696 0 0 1 35 20.325z" opacity="1" data-original="#f6bb95"></path><path fill="#969696" d="m20 45 4.379 4.379a2.12 2.12 0 0 0 3.621-1.5c0-.563-.224-1.102-.621-1.5L26 45l-3.793-3.034z" opacity="1" data-original="#969696" class=""></path><path fill="#52a04f" d="M39.53 19.589a2.325 2.325 0 0 0-4.53.736c0 .447.08.89.237 1.308L36 23.667l4.4-1.467z" opacity="1" data-original="#52a04f"></path><path fill="#3f4042" d="M42 58h17v4H42z" opacity="1" data-original="#3f4042"></path><path fill="#5a5b5d" d="M46 60h13v-2H44a2 2 0 0 0 2 2z" opacity="1" data-original="#5a5b5d" class=""></path></g></svg>