<svg xmlns="http://www.w3.org/2000/svg" version="1.1" xmlns:xlink="http://www.w3.org/1999/xlink" width="512" height="512" x="0" y="0" viewBox="0 0 64 64" style="enable-background:new 0 0 512 512" xml:space="preserve" class=""><g><path fill="#1d549c" d="M21.592 28.63 18 43a31.395 31.395 0 0 0-9.427 3.53L6 48v6h1a3 3 0 0 0 3-3l12-3 3-9 5 6a15 15 0 0 0 3 9v4h7v-1a3 3 0 0 0-3-3l-2-11-6-12z" opacity="1" data-original="#1d549c" class=""></path><path fill="#2b6bb2" d="M33 54v4h7v-1a3 3 0 0 0-3-3l-2-11-6-12-5.556-1.778L20 43a31.395 31.395 0 0 0-9.427 3.53L8 48v5.816A2.99 2.99 0 0 0 10 51l12-3 3-9 5 6a15 15 0 0 0 3 9z" opacity="1" data-original="#2b6bb2" class=""></path><path fill="#e8a989" d="M30.869 22.407 32.166 25l5.11-3.407a3.53 3.53 0 0 1 1.96-.593 1.93 1.93 0 0 1 1.023 3.567l-6.286 3.929a3.318 3.318 0 0 1-4.077-.441" opacity="1" data-original="#e8a989"></path><path fill="#52a04f" d="M30 15.282V17c.64.64 1 1.509 1 2.414 0 3.7-.596 7.375-1.766 10.885L29 31l-5.054-.722L21 29v-9l3-2 3-4z" opacity="1" data-original="#52a04f"></path><path fill="#6db569" d="M31 19.414c0-.906-.36-1.774-1-2.414v-1.718L27 14l-.333.444-2.588 11.216a3.057 3.057 0 0 0 2.546 3.715l2.762.395A34.428 34.428 0 0 0 31 19.414z" opacity="1" data-original="#6db569"></path><path fill="#e8a989" d="M29 2a6 6 0 0 0-6 6v2a6 6 0 1 0 12 0V8a6 6 0 0 0-6-6z" opacity="1" data-original="#e8a989"></path><path fill="#f6bb95" d="M29 2a5.974 5.974 0 0 0-3.71 1.29A5.974 5.974 0 0 0 24 7v2a6 6 0 0 0 6 6 5.974 5.974 0 0 0 3.71-1.29A5.974 5.974 0 0 0 35 10V8a6 6 0 0 0-6-6z" opacity="1" data-original="#f6bb95"></path><path fill="#3f4042" d="M28 8h7a6 6 0 1 0-12 0v2a5.993 5.993 0 0 0 2.73 5.027L28 12z" opacity="1" data-original="#3f4042"></path><path fill="#5a5b5d" d="M29 2a5.974 5.974 0 0 0-3.71 1.29A5.974 5.974 0 0 0 24 7v2a5.988 5.988 0 0 0 2.564 4.914L28 12V8h7a6 6 0 0 0-6-6z" opacity="1" data-original="#5a5b5d" class=""></path><path fill="#f6bb95" d="m17 21 4.889-4.074A3.997 3.997 0 0 1 24.446 16a2.553 2.553 0 0 1 1.314 4.744L22 23l1.655 5.792A8.97 8.97 0 0 1 24 31.257a1.744 1.744 0 0 1-3.397.551z" opacity="1" data-original="#f6bb95"></path><path fill="#3f4042" d="M2 58h60v4H2z" opacity="1" data-original="#3f4042"></path><path fill="#5a5b5d" d="M6 60h56v-2H4a2 2 0 0 0 2 2z" opacity="1" data-original="#5a5b5d" class=""></path><path fill="#1d549c" d="m22.081 37.394 1.943 4.533.952-2.854-1.057-2.467z" opacity="1" data-original="#1d549c" class=""></path><path fill="#969696" d="M6 48v6h1a3 3 0 0 0 3-3l-2.056-4.111zM37.432 54.044 33 54.008V58h7v-1a2.991 2.991 0 0 0-2.568-2.956z" opacity="1" data-original="#969696"></path><path fill="#777777" d="M55.018 33.491 47 62h-5l7.312-26z" opacity="1" data-original="#777777"></path><path fill="#969696" d="M49.312 36 42 62h3l7.736-27.505z" opacity="1" data-original="#969696"></path><path fill="#3f4042" d="m60 26-10 6H38v4h12l12-6z" opacity="1" data-original="#3f4042"></path><path fill="#5a5b5d" d="M61.2 28.4 60 26l-10 6H38v2h12z" opacity="1" data-original="#5a5b5d" class=""></path></g></svg>