<svg id="SvgjsSvg1168" width="288" height="288" xmlns="http://www.w3.org/2000/svg" version="1.1" xmlns:xlink="http://www.w3.org/1999/xlink" xmlns:svgjs="http://svgjs.com/svgjs"><defs id="SvgjsDefs1169"></defs><g id="SvgjsG1170"><svg xmlns="http://www.w3.org/2000/svg" enable-background="new 0 0 512 512" viewBox="0 0 512 512" width="288" height="288"><path fill="#ffead3" d="M402.4 5c-94.2 0-100.9 135.3-58 187.8 0 0-5 110.7 23 160.8 0 0-56.6 7.2-111.3 37-66.4 36.1-129.7 11.5-129.7 11.5L115 368.5l-51.8-15.6L47.6 378H5v28.3l13.1 15.6 7.1 61.7 94.9 1.5s105.2 21.8 187.2 21.8 167.4-73 167.4-73l4.4-25.6s17.6-78.2 14.1-137.3c0 0 13.8-16.6 13.8-29.9 0-25.2-25.7-115.5-25.7-115.5S499.1 5 402.4 5z" class="svgShape colorffead3-0 selectable"></path><path fill="#f8bf8d" d="M474.7 434s-85.4 73-167.4 73-187.2-21.8-187.2-21.8c171.9 14 268.3-31 278.9-36.1 13.4-6.3 36-9.9 75.7-15.1z" class="svgShape colorf8bf8d-1 selectable"></path><path fill="#ff1313" d="M507 241.2c0 13.4-13.8 29.9-13.8 29.9-29.5 18.5-19.8 103.2-47.6 103.2-28.5 0-42.4-62.5-37.5-129.2s63.2-93.1 73.2-119.4c0 .1 25.7 90.4 25.7 115.5z" class="svgShape colorb5e1e8-2 selectable"></path><path fill="#f8bf8d" d="M402.6 363.1c-.2-.1-17.6-7.1-34.5-4.5l-1.5-9.9c19.7-3 39 4.9 39.8 5.2zM48 373h37v10H48zM364.3 219.2c-8.8-6.8-17.4-15.3-23.8-23.3l7.8-6.2c5.8 7.3 14.1 15.4 22.1 21.7z" class="svgShape colorf8bf8d-3 selectable"></path><path fill="#fccfac" d="m402.2 453.1-6.1-7.9c10.4-8 28.3-10.1 55.5-13.3 6.7-.8 14.4-1.7 22.5-2.8l1.3 9.9c-8.2 1.1-15.9 2-22.6 2.8-25.6 3-42.5 5-50.6 11.3z" class="svgShape colorfccfac-4 selectable"></path></svg></g></svg>