<?xml version="1.0" encoding="UTF-8"?>
<svg version="1.1" xmlns="http://www.w3.org/2000/svg" width="288" height="288">
<path d="M0 0 C16.17 0 32.34 0 49 0 C49.99 9.9 49.99 9.9 51 20 C56.70370205 24.32914939 56.70370205 24.32914939 62.65844727 27.04125977 C63.43970978 27.32139923 64.22097229 27.6015387 65.02590942 27.89016724 C66.21964676 28.31578445 66.21964676 28.31578445 67.4375 28.75 C69.04992988 29.39447035 70.659247 30.04678243 72.26538086 30.70678711 C76.138224 32.28078196 80.03690285 33.76865367 83.95397949 35.22845459 C88.36951752 36.89353472 92.71390416 38.73151228 97.0625 40.5625 C97.79605713 40.86220703 98.52961426 41.16191406 99.28540039 41.47070312 C105.11127845 43.8947741 110.08494158 47.03093609 115 51 C115.9075 51.61875 116.815 52.2375 117.75 52.875 C125.2218447 59.93174222 129.44534751 69.93864366 131 80 C130.95880721 81.85341812 130.9135105 83.70699605 130.83276367 85.55911255 C130.29204498 100.2300947 133.17946717 114.58560055 135.63562012 128.98443604 C136.60053896 134.65288975 137.5432959 140.32499561 138.47817993 145.99847031 C138.8035907 147.95426551 139.1393227 149.90833464 139.4753418 151.86233521 C140.5570181 158.34189185 141.24773475 164.43060518 141 171 C142.32 171.33 143.64 171.66 145 172 C145.12117187 173.01578125 145.24234375 174.0315625 145.3671875 175.078125 C145.53631962 176.46876688 145.70559853 177.85939091 145.875 179.25 C145.95363281 179.91257813 146.03226563 180.57515625 146.11328125 181.2578125 C146.62412732 185.42317278 147.27897772 189.52870098 148.0390625 193.65625 C149.18956226 200.52900066 149.46553056 207.2889188 149.5 214.25 C149.50434052 214.92500549 149.50868103 215.60001099 149.51315308 216.29547119 C149.54963263 234.78501471 146.8944866 253.07996352 144.41015625 271.3671875 C144.28403458 272.29697418 144.1579129 273.22676086 144.02796936 274.1847229 C143.90796066 275.04012665 143.78795197 275.8955304 143.66430664 276.77685547 C143.50775352 277.89663284 143.50775352 277.89663284 143.34803772 279.03903198 C143 281 143 281 142 284 C138.04243356 284.22515501 134.08402412 284.42727348 130.125 284.625 C128.99707031 284.68945312 127.86914062 284.75390625 126.70703125 284.8203125 C125.63066406 284.871875 124.55429688 284.9234375 123.4453125 284.9765625 C122.45031738 285.02893066 121.45532227 285.08129883 120.43017578 285.13525391 C118 285 118 285 116 283 C115.43873589 280.62696559 114.98653724 278.31621336 114.59765625 275.9140625 C114.47533127 275.19430237 114.35300629 274.47454224 114.22697449 273.73297119 C113.82872335 271.36519664 113.44435812 268.99547045 113.0625 266.625 C112.92960571 265.81146057 112.79671143 264.99792114 112.65979004 264.159729 C109.77385997 246.43131356 107.40065027 228.68780366 106.58984375 210.73046875 C105.77977394 193.02226723 103.83753166 176.52578708 99.74609375 159.19824219 C98.62175498 154.37859629 97.62537478 149.53407939 96.625 144.6875 C96.30562164 143.17037596 95.9854261 141.6534235 95.6640625 140.13671875 C95.33535156 138.58404297 95.33535156 138.58404297 95 137 C94.74831055 137.77077881 94.49662109 138.54155762 94.23730469 139.33569336 C93.07974229 142.87124541 91.91492908 146.40436869 90.75 149.9375 C90.35425781 151.14986328 89.95851562 152.36222656 89.55078125 153.61132812 C87.84445412 158.77226838 86.16062063 163.83900475 83.828125 168.75390625 C79.49462004 178.22891064 79.66105638 188.31498481 79.62890625 198.54296875 C79.61991239 200.03973973 79.61079019 201.53650995 79.60154724 203.03327942 C79.58514678 206.15900843 79.57737385 209.2846315 79.57446289 212.41040039 C79.56909442 216.3729395 79.53144032 220.3344519 79.48571873 224.29670238 C79.45565244 227.38639257 79.44873298 230.47584451 79.44773674 233.56566811 C79.4435912 235.02422082 79.43139183 236.48277816 79.41021919 237.94118309 C79.26707854 248.65420942 81.25784157 257.05964976 85 267 C86.72596923 273.07933656 87 277.43128454 87 284 C45.42 284 3.84 284 -39 284 C-39 276.67290664 -38.78615509 271.82273178 -36.625 265.1875 C-36.40328125 264.46369141 -36.1815625 263.73988281 -35.953125 262.99414062 C-35.08184574 260.18810889 -34.22002935 257.47397629 -32.98123169 254.80541992 C-31.81273942 251.46460703 -31.68964574 248.68244153 -31.61425781 245.14379883 C-31.59790283 244.47282166 -31.58154785 243.80184448 -31.56469727 243.11053467 C-31.51517211 240.89273419 -31.48195723 238.67519348 -31.453125 236.45703125 C-31.43715397 235.30452157 -31.43715397 235.30452157 -31.42086029 234.12872887 C-31.36740532 230.03988021 -31.32870156 225.9511518 -31.29980469 221.86206055 C-31.27345441 218.53212476 -31.21840111 215.20473799 -31.13574219 211.87573242 C-30.63136283 191.08598954 -31.80135 174.83692058 -40.79382324 155.70028687 C-42.58417888 151.69218956 -43.88663419 147.58085656 -45.125 143.375 C-45.49882813 142.12460938 -45.87265625 140.87421875 -46.2578125 139.5859375 C-46.50273438 138.73257813 -46.74765625 137.87921875 -47 137 C-53.05300704 163.57900568 -57.55736968 189.29845765 -59.09350586 216.56616211 C-59.75508786 227.2570388 -60.9855258 237.82678476 -62.4375 248.4375 C-62.54100769 249.20138031 -62.64451538 249.96526062 -62.75115967 250.75228882 C-63.85536225 258.83155648 -65.09246305 266.88405676 -66.53515625 274.91015625 C-66.76726807 276.20187744 -66.99937988 277.49359863 -67.23852539 278.82446289 C-68 282 -68 282 -70 285 C-72.21484375 285.35644531 -72.21484375 285.35644531 -74.9375 285.328125 C-75.91460937 285.32296875 -76.89171875 285.3178125 -77.8984375 285.3125 C-79.43371094 285.2815625 -79.43371094 285.2815625 -81 285.25 C-82.02351563 285.24484375 -83.04703125 285.2396875 -84.1015625 285.234375 C-91.69145889 285.15427055 -91.69145889 285.15427055 -94 284 C-94.59089119 281.59003019 -95.04674686 279.25731765 -95.4375 276.8125 C-95.62481689 275.69572876 -95.62481689 275.69572876 -95.81591797 274.55639648 C-97.42633625 264.73807231 -98.78008147 254.87395241 -100 245 C-100.09861328 244.25226318 -100.19722656 243.50452637 -100.29882812 242.73413086 C-101.19990327 235.11145653 -101.22116837 227.46391078 -101.24023438 219.79858398 C-101.24988103 217.46626284 -101.28096831 215.13484779 -101.3125 212.80273438 C-101.37648834 203.50565262 -100.56042861 194.77713468 -98.71459961 185.66259766 C-97.82634309 181.10994157 -97.36669255 176.62032609 -97 172 C-96.01 171.67 -95.02 171.34 -94 171 C-93.90203125 170.04834961 -93.8040625 169.09669922 -93.703125 168.11621094 C-92.78164587 159.57301974 -91.57813861 151.10980526 -90.125 142.640625 C-89.86937286 141.14815498 -89.86937286 141.14815498 -89.60858154 139.62553406 C-89.25411708 137.55998808 -88.89935586 135.49449301 -88.54431152 133.42904663 C-85.77721401 117.26783811 -83.1213381 101.29650851 -82.65625 84.87792969 C-82.33908919 75.9322958 -80.17226954 67.94534045 -76 60 C-75.34 60 -74.68 60 -74 60 C-73.74992187 59.25621094 -73.49984375 58.51242188 -73.2421875 57.74609375 C-68.34091001 46.91087968 -54.46445553 42.31648673 -44.19140625 38.3125 C-35.51109018 34.88274015 -27.0417374 31.01987705 -18.5625 27.125 C-17.04116318 26.42936472 -15.51967943 25.73405067 -13.99804688 25.0390625 C-10.33033552 23.3630545 -6.66460982 21.68277806 -3 20 C-2.92652344 18.58847656 -2.92652344 18.58847656 -2.8515625 17.1484375 C-2.77679688 15.90320312 -2.70203125 14.65796875 -2.625 13.375 C-2.55539063 12.14523437 -2.48578125 10.91546875 -2.4140625 9.6484375 C-2 6 -2 6 0 0 Z " fill="#FD1313" transform="translate(120,2)"/>
<path d="M0 0 C2.70269771 4.86485588 3.07371373 9.03236188 2.83276367 14.55911255 C2.29204498 29.2300947 5.17946717 43.58560055 7.63562012 57.98443604 C8.60053896 63.65288975 9.5432959 69.32499561 10.47817993 74.99847031 C10.8035907 76.95426551 11.1393227 78.90833464 11.4753418 80.86233521 C12.5570181 87.34189185 13.24773475 93.43060518 13 100 C14.32 100.33 15.64 100.66 17 101 C17.12117187 102.01578125 17.24234375 103.0315625 17.3671875 104.078125 C17.53631962 105.46876688 17.70559853 106.85939091 17.875 108.25 C17.95363281 108.91257812 18.03226563 109.57515625 18.11328125 110.2578125 C18.62412732 114.42317278 19.27897772 118.52870098 20.0390625 122.65625 C21.18956226 129.52900066 21.46553056 136.2889188 21.5 143.25 C21.50434052 143.92500549 21.50868103 144.60001099 21.51315308 145.29547119 C21.54963263 163.78501471 18.8944866 182.07996352 16.41015625 200.3671875 C16.28403458 201.29697418 16.1579129 202.22676086 16.02796936 203.1847229 C15.90796066 204.04012665 15.78795197 204.8955304 15.66430664 205.77685547 C15.50775352 206.89663284 15.50775352 206.89663284 15.34803772 208.03903198 C15 210 15 210 14 213 C10.04243356 213.22515501 6.08402412 213.42727348 2.125 213.625 C0.99707031 213.68945312 -0.13085938 213.75390625 -1.29296875 213.8203125 C-2.36933594 213.871875 -3.44570312 213.9234375 -4.5546875 213.9765625 C-5.54968262 214.02893066 -6.54467773 214.08129883 -7.56982422 214.13525391 C-10 214 -10 214 -12 212 C-12.56126411 209.62696559 -13.01346276 207.31621336 -13.40234375 204.9140625 C-13.52466873 204.19430237 -13.64699371 203.47454224 -13.77302551 202.73297119 C-14.17127665 200.36519664 -14.55564188 197.99547045 -14.9375 195.625 C-15.07039429 194.81146057 -15.20328857 193.99792114 -15.34020996 193.159729 C-18.22614003 175.43131356 -20.59934973 157.68780366 -21.41015625 139.73046875 C-22.22022606 122.02226723 -24.16246834 105.52578708 -28.25390625 88.19824219 C-29.37824502 83.37859629 -30.37462522 78.53407939 -31.375 73.6875 C-31.69437836 72.17037596 -32.0145739 70.6534235 -32.3359375 69.13671875 C-32.55507812 68.10160156 -32.77421875 67.06648438 -33 66 C-33.25168945 66.77077881 -33.50337891 67.54155762 -33.76269531 68.33569336 C-34.92025771 71.87124541 -36.08507092 75.40436869 -37.25 78.9375 C-37.64574219 80.14986328 -38.04148438 81.36222656 -38.44921875 82.61132812 C-40.15554588 87.77226838 -41.83937937 92.83900475 -44.171875 97.75390625 C-48.50537996 107.22891064 -48.33894362 117.31498481 -48.37109375 127.54296875 C-48.38008761 129.03973973 -48.38920981 130.53650995 -48.39845276 132.03327942 C-48.41485322 135.15900843 -48.42262615 138.2846315 -48.42553711 141.41040039 C-48.43090558 145.3729395 -48.46855968 149.3344519 -48.51428127 153.29670238 C-48.54434756 156.38639257 -48.55126702 159.47584451 -48.55226326 162.56566811 C-48.5564088 164.02422082 -48.56860817 165.48277816 -48.58978081 166.94118309 C-48.73292146 177.65420942 -46.74215843 186.05964976 -43 196 C-41.27403077 202.07933656 -41 206.43128454 -41 213 C-82.58 213 -124.16 213 -167 213 C-167 205.67290664 -166.78615509 200.82273178 -164.625 194.1875 C-164.29242188 193.10178711 -164.29242188 193.10178711 -163.953125 191.99414062 C-163.08184574 189.18810889 -162.22002935 186.47397629 -160.98123169 183.80541992 C-159.81273942 180.46460703 -159.68964574 177.68244153 -159.61425781 174.14379883 C-159.59790283 173.47282166 -159.58154785 172.80184448 -159.56469727 172.11053467 C-159.51517211 169.89273419 -159.48195723 167.67519348 -159.453125 165.45703125 C-159.44247765 164.68869146 -159.43183029 163.92035168 -159.42086029 163.12872887 C-159.36740532 159.03988021 -159.32870156 154.9511518 -159.29980469 150.86206055 C-159.27345441 147.53212476 -159.21840111 144.20473799 -159.13574219 140.87573242 C-158.6284661 119.98399535 -159.73115653 103.44580213 -168.9095459 84.30380249 C-171.15990765 79.54946298 -172 76.3012917 -172 71 C-105.175 70.505 -105.175 70.505 -37 70 C-36.01 67.03 -35.02 64.06 -34 61 C-31.98626769 56.2859046 -29.31046684 52.75717108 -25.8125 49.0625 C-25.32273682 48.53672363 -24.83297363 48.01094727 -24.32836914 47.46923828 C-21.07379846 44.01821143 -17.66851307 40.84743851 -14.0546875 37.7734375 C-11.50148457 35.56972243 -9.01605272 33.31454123 -6.5625 31 C-5.29599609 29.824375 -5.29599609 29.824375 -4.00390625 28.625 C-1.54533574 25.4044164 -1.33984543 22.98241402 -1 19 C-0.67 18.67 -0.34 18.34 0 18 C0.08631874 16.65732587 0.10706473 15.31025678 0.09765625 13.96484375 C0.09443359 13.15595703 0.09121094 12.34707031 0.08789062 11.51367188 C0.07951172 10.66353516 0.07113281 9.81339844 0.0625 8.9375 C0.05573242 7.65649414 0.05573242 7.65649414 0.04882812 6.34960938 C0.03700373 4.23304337 0.01906769 2.11651315 0 0 Z " fill="#FDE9D2" transform="translate(248,73)"/>
<path d="M0 0 C0.33 0 0.66 0 1 0 C0.979375 0.89460938 0.95875 1.78921875 0.9375 2.7109375 C1.10448267 12.50029628 3.24789464 17.10856549 10 24 C10.94953897 25.03128073 11.8946653 26.06663728 12.8359375 27.10546875 C14.70275411 29.16538284 16.5853796 31.2080348 18.484375 33.23828125 C20.08481103 34.99528167 21.63314795 36.80230065 23.10546875 38.66796875 C24.81228713 40.768939 26.44711323 42.33419208 28.5625 44 C33.80459717 48.41144366 35.32765411 52.14207194 36 59 C36.99 59.33 37.98 59.66 39 60 C38.67 61.98 38.34 63.96 38 66 C36 63 36 63 35 61 C28.94699296 87.57900568 24.44263032 113.29845765 22.90649414 140.56616211 C22.24491214 151.2570388 21.0144742 161.82678476 19.5625 172.4375 C19.45899231 173.20138031 19.35548462 173.96526062 19.24884033 174.75228882 C18.14463775 182.83155648 16.90753695 190.88405676 15.46484375 198.91015625 C15.23273193 200.20187744 15.00062012 201.49359863 14.76147461 202.82446289 C14 206 14 206 12 209 C9.78515625 209.35644531 9.78515625 209.35644531 7.0625 209.328125 C6.08539063 209.32296875 5.10828125 209.3178125 4.1015625 209.3125 C2.56628906 209.2815625 2.56628906 209.2815625 1 209.25 C-0.53527344 209.24226563 -0.53527344 209.24226563 -2.1015625 209.234375 C-9.69145889 209.15427055 -9.69145889 209.15427055 -12 208 C-12.59089119 205.59003019 -13.04674686 203.25731765 -13.4375 200.8125 C-13.62481689 199.69572876 -13.62481689 199.69572876 -13.81591797 198.55639648 C-15.42633625 188.73807231 -16.78008147 178.87395241 -18 169 C-18.09861328 168.25226318 -18.19722656 167.50452637 -18.29882812 166.73413086 C-19.19990327 159.11145653 -19.22116837 151.46391078 -19.24023438 143.79858398 C-19.24988103 141.46626284 -19.28096831 139.13484779 -19.3125 136.80273438 C-19.37648834 127.50565262 -18.56042861 118.77713468 -16.71459961 109.66259766 C-15.82634309 105.10994157 -15.36669255 100.62032609 -15 96 C-13.515 95.505 -13.515 95.505 -12 95 C-11.90203125 94.04834961 -11.8040625 93.09669922 -11.703125 92.11621094 C-10.78164652 83.57302573 -9.57822061 75.10978762 -8.125 66.640625 C-7.95440063 65.64510117 -7.78380127 64.64957733 -7.60803223 63.62388611 C-7.25333568 61.55779921 -6.89839218 59.4917547 -6.54321289 57.42575073 C-3.26916073 38.28486927 -0.58403746 19.43183267 0 0 Z " fill="#FDE9D3" transform="translate(38,78)"/>
<path d="M0 0 C16.17 0 32.34 0 49 0 C49.99 9.9 49.99 9.9 51 20 C56.70370205 24.32914939 56.70370205 24.32914939 62.65844727 27.04125977 C63.43970978 27.32139923 64.22097229 27.6015387 65.02590942 27.89016724 C66.21964676 28.31578445 66.21964676 28.31578445 67.4375 28.75 C69.04992988 29.39447035 70.659247 30.04678243 72.26538086 30.70678711 C76.138224 32.28078196 80.03690285 33.76865367 83.95397949 35.22845459 C88.36951752 36.89353472 92.71390416 38.73151228 97.0625 40.5625 C97.79605713 40.86220703 98.52961426 41.16191406 99.28540039 41.47070312 C105.10780303 43.89332802 110.09563207 47.02156046 115 51 C115.99 51.721875 116.98 52.44375 118 53.1875 C120.04997781 55.04529239 120.85275472 56.52625237 122 59 C110.39942657 59.34328746 98.9716014 58.40502573 87.42480469 57.40087891 C84.27068688 57.12679761 81.11592878 56.86147287 77.9609375 56.59765625 C69.56892478 55.88716708 61.18632817 55.16918815 52.82415771 54.16099548 C43.20160971 53.00329055 33.68993538 52.56422152 24 52.5625 C23.16982361 52.56010315 22.33964722 52.5577063 21.48431396 52.55523682 C1.00325548 52.55475567 -19.24080265 54.82918629 -39.57266235 57.09042358 C-47.74753682 57.99377209 -55.92174245 58.71956444 -64.125 59.3125 C-65.17284668 59.38839355 -66.22069336 59.46428711 -67.30029297 59.54248047 C-69.53315861 59.70031215 -71.76651105 59.85124875 -74 60 C-71.32874997 52.05509656 -64.60111943 47.59547501 -57.375 43.875 C-53.03337481 41.86466148 -48.6485997 40.04971968 -44.19140625 38.3125 C-35.51109018 34.88274015 -27.0417374 31.01987705 -18.5625 27.125 C-17.04116318 26.42936472 -15.51967943 25.73405067 -13.99804688 25.0390625 C-10.33033552 23.3630545 -6.66460982 21.68277806 -3 20 C-2.92652344 18.58847656 -2.92652344 18.58847656 -2.8515625 17.1484375 C-2.77679688 15.90320312 -2.70203125 14.65796875 -2.625 13.375 C-2.55539063 12.14523437 -2.48578125 10.91546875 -2.4140625 9.6484375 C-2 6 -2 6 0 0 Z " fill="#FDE8D2" transform="translate(120,2)"/>
<path d="M0 0 C3.3 0 6.6 0 10 0 C10.43570313 1.03898438 10.87140625 2.07796875 11.3203125 3.1484375 C17.30978932 17.2583768 24.63207539 31.3726568 36 42 C35.34 43.65 34.68 45.3 34 47 C28.53079873 44.78627568 25.53656363 41.54366453 22 37 C21.19949219 36.02289063 20.39898437 35.04578125 19.57421875 34.0390625 C6.47299822 17.83736649 6.47299822 17.83736649 7 8 C6.34 8 5.68 8 5 8 C4.773125 9.134375 4.54625 10.26875 4.3125 11.4375 C1.24043105 23.57643913 -7.83234345 34.02718824 -16.1796875 42.96875 C-18.04541874 44.87094078 -18.04541874 44.87094078 -19 47 C-20.32 46.67 -21.64 46.34 -23 46 C-23.75390625 44.2890625 -23.75390625 44.2890625 -24 42 C-22.33984375 39.7734375 -22.33984375 39.7734375 -19.9375 37.375 C-15.9024285 33.15137376 -12.96067819 28.96421888 -10.19140625 23.8359375 C-9.79824219 23.23007813 -9.40507812 22.62421875 -9 22 C-8.34 22 -7.68 22 -7 22 C-6.72414062 21.13632813 -6.44828125 20.27265625 -6.1640625 19.3828125 C-4.68364928 15.08067206 -2.85554727 10.96664784 -1.0234375 6.8046875 C0.22852891 3.87132301 0.22852891 3.87132301 0 0 Z " fill="#F4C195" transform="translate(138,144)"/>
<path d="M0 0 C0.99 1.0209375 0.99 1.0209375 2 2.0625 C4.26781027 4.34974865 6.66310057 6.42419181 9.125 8.5 C14.52278965 13.21671261 16.29220186 16.78045893 17 24 C17.99 24.33 18.98 24.66 20 25 C19.67 26.98 19.34 28.96 19 31 C17 28 17 28 16 26 C15.79636841 27.0372522 15.79636841 27.0372522 15.58862305 28.09545898 C14.96869767 31.21240076 14.32840257 34.32480702 13.6875 37.4375 C13.47416016 38.52611328 13.26082031 39.61472656 13.04101562 40.73632812 C12.82509766 41.77080078 12.60917969 42.80527344 12.38671875 43.87109375 C12.19295654 44.82943115 11.99919434 45.78776855 11.79956055 46.77514648 C11.53570557 47.50934814 11.27185059 48.2435498 11 49 C9.515 49.495 9.515 49.495 8 50 C7.83395264 49.11328613 7.66790527 48.22657227 7.49682617 47.31298828 C6.86927311 43.97605162 6.2368692 40.64010646 5.60131836 37.3046875 C5.32890687 35.86982626 5.05834948 34.43461156 4.78979492 32.99902344 C3.40091294 25.5813074 2.00930396 18.26320743 -0.45581055 11.10888672 C-1.45274345 7.24549219 -1.12332863 3.79123412 0 0 Z " fill="#F6C094" transform="translate(57,113)"/>
<path d="M0 0 C1 3 1 3 1 7 C0.34 7 -0.32 7 -1 7 C-1.05498657 7.80219971 -1.05498657 7.80219971 -1.11108398 8.62060547 C-1.80111615 16.9061091 -3.44063596 24.98483165 -5.0625 33.125 C-5.34742868 34.57283339 -5.63193702 36.02074957 -5.91601562 37.46875 C-6.60583869 40.98013338 -7.30132575 44.49036568 -8 48 C-8.66 48 -9.32 48 -10 48 C-12.5239256 42.01429666 -13.60830467 36.70362598 -14.125 30.25 C-14.27094103 28.58832052 -14.419292 26.92685054 -14.5703125 25.265625 C-14.62977051 24.54149414 -14.68922852 23.81736328 -14.75048828 23.07128906 C-14.94751966 20.96877434 -14.94751966 20.96877434 -15.61254883 18.87915039 C-16 17 -16 17 -14.62890625 14.66796875 C-10.12052907 9.25621164 -5.49669628 4.41489967 0 0 Z " fill="#F5BF90" transform="translate(231,114)"/>
<path d="M0 0 C8.76113609 -0.31858677 16.0696802 1.28793541 24 5 C24 5.66 24 6.32 24 7 C26.32657031 8.4648776 27.66115934 9.01737644 30.4375 8.875 C33.57415632 7.80394662 35.50923819 6.16302999 38 4 C44.78727797 -0.52485198 52.12078111 -0.26070945 60 0 C60 1.98 60 3.96 60 6 C58.98292969 6.02126953 58.98292969 6.02126953 57.9453125 6.04296875 C50.74250208 6.41208784 45.06115185 7.99664662 39 12 C38.67 12.66 38.34 13.32 38 14 C29.55084682 14.33846756 23.9202259 14.3558912 16.80078125 9.5 C13.46161328 7.71165899 10.39899989 7.04092521 6.6875 6.3125 C5.43324219 6.06113281 4.17898437 5.80976562 2.88671875 5.55078125 C1.45779297 5.27814453 1.45779297 5.27814453 0 5 C0 3.35 0 1.7 0 0 Z " fill="#F5C093" transform="translate(114,40)"/>
<path d="M0 0 C0.33 0 0.66 0 1 0 C1 2.97 1 5.94 1 9 C2.01363743 8.78766488 2.01363743 8.78766488 3.04775238 8.57104015 C9.50964871 7.29501936 15.62045265 6.71470194 22.19726562 6.75708008 C23.14990295 6.75518173 24.10254028 6.75328339 25.08404541 6.75132751 C28.1915342 6.74766191 31.29878248 6.75825848 34.40625 6.76953125 C36.58052544 6.77072496 38.7548014 6.77117581 40.92907715 6.7709198 C45.46447013 6.77247706 49.99978332 6.7807127 54.53515625 6.79418945 C60.35369231 6.8112595 66.17214159 6.81500105 71.99069977 6.81424427 C76.47042674 6.81451571 80.95013469 6.81999147 85.42985535 6.82724571 C87.57651119 6.83042973 89.72316919 6.83239917 91.86982727 6.83313942 C94.85921945 6.8353012 97.8485184 6.84403961 100.83789062 6.85473633 C102.17034821 6.85405655 102.17034821 6.85405655 103.52972412 6.85336304 C104.34253845 6.85762802 105.15535278 6.86189301 105.99279785 6.86628723 C107.05124783 6.868801 107.05124783 6.868801 108.13108063 6.87136555 C110 7 110 7 113 8 C115.05893621 8.22325814 117.12233653 8.40705759 119.1875 8.5625 C120.27417969 8.64628906 121.36085938 8.73007812 122.48046875 8.81640625 C123.31191406 8.87699219 124.14335937 8.93757813 125 9 C125 6.69 125 4.38 125 2 C125.33 2 125.66 2 126 2 C126 4.64 126 7.28 126 10 C84.42 10 42.84 10 0 10 C0 6.7 0 3.4 0 0 Z " fill="#FAF1E3" transform="translate(81,276)"/>
<path d="M0 0 C2.57876935 0.34848234 4.50123403 0.63551717 6.625 2.1875 C8.46685313 4.61539731 9.63722719 7.27445439 11 10 C12.29525113 11.83202187 13.63262168 13.61708091 15.01171875 15.38671875 C16 17 16 17 16 20 C14.02 20.33 12.04 20.66 10 21 C6.77360381 17.29561919 4.45535303 13.39120025 2.1484375 9.0859375 C0.93031651 6.8037957 0.93031651 6.8037957 -1 4 C-0.625 1.8125 -0.625 1.8125 0 0 Z " fill="#F4C092" transform="translate(184,231)"/>
<path d="M0 0 C2.97 0.495 2.97 0.495 6 1 C5.44767551 5.17228905 4.09995228 7.68424236 1.625 11.0625 C1.01914063 11.89910156 0.41328125 12.73570312 -0.2109375 13.59765625 C-1.09652344 14.78681641 -1.09652344 14.78681641 -2 16 C-2.48726563 16.76183594 -2.97453125 17.52367187 -3.4765625 18.30859375 C-3.97929688 18.86675781 -4.48203125 19.42492187 -5 20 C-6.32 20 -7.64 20 -9 20 C-8.55502003 14.45540829 -7.03112247 10.71629132 -3.9375 6.0625 C-3.37192383 5.17981445 -3.37192383 5.17981445 -2.79492188 4.27929688 C-1.87421123 2.84578537 -0.93863006 1.4218428 0 0 Z " fill="#F4C297" transform="translate(99,231)"/>
<path d="M0 0 C1.98 0 3.96 0 6 0 C6 1.98 6 3.96 6 6 C9.3 5.67 12.6 5.34 16 5 C16.33 6.98 16.66 8.96 17 11 C12.65419392 12.2049735 8.48031139 12.71520567 4 12 C1.4375 9.9375 1.4375 9.9375 0 7 C-0.25 3.1875 -0.25 3.1875 0 0 Z " fill="#F2C197" transform="translate(24,174)"/>
<path d="M0 0 C1.2065625 0.0309375 1.2065625 0.0309375 2.4375 0.0625 C3.171875 1.6796875 3.171875 1.6796875 3.4375 4.0625 C1.890625 7.0078125 1.890625 7.0078125 -0.3125 10.1875 C-1.02921875 11.24195313 -1.7459375 12.29640625 -2.484375 13.3828125 C-4.5625 16.0625 -4.5625 16.0625 -7.5625 18.0625 C-8.5525 17.4025 -9.5425 16.7425 -10.5625 16.0625 C-9.98320126 12.03637377 -8.70600034 9.25446689 -6.5625 5.8125 C-6.02625 4.94109375 -5.49 4.0696875 -4.9375 3.171875 C-2.91627272 0.0711286 -2.91627272 0.0711286 0 0 Z " fill="#F3C69E" transform="translate(167.5625,230.9375)"/>
<path d="M0 0 C1.65 0 3.3 0 5 0 C5.6 7.2 5.6 7.2 3.125 10.5 C-1.19343581 12.57284919 -5.27722845 12.71886434 -10 12 C-10.66 11.34 -11.32 10.68 -12 10 C-11.625 7.375 -11.625 7.375 -11 5 C-7.7 5.33 -4.4 5.66 -1 6 C-0.67 4.02 -0.34 2.04 0 0 Z " fill="#F3C196" transform="translate(259,174)"/>
<path d="M0 0 C3 5.75 3 5.75 3 8 C3.66 8 4.32 8 5 8 C8.03553801 13.34254689 8.03553801 13.34254689 7.875 16.3125 C7 18 7 18 4 19 C2.66104368 17.33784732 1.32869858 15.67036393 0 14 C-0.86625 12.948125 -0.86625 12.948125 -1.75 11.875 C-3 10 -3 10 -3 7 C-3.66 7 -4.32 7 -5 7 C-5.33 5.35 -5.66 3.7 -6 2 C-3 0 -3 0 0 0 Z " fill="#F4C499" transform="translate(123,230)"/>
<path d="M0 0 C9.56009184 -0.17402074 19.10227369 0.18781149 28.64501953 0.73242188 C30.47487963 0.8279896 32.30580061 0.90494621 34.13720703 0.96386719 C49.41794455 1.47005012 49.41794455 1.47005012 53.37207031 5.29394531 C54.74776319 7.92871479 55.60962305 10.05691889 56 13 C55.67 13.66 55.34 14.32 55 15 C52.525 14.01 52.525 14.01 50 13 C50 10.69 50 8.38 50 6 C36.67957411 4.30616807 23.41741577 3.46475419 10 3 C10 2.34 10 1.68 10 1 C6.7 1 3.4 1 0 1 C0 0.67 0 0.34 0 0 Z " fill="#E32824" transform="translate(192,58)"/>
<path d="M0 0 C-2.67700976 2.67700976 -4.334382 2.3536543 -8.0625 2.5625 C-11.84823226 2.45881941 -11.84823226 2.45881941 -15 4 C-16.32886073 4.14386104 -17.66448587 4.22676288 -19 4.28125 C-19.804375 4.31863281 -20.60875 4.35601562 -21.4375 4.39453125 C-23.14583333 4.46484375 -24.85416667 4.53515625 -26.5625 4.60546875 C-27.366875 4.64285156 -28.17125 4.68023437 -29 4.71875 C-30.11375 4.76418945 -30.11375 4.76418945 -31.25 4.81054688 C-33.02688855 4.81792413 -33.02688855 4.81792413 -34 6 C-35.92667507 6.08748207 -37.85651861 6.10697334 -39.78515625 6.09765625 C-40.95498047 6.09443359 -42.12480469 6.09121094 -43.33007812 6.08789062 C-45.17762695 6.07532227 -45.17762695 6.07532227 -47.0625 6.0625 C-48.91584961 6.05573242 -48.91584961 6.05573242 -50.80664062 6.04882812 C-53.87114117 6.03699608 -56.93554721 6.02051173 -60 6 C-60 5.67 -60 5.34 -60 5 C-52.74141204 4.28249289 -45.48224681 3.57105997 -38.22265625 2.86376953 C-35.75507247 2.62264284 -33.28762219 2.38014577 -30.8203125 2.13623047 C-27.26597074 1.7850959 -23.71117195 1.43895496 -20.15625 1.09375 C-18.51203064 0.92969666 -18.51203064 0.92969666 -16.83459473 0.7623291 C-11.19117161 0.21937713 -5.66936969 -0.11960696 0 0 Z " fill="#E6322D" transform="translate(120,55)"/>
<path d="M0 0 C4.16720946 6.25081419 4.50559884 12.68806698 5 20 C7.91672884 20.02700675 10.83320677 20.04684237 13.75 20.0625 C14.575 20.07087891 15.4 20.07925781 16.25 20.08789062 C17.44882813 20.09272461 17.44882813 20.09272461 18.671875 20.09765625 C19.77160645 20.10551147 19.77160645 20.10551147 20.89355469 20.11352539 C23.08055378 19.99565861 24.92864063 19.71538093 27 19 C28.35091528 16.29816945 28.33858058 13.88191794 28.5625 10.875 C28.64628906 9.77929688 28.73007812 8.68359375 28.81640625 7.5546875 C28.90728516 6.29011719 28.90728516 6.29011719 29 5 C29.66 5 30.32 5 31 5 C30.85899143 7.27113803 30.71203245 9.54190725 30.5625 11.8125 C30.48128906 13.07707031 30.40007812 14.34164063 30.31640625 15.64453125 C30 19 30 19 29 22 C25.04243356 22.22515501 21.08402412 22.42727348 17.125 22.625 C15.99707031 22.68945312 14.86914062 22.75390625 13.70703125 22.8203125 C12.63066406 22.871875 11.55429688 22.9234375 10.4453125 22.9765625 C9.45031738 23.02893066 8.45532227 23.08129883 7.43017578 23.13525391 C5 23 5 23 3 21 C2.36800014 18.19948688 1.83545056 15.45348198 1.375 12.625 C1.2409375 11.85671875 1.106875 11.0884375 0.96875 10.296875 C0.36935172 6.76164842 0 3.61233133 0 0 Z " fill="#FBF3E8" transform="translate(233,264)"/>
<path d="M0 0 C0.99 0.33 1.98 0.66 3 1 C3 3.64 3 6.28 3 9 C2.01 7.02 2.01 7.02 1 5 C0.01 6.98 -0.98 8.96 -2 11 C-23.12 11.33 -44.24 11.66 -66 12 C-66 11.34 -66 10.68 -66 10 C-45.21 9.67 -24.42 9.34 -3 9 C-1.515 4.545 -1.515 4.545 0 0 Z " fill="#FDCCBB" transform="translate(214,134)"/>
<path d="M0 0 C3.80461693 6.84831048 3.94539856 15.02735246 2.50390625 22.609375 C0.82287163 28.42176588 0.82287163 28.42176588 -2.3125 30.625 C-3.6428125 31.305625 -3.6428125 31.305625 -5 32 C-6.0359763 33.15624796 -7.03351763 34.34756458 -8 35.5625 C-10.38789045 38.49477998 -12.24824727 40.00688898 -16 41 C-12.72640757 37.07168908 -9.44671277 33.46795844 -5.6875 30 C-1.94559059 26.35057124 -1.10543591 24.1663596 -1 19 C-0.67 18.67 -0.34 18.34 0 18 C0.08631874 16.65732587 0.10706473 15.31025678 0.09765625 13.96484375 C0.09282227 12.75151367 0.09282227 12.75151367 0.08789062 11.51367188 C0.07951172 10.66353516 0.07113281 9.81339844 0.0625 8.9375 C0.05798828 8.08349609 0.05347656 7.22949219 0.04882812 6.34960938 C0.03700373 4.23304337 0.01906769 2.11651315 0 0 Z " fill="#FECDB9" transform="translate(248,73)"/>
<path d="M0 0 C16.17 0 32.34 0 49 0 C49 0.33 49 0.66 49 1 C47.13081909 1.03758423 47.13081909 1.03758423 45.22387695 1.07592773 C40.59259074 1.17022911 35.96144656 1.2703941 31.33032227 1.37231445 C29.32742642 1.41557739 27.32449575 1.45725847 25.3215332 1.49731445 C22.43950921 1.55522662 19.55765912 1.61886047 16.67578125 1.68359375 C15.78288895 1.70030624 14.88999664 1.71701874 13.970047 1.73423767 C7.91763066 1.8373721 7.91763066 1.8373721 2 3 C-0.59606564 6.28091731 -0.40025842 10.20465152 -0.625 14.25 C-0.69976562 15.51328125 -0.77453125 16.7765625 -0.8515625 18.078125 C-0.90054688 19.04234375 -0.94953125 20.0065625 -1 21 C-1.66 20.67 -2.32 20.34 -3 20 C-2.88501733 17.79112243 -2.75756495 15.58289213 -2.625 13.375 C-2.55539063 12.14523437 -2.48578125 10.91546875 -2.4140625 9.6484375 C-2 6 -2 6 0 0 Z " fill="#FFFEF1" transform="translate(120,2)"/>
<path d="M0 0 C0.33 0 0.66 0 1 0 C1.41449132 6.21736987 0.42583636 12.22990364 -2 18 C-6.33500383 19.44500128 -10.52219087 19.18431828 -15.0625 19.1875 C-15.98611328 19.19974609 -16.90972656 19.21199219 -17.86132812 19.22460938 C-18.74369141 19.22654297 -19.62605469 19.22847656 -20.53515625 19.23046875 C-21.343479 19.23457764 -22.15180176 19.23868652 -22.98461914 19.24291992 C-25 19 -25 19 -27 17 C-19.08 16.67 -11.16 16.34 -3 16 C-3 12.37 -3 8.74 -3 5 C-2.01 4.67 -1.02 4.34 0 4 C0 2.68 0 1.36 0 0 Z " fill="#FCF5EB" transform="translate(53,268)"/>
<path d="M0 0 C0.33 0 0.66 0 1 0 C1.09765625 6.15234375 1.09765625 6.15234375 1 8 C0.67 8.33 0.34 8.66 0 9 C-0.23701239 11.85877909 -0.42219182 14.69883297 -0.5625 17.5625 C-0.60568359 18.36880859 -0.64886719 19.17511719 -0.69335938 20.00585938 C-0.79975262 22.00368805 -0.90040888 24.0018207 -1 26 C-0.34 26 0.32 26 1 26 C1 25.34 1 24.68 1 24 C1.99 24.33 2.98 24.66 4 25 C3.67 25.66 3.34 26.32 3 27 C2.34 27 1.68 27 1 27 C0.67 27.99 0.34 28.98 0 30 C-2.58190993 27.45907277 -3.23171065 25.46232813 -3.3984375 21.953125 C-3.40638196 20.38541733 -3.39805233 18.81755831 -3.375 17.25 C-3.38660156 16.4765625 -3.39820313 15.703125 -3.41015625 14.90625 C-3.38201069 9.31466484 -2.21402233 5.13090889 0 0 Z " fill="#DC2524" transform="translate(42,66)"/>
<path d="M0 0 C3.93586795 1.16287008 6.8389598 2.38396673 10 5 C10.99 5.66 11.98 6.32 13 7 C8.62527437 7.33699997 4.25017987 7.66895367 -0.125 8 C-1.3625 8.09539063 -2.6 8.19078125 -3.875 8.2890625 C-5.07382813 8.37929688 -6.27265625 8.46953125 -7.5078125 8.5625 C-9.15740967 8.68818359 -9.15740967 8.68818359 -10.84033203 8.81640625 C-13.90200278 8.99430583 -16.93399307 9.03231628 -20 9 C-20 8.67 -20 8.34 -20 8 C-14.83184719 5.94277412 -10.1077704 5.58486681 -4.625 5.375 C-3.79355469 5.33632813 -2.96210937 5.29765625 -2.10546875 5.2578125 C-0.07064844 5.16425754 1.96464416 5.08107287 4 5 C3.01 4.319375 3.01 4.319375 2 3.625 C1.34 3.08875 0.68 2.5525 0 2 C0 1.34 0 0.68 0 0 Z " fill="#FFD6C2" transform="translate(126,47)"/>
<path d="M0 0 C0 5.25102544 -0.16211941 10.45939105 -3 15 C-3.99 15 -4.98 15 -6 15 C-6 14.34 -6 13.68 -6 13 C-6.99 13 -7.98 13 -9 13 C-7.47987323 7.59510481 -3.72614782 4.01507372 0 0 Z " fill="#FBB68A" transform="translate(224,120)"/>
<path d="M0 0 C0.66 0.66 1.32 1.32 2 2 C1.34 3.32 0.68 4.64 0 6 C-0.66 6 -1.32 6 -2 6 C-2.12375 6.598125 -2.2475 7.19625 -2.375 7.8125 C-3 10 -3 10 -5 13 C-6.32 12.67 -7.64 12.34 -9 12 C-7.13601933 6.00863357 -5.55561689 3.07020933 0 0 Z " fill="#F6C192" transform="translate(166,234)"/>
<path d="M0 0 C0.33 0 0.66 0 1 0 C1.04898438 0.97582031 1.09796875 1.95164062 1.1484375 2.95703125 C1.22320312 4.22933594 1.29796875 5.50164062 1.375 6.8125 C1.44460937 8.07707031 1.51421875 9.34164062 1.5859375 10.64453125 C1.76102939 14.12755234 1.76102939 14.12755234 4 17 C4.125 19.6875 4.125 19.6875 4 22 C4.99 22.33 5.98 22.66 7 23 C6.67 23.99 6.34 24.98 6 26 C5.01 25.67 4.02 25.34 3 25 C2.67 24.34 2.34 23.68 2 23 C1.34 23.66 0.68 24.32 0 25 C0 16.75 0 8.5 0 0 Z " fill="#FAEBD3" transform="translate(38,78)"/>
<path d="M0 0 C0 1.98 0 3.96 0 6 C-1.98 6 -3.96 6 -6 6 C-4.68 5.67 -3.36 5.34 -2 5 C-2 3.68 -2 2.36 -2 1 C-3.27875 1.103125 -4.5575 1.20625 -5.875 1.3125 C-6.59429687 1.37050781 -7.31359375 1.42851563 -8.0546875 1.48828125 C-10.39519216 1.87393036 -10.39519216 1.87393036 -12 5 C-15.25787048 5.92070253 -17.19296594 6.31856608 -20.375 5.0625 C-20.91125 4.711875 -21.4475 4.36125 -22 4 C-15.21272203 -0.52485198 -7.87921889 -0.26070945 0 0 Z " fill="#F2C59D" transform="translate(174,40)"/>
<path d="M0 0 C3.00097623 1.50048811 3.51090421 4.02180843 5 7 C6.29430362 8.83295094 7.63250358 10.61692937 9.01171875 12.38671875 C10 14 10 14 10 17 C8.02 17.33 6.04 17.66 4 18 C-0.42857143 12.85714286 -0.42857143 12.85714286 -1 9 C-0.34 9 0.32 9 1 9 C4 13.38461538 4 13.38461538 4 16 C4.99 16 5.98 16 7 16 C6.4946875 15.01257813 5.989375 14.02515625 5.46875 13.0078125 C4.81228987 11.71364824 4.15605133 10.41937155 3.5 9.125 C3.16613281 8.47402344 2.83226562 7.82304687 2.48828125 7.15234375 C0 2.2265625 0 2.2265625 0 0 Z " fill="#F1C7A0" transform="translate(190,234)"/>
<path d="M0 0 C4.00998508 4.00998508 3.73019084 11.48076577 4 17 C3.96939468 23.68053029 3.50028881 30.34075035 3 37 C2.67 37 2.34 37 2 37 C1.34 24.79 0.68 12.58 0 0 Z " fill="#FBF1E6" transform="translate(225,184)"/>
<path d="M0 0 C0.33 0 0.66 0 1 0 C1.27024233 28.56253589 1.27024233 28.56253589 -1.54296875 31.74609375 C-2.02378906 32.15988281 -2.50460938 32.57367188 -3 33 C-2.23552389 21.9754498 -1.12880187 10.99211922 0 0 Z " fill="#FAF2E5" transform="translate(37,94)"/>
<path d="M0 0 C2.97 0 5.94 0 9 0 C9.86375896 1.61992165 10.71575854 3.24611861 11.5625 4.875 C12.03816406 5.77992187 12.51382813 6.68484375 13.00390625 7.6171875 C13.49697266 8.79667969 13.49697266 8.79667969 14 10 C13.67 10.66 13.34 11.32 13 12 C10.525 11.01 10.525 11.01 8 10 C8 7.69 8 5.38 8 3 C5.36 2.67 2.72 2.34 0 2 C0 1.34 0 0.68 0 0 Z " fill="#EE4140" transform="translate(234,61)"/>
<path d="M0 0 C2.7032212 4.86579816 3.12884346 9.30599244 3.0625 14.8125 C3.05347656 15.78832031 3.04445312 16.76414062 3.03515625 17.76953125 C3.02355469 18.50558594 3.01195312 19.24164063 3 20 C2.34 20 1.68 20 1 20 C0.67 21.65 0.34 23.3 0 25 C-0.33 25 -0.66 25 -1 25 C-1.04254356 23.00045254 -1.04080783 20.99958364 -1 19 C-0.67 18.67 -0.34 18.34 0 18 C0.08631874 16.65732587 0.10706473 15.31025678 0.09765625 13.96484375 C0.09443359 13.15595703 0.09121094 12.34707031 0.08789062 11.51367188 C0.07532227 10.2384668 0.07532227 10.2384668 0.0625 8.9375 C0.05573242 7.65649414 0.05573242 7.65649414 0.04882812 6.34960938 C0.03700373 4.23304337 0.01906769 2.11651315 0 0 Z " fill="#EE817F" transform="translate(248,73)"/>
<path d="M0 0 C1.32 0.33 2.64 0.66 4 1 C4 1.99 4 2.98 4 4 C6.97 4.33 9.94 4.66 13 5 C12.67 5.99 12.34 6.98 12 8 C11.34 7.67 10.68 7.34 10 7 C10 8.65 10 10.3 10 12 C6.40459445 8.50732032 3.12221448 4.92506963 0 1 C0 0.67 0 0.34 0 0 Z " fill="#EF2423" transform="translate(43,96)"/>
<path d="M0 0 C0.66 0 1.32 0 2 0 C2.99 3.96 3.98 7.92 5 12 C5.33 12 5.66 12 6 12 C6 13.98 6 15.96 6 18 C5.34 18 4.68 18 4 18 C1.42113193 11.94526627 0.38979206 6.55925943 0 0 Z " fill="#F1CFAC" transform="translate(217,144)"/>
<path d="M0 0 C0.99 0 1.98 0 3 0 C6.22265625 5.2734375 6.22265625 5.2734375 7 7 C6.67 7.66 6.34 8.32 6 9 C3.68001641 8.60000283 2.13676576 8.09432121 0.1875 6.75 C-1 5 -1 5 -0.6875 2.3125 C-0.460625 1.549375 -0.23375 0.78625 0 0 Z " fill="#F6BE8E" transform="translate(165,179)"/>
<path d="M0 0 C-0.33 0.99 -0.66 1.98 -1 3 C4.28 3.33 9.56 3.66 15 4 C15 4.33 15 4.66 15 5 C8.07 5 1.14 5 -6 5 C-4.87312259 1.61936778 -3.78825335 0 0 0 Z " fill="#FEDEC6" transform="translate(158,49)"/>
<path d="M0 0 C2.64 0 5.28 0 8 0 C8 0.33 8 0.66 8 1 C6.35 1 4.7 1 3 1 C3 1.99 3 2.98 3 4 C4.299375 4.12375 5.59875 4.2475 6.9375 4.375 C9.15234375 4.5859375 9.15234375 4.5859375 11 5 C11.33 5.66 11.66 6.32 12 7 C10.56208484 6.85831863 9.1246763 6.71148957 7.6875 6.5625 C6.88699219 6.48128906 6.08648437 6.40007813 5.26171875 6.31640625 C3 6 3 6 0 5 C0 3.35 0 1.7 0 0 Z " fill="#F1C39A" transform="translate(114,40)"/>
<path d="M0 0 C0.33 1.32 0.66 2.64 1 4 C1.99 4 2.98 4 4 4 C4 4.66 4 5.32 4 6 C4.99 6.33 5.98 6.66 7 7 C6.67 8.98 6.34 10.96 6 13 C4 10 4 10 3 8 C2.67 9.65 2.34 11.3 2 13 C1.67 13 1.34 13 1 13 C1.020625 12.030625 1.04125 11.06125 1.0625 10.0625 C1.35618499 7.12534105 1.35618499 7.12534105 0 6 C-0.04080783 4.00041636 -0.04254356 1.99954746 0 0 Z " fill="#F7AF97" transform="translate(70,131)"/>
<path d="M0 0 C2.64 0 5.28 0 8 0 C8 0.33 8 0.66 8 1 C7.21625 1.0825 6.4325 1.165 5.625 1.25 C2.94976955 1.71759552 2.94976955 1.71759552 1.875 3.59375 C0.70023148 6.82436343 0.56537298 9.82328637 0.375 13.25 C0.30023438 14.51328125 0.22546875 15.7765625 0.1484375 17.078125 C0.09945312 18.04234375 0.05046875 19.0065625 0 20 C-0.66 19.67 -1.32 19.34 -2 19 C-1.85820962 16.77057252 -1.71140302 14.54146372 -1.5625 12.3125 C-1.48128906 11.07113281 -1.40007812 9.82976563 -1.31640625 8.55078125 C-1.05508683 5.61819663 -0.65201621 2.86558383 0 0 Z " fill="#FBF3E8" transform="translate(119,3)"/>
<path d="M0 0 C0.33 0 0.66 0 1 0 C1.09915147 5.17791028 1.06410597 10.33296613 0.6875 15.5 C0.62949219 16.3146875 0.57148438 17.129375 0.51171875 17.96875 C0 20 0 20 -3 22 C-2.01 14.74 -1.02 7.48 0 0 Z " fill="#FCF5EC" transform="translate(29,150)"/>
<path d="M0 0 C1.98 0 3.96 0 6 0 C6 1.65 6 3.3 6 5 C5.01 4.34 4.02 3.68 3 3 C2.67 4.32 2.34 5.64 2 7 C1.34 7 0.68 7 0 7 C0 4.69 0 2.38 0 0 Z " fill="#EFC59F" transform="translate(24,174)"/>
<path d="M0 0 C0.33 1.98 0.66 3.96 1 6 C-0.32 5.67 -1.64 5.34 -3 5 C-2.34 4.01 -1.68 3.02 -1 2 C-3.64 2 -6.28 2 -9 2 C-9 1.67 -9 1.34 -9 1 C-5.846632 0.29925156 -3.27275026 0 0 0 Z " fill="#F1C49B" transform="translate(40,179)"/>
<path d="M0 0 C1.5 1.25 1.5 1.25 3 3 C3 4.32 3 5.64 3 7 C1.35 6.67 -0.3 6.34 -2 6 C-1.34 4.02 -0.68 2.04 0 0 Z " fill="#F9BE8B" transform="translate(27,176)"/>
<path d="M0 0 C6.57142857 5 6.57142857 5 8 10 C7.01 10 6.02 10 5 10 C4.71125 9.360625 4.4225 8.72125 4.125 8.0625 C3.17176549 5.84793921 3.17176549 5.84793921 1 5 C0.375 2.4375 0.375 2.4375 0 0 Z " fill="#FCA47F" transform="translate(64,120)"/>
<path d="M0 0 C0.99 0.33 1.98 0.66 3 1 C4.69262664 5.380916 5.30153263 10.32624426 5 15 C3.26830404 11.8377726 2.2871024 8.73257278 1.375 5.25 C1.11460938 4.26515625 0.85421875 3.2803125 0.5859375 2.265625 C0.39257812 1.51796875 0.19921875 0.7703125 0 0 Z " fill="#F2C9A2" transform="translate(56,121)"/>
<path d="M0 0 C0.33 0 0.66 0 1 0 C1.04898438 0.96421875 1.09796875 1.9284375 1.1484375 2.921875 C1.22320312 4.18515625 1.29796875 5.4484375 1.375 6.75 C1.47941406 8.62945312 1.47941406 8.62945312 1.5859375 10.546875 C1.95323304 13.60998121 2.39711286 15.41974266 4 18 C2.68 17.67 1.36 17.34 0 17 C0 11.39 0 5.78 0 0 Z " fill="#FEBAAE" transform="translate(38,78)"/>
<path d="M0 0 C0.66 0 1.32 0 2 0 C3.00496852 3.01490557 3.10335303 5.04181692 3.0625 8.1875 C3.05347656 9.08855469 3.04445312 9.98960937 3.03515625 10.91796875 C3.02355469 11.60503906 3.01195312 12.29210937 3 13 C1.32889958 10.03821227 0.67317248 7.62928808 0.375 4.25 C0.30023438 3.45078125 0.22546875 2.6515625 0.1484375 1.828125 C0.09945312 1.22484375 0.05046875 0.6215625 0 0 Z " fill="#FBF1E6" transform="translate(222,168)"/>
<path d="M0 0 C2.28199051 4.56398103 2.14673145 6.14844387 1 11 C0.01 11.99 -0.98 12.98 -2 14 C-1.34 9.38 -0.68 4.76 0 0 Z " fill="#FEE0BF" transform="translate(227,136)"/>
<path d="M0 0 C-3.465 2.97 -3.465 2.97 -7 6 C-6.625 3.0625 -6.625 3.0625 -6 0 C-4 -1 -4 -1 0 0 Z " fill="#EB2121" transform="translate(240,106)"/>
<path d="M0 0 C0.33 0 0.66 0 1 0 C1 2.64 1 5.28 1 8 C0.01 8.33 -0.98 8.66 -2 9 C-2.33 9.99 -2.66 10.98 -3 12 C-2.49202991 7.6822542 -1.80317221 3.96697886 0 0 Z " fill="#EF6968" transform="translate(42,66)"/>
<path d="M0 0 C1.44977894 2.34112451 2.04314411 3.5796929 1.7578125 6.359375 C1.54898437 7.14828125 1.34015625 7.9371875 1.125 8.75 C0.92132812 9.54921875 0.71765625 10.3484375 0.5078125 11.171875 C0.34023438 11.77515625 0.17265625 12.3784375 0 13 C-0.66 13 -1.32 13 -2 13 C-1.85769192 11.58297487 -1.71099254 10.1663904 -1.5625 8.75 C-1.48128906 7.96109375 -1.40007813 7.1721875 -1.31640625 6.359375 C-1.02365007 4.17635361 -0.57935581 2.1226818 0 0 Z " fill="#FDF2E5" transform="translate(22,184)"/>
<path d="M0 0 C4.35535069 1.16142685 6.64619703 2.07699505 9 6 C2.35384615 4.52307692 2.35384615 4.52307692 0.5625 1.875 C0.376875 1.25625 0.19125 0.6375 0 0 Z " fill="#FEE3C5" transform="translate(126,47)"/>
<path d="M0 0 C2.97 0 5.94 0 9 0 C9.33 0.99 9.66 1.98 10 3 C6.7 2.67 3.4 2.34 0 2 C0 1.34 0 0.68 0 0 Z " fill="#E44E48" transform="translate(234,61)"/>
<path d="M0 0 C2.97 0.495 2.97 0.495 6 1 C6.33 1.99 6.66 2.98 7 4 C4.69 3.67 2.38 3.34 0 3 C0 2.01 0 1.02 0 0 Z " fill="#F9BD88" transform="translate(117,41)"/>
<path d="M0 0 C0.33 1.32 0.66 2.64 1 4 C1.66 4 2.32 4 3 4 C3 3.34 3 2.68 3 2 C3.99 2.33 4.98 2.66 6 3 C5.67 3.66 5.34 4.32 5 5 C4.34 5 3.68 5 3 5 C2.67 5.99 2.34 6.98 2 8 C0 6 0 6 -0.125 2.875 C-0.08375 1.92625 -0.0425 0.9775 0 0 Z " fill="#ED201E" transform="translate(40,88)"/>
<path d="M0 0 C1.65 1.32 3.3 2.64 5 4 C4.67 4.66 4.34 5.32 4 6 C2.68 5.67 1.36 5.34 0 5 C-0.5625 3.0625 -0.5625 3.0625 -1 1 C-0.67 0.67 -0.34 0.34 0 0 Z " fill="#EEC59E" transform="translate(115,185)"/>
<path d="M0 0 C1.65 0 3.3 0 5 0 C4.34 1.32 3.68 2.64 3 4 C1.68 3.67 0.36 3.34 -1 3 C-0.67 2.01 -0.34 1.02 0 0 Z " fill="#F6BE8D" transform="translate(34,181)"/>
<path d="M0 0 C1 3 1 3 1 7 C0.01 7 -0.98 7 -2 7 C-2.125 4.625 -2.125 4.625 -2 2 C-1.34 1.34 -0.68 0.68 0 0 Z " fill="#F4C39D" transform="translate(231,114)"/>
<path d="M0 0 C2.4375 0.6875 2.4375 0.6875 5 2 C5.8125 4.625 5.8125 4.625 6 7 C1.125 2.25 1.125 2.25 0 0 Z " fill="#E72A23" transform="translate(57,112)"/>
<path d="" fill="#FFFFFF" transform="translate(0,0)"/>
<path d="" fill="#FFFFFF" transform="translate(0,0)"/>
<path d="" fill="#FFFFFF" transform="translate(0,0)"/>
<path d="" fill="#FFFFFF" transform="translate(0,0)"/>
<path d="" fill="#FFFFFF" transform="translate(0,0)"/>
<path d="" fill="#FFFFFF" transform="translate(0,0)"/>
<path d="" fill="#FFFFFF" transform="translate(0,0)"/>
<path d="" fill="#FFFFFF" transform="translate(0,0)"/>
<path d="" fill="#FFFFFF" transform="translate(0,0)"/>
<path d="" fill="#FFFFFF" transform="translate(0,0)"/>
<path d="" fill="#FFFFFF" transform="translate(0,0)"/>
<path d="" fill="#FFFFFF" transform="translate(0,0)"/>
<path d="" fill="#FFFFFF" transform="translate(0,0)"/>
<path d="" fill="#FFFFFF" transform="translate(0,0)"/>
<path d="" fill="#FFFFFF" transform="translate(0,0)"/>
</svg>
